%TF.GenerationSoftware,KiCad,Pcbnew,6.0.8*%
%TF.CreationDate,2023-11-11T15:32:50-08:00*%
%TF.ProjectId,GracefulPSU,47726163-6566-4756-9c50-53552e6b6963,rev?*%
%TF.SameCoordinates,Original*%
%TF.FileFunction,Drillmap*%
%TF.FilePolarity,Positive*%
%FSLAX45Y45*%
G04 Gerber Fmt 4.5, Leading zero omitted, Abs format (unit mm)*
G04 Created by KiCad (PCBNEW 6.0.8) date 2023-11-11 15:32:50*
%MOMM*%
%LPD*%
G01*
G04 APERTURE LIST*
%ADD10C,0.100000*%
%ADD11C,0.200000*%
%ADD12C,0.040000*%
%ADD13C,0.060000*%
%ADD14C,0.076200*%
%ADD15C,0.080000*%
%ADD16C,0.090000*%
%ADD17C,0.110000*%
%ADD18C,0.160000*%
%ADD19C,0.275000*%
G04 APERTURE END LIST*
D10*
X18566000Y-3683000D02*
X9612500Y-3683000D01*
X9612500Y-3683000D02*
X9612500Y-14287500D01*
X9612500Y-14287500D02*
X18566000Y-14287500D01*
X18566000Y-14287500D02*
X18566000Y-3683000D01*
D11*
D12*
X12196000Y-6711000D02*
X12236000Y-6751000D01*
X12236000Y-6711000D02*
X12196000Y-6751000D01*
X13948600Y-9289100D02*
X13988600Y-9329100D01*
X13988600Y-9289100D02*
X13948600Y-9329100D01*
D13*
X12690500Y-4635500D02*
G75*
G03*
X12690500Y-4635500I-30000J0D01*
G01*
D14*
X9842500Y-4927600D02*
X9842500Y-5003800D01*
X9804400Y-4965700D02*
X9880600Y-4965700D01*
X9842500Y-5359400D02*
X9842500Y-5435600D01*
X9804400Y-5397500D02*
X9880600Y-5397500D01*
X10311000Y-4914900D02*
X10311000Y-4991100D01*
X10272900Y-4953000D02*
X10349100Y-4953000D01*
X10311000Y-5359400D02*
X10311000Y-5435600D01*
X10272900Y-5397500D02*
X10349100Y-5397500D01*
X13260400Y-13487400D02*
X13260400Y-13563600D01*
X13222300Y-13525500D02*
X13298500Y-13525500D01*
X13260400Y-13741400D02*
X13260400Y-13817600D01*
X13222300Y-13779500D02*
X13298500Y-13779500D01*
X15938500Y-6692900D02*
X15938500Y-6769100D01*
X15900400Y-6731000D02*
X15976600Y-6731000D01*
X15938500Y-12788900D02*
X15938500Y-12865100D01*
X15900400Y-12827000D02*
X15976600Y-12827000D01*
X18224500Y-6692900D02*
X18224500Y-6769100D01*
X18186400Y-6731000D02*
X18262600Y-6731000D01*
X18224500Y-12788900D02*
X18224500Y-12865100D01*
X18186400Y-12827000D02*
X18262600Y-12827000D01*
D15*
X9958285Y-7648284D02*
X9958285Y-7591715D01*
X9901716Y-7591715D01*
X9901716Y-7648284D01*
X9958285Y-7648284D01*
X9958285Y-8664285D02*
X9958285Y-8607716D01*
X9901716Y-8607716D01*
X9901716Y-8664285D01*
X9958285Y-8664285D01*
X9958285Y-9299285D02*
X9958285Y-9242716D01*
X9901716Y-9242716D01*
X9901716Y-9299285D01*
X9958285Y-9299285D01*
X9958285Y-9743785D02*
X9958285Y-9687216D01*
X9901716Y-9687216D01*
X9901716Y-9743785D01*
X9958285Y-9743785D01*
X9958285Y-10759785D02*
X9958285Y-10703216D01*
X9901716Y-10703216D01*
X9901716Y-10759785D01*
X9958285Y-10759785D01*
X10466285Y-7648284D02*
X10466285Y-7591715D01*
X10409716Y-7591715D01*
X10409716Y-7648284D01*
X10466285Y-7648284D01*
X10466285Y-8664285D02*
X10466285Y-8607716D01*
X10409716Y-8607716D01*
X10409716Y-8664285D01*
X10466285Y-8664285D01*
X10974285Y-5425785D02*
X10974285Y-5369216D01*
X10917716Y-5369216D01*
X10917716Y-5425785D01*
X10974285Y-5425785D01*
X10974285Y-7965784D02*
X10974285Y-7909215D01*
X10917716Y-7909215D01*
X10917716Y-7965784D01*
X10974285Y-7965784D01*
X10974285Y-8410285D02*
X10974285Y-8353715D01*
X10917716Y-8353715D01*
X10917716Y-8410285D01*
X10974285Y-8410285D01*
X10974285Y-8854785D02*
X10974285Y-8798216D01*
X10917716Y-8798216D01*
X10917716Y-8854785D01*
X10974285Y-8854785D01*
X10974285Y-9299285D02*
X10974285Y-9242716D01*
X10917716Y-9242716D01*
X10917716Y-9299285D01*
X10974285Y-9299285D01*
X10978285Y-9743785D02*
X10978285Y-9687216D01*
X10921716Y-9687216D01*
X10921716Y-9743785D01*
X10978285Y-9743785D01*
X11037785Y-6568784D02*
X11037785Y-6512215D01*
X10981216Y-6512215D01*
X10981216Y-6568784D01*
X11037785Y-6568784D01*
X11037785Y-7584784D02*
X11037785Y-7528215D01*
X10981216Y-7528215D01*
X10981216Y-7584784D01*
X11037785Y-7584784D01*
X11101285Y-11394784D02*
X11101285Y-11338215D01*
X11044716Y-11338215D01*
X11044716Y-11394784D01*
X11101285Y-11394784D01*
X11101285Y-12410784D02*
X11101285Y-12354215D01*
X11044716Y-12354215D01*
X11044716Y-12410784D01*
X11101285Y-12410784D01*
X11101285Y-12918784D02*
X11101285Y-12862215D01*
X11044716Y-12862215D01*
X11044716Y-12918784D01*
X11101285Y-12918784D01*
X11101285Y-13934784D02*
X11101285Y-13878215D01*
X11044716Y-13878215D01*
X11044716Y-13934784D01*
X11101285Y-13934784D01*
X11174285Y-5425785D02*
X11174285Y-5369216D01*
X11117716Y-5369216D01*
X11117716Y-5425785D01*
X11174285Y-5425785D01*
X11228284Y-9743785D02*
X11228284Y-9687216D01*
X11171716Y-9687216D01*
X11171716Y-9743785D01*
X11228284Y-9743785D01*
X11355284Y-9299285D02*
X11355284Y-9242716D01*
X11298715Y-9242716D01*
X11298715Y-9299285D01*
X11355284Y-9299285D01*
X11609284Y-11394784D02*
X11609284Y-11338215D01*
X11552715Y-11338215D01*
X11552715Y-11394784D01*
X11609284Y-11394784D01*
X11609284Y-12410784D02*
X11609284Y-12354215D01*
X11552715Y-12354215D01*
X11552715Y-12410784D01*
X11609284Y-12410784D01*
X11609284Y-12918784D02*
X11609284Y-12862215D01*
X11552715Y-12862215D01*
X11552715Y-12918784D01*
X11609284Y-12918784D01*
X11609284Y-13934784D02*
X11609284Y-13878215D01*
X11552715Y-13878215D01*
X11552715Y-13934784D01*
X11609284Y-13934784D01*
X11736284Y-9743785D02*
X11736284Y-9687216D01*
X11679715Y-9687216D01*
X11679715Y-9743785D01*
X11736284Y-9743785D01*
X11990284Y-7076784D02*
X11990284Y-7020215D01*
X11933715Y-7020215D01*
X11933715Y-7076784D01*
X11990284Y-7076784D01*
X11990284Y-7584784D02*
X11990284Y-7528215D01*
X11933715Y-7528215D01*
X11933715Y-7584784D01*
X11990284Y-7584784D01*
X11990284Y-7965784D02*
X11990284Y-7909215D01*
X11933715Y-7909215D01*
X11933715Y-7965784D01*
X11990284Y-7965784D01*
X11990284Y-8410285D02*
X11990284Y-8353715D01*
X11933715Y-8353715D01*
X11933715Y-8410285D01*
X11990284Y-8410285D01*
X11990284Y-8854785D02*
X11990284Y-8798216D01*
X11933715Y-8798216D01*
X11933715Y-8854785D01*
X11990284Y-8854785D01*
X12044284Y-5425785D02*
X12044284Y-5369216D01*
X11987715Y-5369216D01*
X11987715Y-5425785D01*
X12044284Y-5425785D01*
X12117284Y-10378785D02*
X12117284Y-10322216D01*
X12060715Y-10322216D01*
X12060715Y-10378785D01*
X12117284Y-10378785D01*
X12117284Y-10886785D02*
X12117284Y-10830216D01*
X12060715Y-10830216D01*
X12060715Y-10886785D01*
X12117284Y-10886785D01*
X12117284Y-11902784D02*
X12117284Y-11846215D01*
X12060715Y-11846215D01*
X12060715Y-11902784D01*
X12117284Y-11902784D01*
X12117284Y-12410784D02*
X12117284Y-12354215D01*
X12060715Y-12354215D01*
X12060715Y-12410784D01*
X12117284Y-12410784D01*
X12117284Y-12918784D02*
X12117284Y-12862215D01*
X12060715Y-12862215D01*
X12060715Y-12918784D01*
X12117284Y-12918784D01*
X12244284Y-5425785D02*
X12244284Y-5369216D01*
X12187715Y-5369216D01*
X12187715Y-5425785D01*
X12244284Y-5425785D01*
X12371284Y-9299285D02*
X12371284Y-9242716D01*
X12314715Y-9242716D01*
X12314715Y-9299285D01*
X12371284Y-9299285D01*
X12625284Y-10886785D02*
X12625284Y-10830216D01*
X12568715Y-10830216D01*
X12568715Y-10886785D01*
X12625284Y-10886785D01*
X12625284Y-11902784D02*
X12625284Y-11846215D01*
X12568715Y-11846215D01*
X12568715Y-11902784D01*
X12625284Y-11902784D01*
X12752284Y-5743284D02*
X12752284Y-5686715D01*
X12695715Y-5686715D01*
X12695715Y-5743284D01*
X12752284Y-5743284D01*
X12752284Y-9743785D02*
X12752284Y-9687216D01*
X12695715Y-9687216D01*
X12695715Y-9743785D01*
X12752284Y-9743785D01*
X12817784Y-8067384D02*
X12817784Y-8010815D01*
X12761215Y-8010815D01*
X12761215Y-8067384D01*
X12817784Y-8067384D01*
X12817784Y-8537285D02*
X12817784Y-8480716D01*
X12761215Y-8480716D01*
X12761215Y-8537285D01*
X12817784Y-8537285D01*
X12817784Y-9045285D02*
X12817784Y-8988716D01*
X12761215Y-8988716D01*
X12761215Y-9045285D01*
X12817784Y-9045285D01*
X13006284Y-7076784D02*
X13006284Y-7020215D01*
X12949715Y-7020215D01*
X12949715Y-7076784D01*
X13006284Y-7076784D01*
X13006284Y-7584784D02*
X13006284Y-7528215D01*
X12949715Y-7528215D01*
X12949715Y-7584784D01*
X13006284Y-7584784D01*
X13067784Y-8067384D02*
X13067784Y-8010815D01*
X13011215Y-8010815D01*
X13011215Y-8067384D01*
X13067784Y-8067384D01*
X13067784Y-8537285D02*
X13067784Y-8480716D01*
X13011215Y-8480716D01*
X13011215Y-8537285D01*
X13067784Y-8537285D01*
X13067784Y-9045285D02*
X13067784Y-8988716D01*
X13011215Y-8988716D01*
X13011215Y-9045285D01*
X13067784Y-9045285D01*
X13069784Y-4473285D02*
X13069784Y-4416716D01*
X13013215Y-4416716D01*
X13013215Y-4473285D01*
X13069784Y-4473285D01*
X13069784Y-4723285D02*
X13069784Y-4666716D01*
X13013215Y-4666716D01*
X13013215Y-4723285D01*
X13069784Y-4723285D01*
X13133284Y-10378785D02*
X13133284Y-10322216D01*
X13076715Y-10322216D01*
X13076715Y-10378785D01*
X13133284Y-10378785D01*
X13133284Y-10886785D02*
X13133284Y-10830216D01*
X13076715Y-10830216D01*
X13076715Y-10886785D01*
X13133284Y-10886785D01*
X13133284Y-11902784D02*
X13133284Y-11846215D01*
X13076715Y-11846215D01*
X13076715Y-11902784D01*
X13133284Y-11902784D01*
X13133284Y-12410784D02*
X13133284Y-12354215D01*
X13076715Y-12354215D01*
X13076715Y-12410784D01*
X13133284Y-12410784D01*
X13133284Y-12918784D02*
X13133284Y-12862215D01*
X13076715Y-12862215D01*
X13076715Y-12918784D01*
X13133284Y-12918784D01*
X13490284Y-4092284D02*
X13490284Y-4035715D01*
X13433715Y-4035715D01*
X13433715Y-4092284D01*
X13490284Y-4092284D01*
X13490284Y-4536785D02*
X13490284Y-4480216D01*
X13433715Y-4480216D01*
X13433715Y-4536785D01*
X13490284Y-4536785D01*
X13641284Y-6822784D02*
X13641284Y-6766215D01*
X13584715Y-6766215D01*
X13584715Y-6822784D01*
X13641284Y-6822784D01*
X13641284Y-7838784D02*
X13641284Y-7782215D01*
X13584715Y-7782215D01*
X13584715Y-7838784D01*
X13641284Y-7838784D01*
X13768284Y-5743284D02*
X13768284Y-5686715D01*
X13711715Y-5686715D01*
X13711715Y-5743284D01*
X13768284Y-5743284D01*
X14276284Y-5425785D02*
X14276284Y-5369216D01*
X14219715Y-5369216D01*
X14219715Y-5425785D01*
X14276284Y-5425785D01*
X14506284Y-4092284D02*
X14506284Y-4035715D01*
X14449715Y-4035715D01*
X14449715Y-4092284D01*
X14506284Y-4092284D01*
X14506284Y-4536785D02*
X14506284Y-4480216D01*
X14449715Y-4480216D01*
X14449715Y-4536785D01*
X14506284Y-4536785D01*
X14657284Y-12537784D02*
X14657284Y-12481215D01*
X14600715Y-12481215D01*
X14600715Y-12537784D01*
X14657284Y-12537784D01*
X15292284Y-5425785D02*
X15292284Y-5369216D01*
X15235715Y-5369216D01*
X15235715Y-5425785D01*
X15292284Y-5425785D01*
X15609784Y-5552785D02*
X15609784Y-5496216D01*
X15553215Y-5496216D01*
X15553215Y-5552785D01*
X15609784Y-5552785D01*
X15622484Y-6035384D02*
X15622484Y-5978815D01*
X15565915Y-5978815D01*
X15565915Y-6035384D01*
X15622484Y-6035384D01*
X15673284Y-12537784D02*
X15673284Y-12481215D01*
X15616715Y-12481215D01*
X15616715Y-12537784D01*
X15673284Y-12537784D01*
X16538284Y-4231019D02*
X16538284Y-4174450D01*
X16481715Y-4174450D01*
X16481715Y-4231019D01*
X16538284Y-4231019D01*
X16538284Y-4481019D02*
X16538284Y-4424450D01*
X16481715Y-4424450D01*
X16481715Y-4481019D01*
X16538284Y-4481019D01*
X16625784Y-5552785D02*
X16625784Y-5496216D01*
X16569215Y-5496216D01*
X16569215Y-5552785D01*
X16625784Y-5552785D01*
X16638484Y-6035384D02*
X16638484Y-5978815D01*
X16581915Y-5978815D01*
X16581915Y-6035384D01*
X16638484Y-6035384D01*
D16*
X9866500Y-11284500D02*
X9911500Y-11239500D01*
X9866500Y-11194500D01*
X9821500Y-11239500D01*
X9866500Y-11284500D01*
X9866500Y-12618000D02*
X9911500Y-12573000D01*
X9866500Y-12528000D01*
X9821500Y-12573000D01*
X9866500Y-12618000D01*
X9866500Y-13189500D02*
X9911500Y-13144500D01*
X9866500Y-13099500D01*
X9821500Y-13144500D01*
X9866500Y-13189500D01*
X10438000Y-9760500D02*
X10483000Y-9715500D01*
X10438000Y-9670500D01*
X10393000Y-9715500D01*
X10438000Y-9760500D01*
X10438000Y-10522500D02*
X10483000Y-10477500D01*
X10438000Y-10432500D01*
X10393000Y-10477500D01*
X10438000Y-10522500D01*
X10628500Y-11284500D02*
X10673500Y-11239500D01*
X10628500Y-11194500D01*
X10583500Y-11239500D01*
X10628500Y-11284500D01*
X10628500Y-12618000D02*
X10673500Y-12573000D01*
X10628500Y-12528000D01*
X10583500Y-12573000D01*
X10628500Y-12618000D01*
X10628500Y-13189500D02*
X10673500Y-13144500D01*
X10628500Y-13099500D01*
X10583500Y-13144500D01*
X10628500Y-13189500D01*
X11517500Y-6585500D02*
X11562500Y-6540500D01*
X11517500Y-6495500D01*
X11472500Y-6540500D01*
X11517500Y-6585500D01*
X11517500Y-7347500D02*
X11562500Y-7302500D01*
X11517500Y-7257500D01*
X11472500Y-7302500D01*
X11517500Y-7347500D01*
X13613000Y-11919500D02*
X13658000Y-11874500D01*
X13613000Y-11829500D01*
X13568000Y-11874500D01*
X13613000Y-11919500D01*
X13613000Y-12681500D02*
X13658000Y-12636500D01*
X13613000Y-12591500D01*
X13568000Y-12636500D01*
X13613000Y-12681500D01*
X13676500Y-13189500D02*
X13721500Y-13144500D01*
X13676500Y-13099500D01*
X13631500Y-13144500D01*
X13676500Y-13189500D01*
X13676500Y-13951500D02*
X13721500Y-13906500D01*
X13676500Y-13861500D01*
X13631500Y-13906500D01*
X13676500Y-13951500D01*
X13740000Y-8363500D02*
X13785000Y-8318500D01*
X13740000Y-8273500D01*
X13695000Y-8318500D01*
X13740000Y-8363500D01*
X13740000Y-9125500D02*
X13785000Y-9080500D01*
X13740000Y-9035500D01*
X13695000Y-9080500D01*
X13740000Y-9125500D01*
X14121000Y-11919500D02*
X14166000Y-11874500D01*
X14121000Y-11829500D01*
X14076000Y-11874500D01*
X14121000Y-11919500D01*
X14121000Y-12681500D02*
X14166000Y-12636500D01*
X14121000Y-12591500D01*
X14076000Y-12636500D01*
X14121000Y-12681500D01*
X14184500Y-13189500D02*
X14229500Y-13144500D01*
X14184500Y-13099500D01*
X14139500Y-13144500D01*
X14184500Y-13189500D01*
X14946500Y-13189500D02*
X14991500Y-13144500D01*
X14946500Y-13099500D01*
X14901500Y-13144500D01*
X14946500Y-13189500D01*
D10*
X10134000Y-6621500D02*
X10234000Y-6721500D01*
X10234000Y-6621500D02*
X10134000Y-6721500D01*
X10234000Y-6671500D02*
G75*
G03*
X10234000Y-6671500I-50000J0D01*
G01*
X10134000Y-7121500D02*
X10234000Y-7221500D01*
X10234000Y-7121500D02*
X10134000Y-7221500D01*
X10234000Y-7171500D02*
G75*
G03*
X10234000Y-7171500I-50000J0D01*
G01*
X10773000Y-6109500D02*
X10873000Y-6209500D01*
X10873000Y-6109500D02*
X10773000Y-6209500D01*
X10873000Y-6159500D02*
G75*
G03*
X10873000Y-6159500I-50000J0D01*
G01*
X11273000Y-6109500D02*
X11373000Y-6209500D01*
X11373000Y-6109500D02*
X11273000Y-6209500D01*
X11373000Y-6159500D02*
G75*
G03*
X11373000Y-6159500I-50000J0D01*
G01*
X12995500Y-5157000D02*
X13095500Y-5257000D01*
X13095500Y-5157000D02*
X12995500Y-5257000D01*
X13095500Y-5207000D02*
G75*
G03*
X13095500Y-5207000I-50000J0D01*
G01*
X13495500Y-5157000D02*
X13595500Y-5257000D01*
X13595500Y-5157000D02*
X13495500Y-5257000D01*
X13595500Y-5207000D02*
G75*
G03*
X13595500Y-5207000I-50000J0D01*
G01*
X13842400Y-10046500D02*
X13942400Y-10146500D01*
X13942400Y-10046500D02*
X13842400Y-10146500D01*
X13942400Y-10096500D02*
G75*
G03*
X13942400Y-10096500I-50000J0D01*
G01*
X13842400Y-10300500D02*
X13942400Y-10400500D01*
X13942400Y-10300500D02*
X13842400Y-10400500D01*
X13942400Y-10350500D02*
G75*
G03*
X13942400Y-10350500I-50000J0D01*
G01*
X13842400Y-10808500D02*
X13942400Y-10908500D01*
X13942400Y-10808500D02*
X13842400Y-10908500D01*
X13942400Y-10858500D02*
G75*
G03*
X13942400Y-10858500I-50000J0D01*
G01*
X13842400Y-11062500D02*
X13942400Y-11162500D01*
X13942400Y-11062500D02*
X13842400Y-11162500D01*
X13942400Y-11112500D02*
G75*
G03*
X13942400Y-11112500I-50000J0D01*
G01*
X14174000Y-6490500D02*
X14274000Y-6590500D01*
X14274000Y-6490500D02*
X14174000Y-6590500D01*
X14274000Y-6540500D02*
G75*
G03*
X14274000Y-6540500I-50000J0D01*
G01*
X14174000Y-6744500D02*
X14274000Y-6844500D01*
X14274000Y-6744500D02*
X14174000Y-6844500D01*
X14274000Y-6794500D02*
G75*
G03*
X14274000Y-6794500I-50000J0D01*
G01*
X14174000Y-6998500D02*
X14274000Y-7098500D01*
X14274000Y-6998500D02*
X14174000Y-7098500D01*
X14274000Y-7048500D02*
G75*
G03*
X14274000Y-7048500I-50000J0D01*
G01*
X14174000Y-7252500D02*
X14274000Y-7352500D01*
X14274000Y-7252500D02*
X14174000Y-7352500D01*
X14274000Y-7302500D02*
G75*
G03*
X14274000Y-7302500I-50000J0D01*
G01*
X14174000Y-7506500D02*
X14274000Y-7606500D01*
X14274000Y-7506500D02*
X14174000Y-7606500D01*
X14274000Y-7556500D02*
G75*
G03*
X14274000Y-7556500I-50000J0D01*
G01*
X14174000Y-7760500D02*
X14274000Y-7860500D01*
X14274000Y-7760500D02*
X14174000Y-7860500D01*
X14274000Y-7810500D02*
G75*
G03*
X14274000Y-7810500I-50000J0D01*
G01*
X14174000Y-8014500D02*
X14274000Y-8114500D01*
X14274000Y-8014500D02*
X14174000Y-8114500D01*
X14274000Y-8064500D02*
G75*
G03*
X14274000Y-8064500I-50000J0D01*
G01*
X14174000Y-8268500D02*
X14274000Y-8368500D01*
X14274000Y-8268500D02*
X14174000Y-8368500D01*
X14274000Y-8318500D02*
G75*
G03*
X14274000Y-8318500I-50000J0D01*
G01*
X14174000Y-8522500D02*
X14274000Y-8622500D01*
X14274000Y-8522500D02*
X14174000Y-8622500D01*
X14274000Y-8572500D02*
G75*
G03*
X14274000Y-8572500I-50000J0D01*
G01*
X14174000Y-8776500D02*
X14274000Y-8876500D01*
X14274000Y-8776500D02*
X14174000Y-8876500D01*
X14274000Y-8826500D02*
G75*
G03*
X14274000Y-8826500I-50000J0D01*
G01*
X14174000Y-9030500D02*
X14274000Y-9130500D01*
X14274000Y-9030500D02*
X14174000Y-9130500D01*
X14274000Y-9080500D02*
G75*
G03*
X14274000Y-9080500I-50000J0D01*
G01*
X14174000Y-9284500D02*
X14274000Y-9384500D01*
X14274000Y-9284500D02*
X14174000Y-9384500D01*
X14274000Y-9334500D02*
G75*
G03*
X14274000Y-9334500I-50000J0D01*
G01*
X14174000Y-9538500D02*
X14274000Y-9638500D01*
X14274000Y-9538500D02*
X14174000Y-9638500D01*
X14274000Y-9588500D02*
G75*
G03*
X14274000Y-9588500I-50000J0D01*
G01*
X14174000Y-9792500D02*
X14274000Y-9892500D01*
X14274000Y-9792500D02*
X14174000Y-9892500D01*
X14274000Y-9842500D02*
G75*
G03*
X14274000Y-9842500I-50000J0D01*
G01*
X14174000Y-10046500D02*
X14274000Y-10146500D01*
X14274000Y-10046500D02*
X14174000Y-10146500D01*
X14274000Y-10096500D02*
G75*
G03*
X14274000Y-10096500I-50000J0D01*
G01*
X14174000Y-10300500D02*
X14274000Y-10400500D01*
X14274000Y-10300500D02*
X14174000Y-10400500D01*
X14274000Y-10350500D02*
G75*
G03*
X14274000Y-10350500I-50000J0D01*
G01*
X14174000Y-10554500D02*
X14274000Y-10654500D01*
X14274000Y-10554500D02*
X14174000Y-10654500D01*
X14274000Y-10604500D02*
G75*
G03*
X14274000Y-10604500I-50000J0D01*
G01*
X14174000Y-10808500D02*
X14274000Y-10908500D01*
X14274000Y-10808500D02*
X14174000Y-10908500D01*
X14274000Y-10858500D02*
G75*
G03*
X14274000Y-10858500I-50000J0D01*
G01*
X14174000Y-11062500D02*
X14274000Y-11162500D01*
X14274000Y-11062500D02*
X14174000Y-11162500D01*
X14274000Y-11112500D02*
G75*
G03*
X14274000Y-11112500I-50000J0D01*
G01*
X14174000Y-11316500D02*
X14274000Y-11416500D01*
X14274000Y-11316500D02*
X14174000Y-11416500D01*
X14274000Y-11366500D02*
G75*
G03*
X14274000Y-11366500I-50000J0D01*
G01*
X14428000Y-6490500D02*
X14528000Y-6590500D01*
X14528000Y-6490500D02*
X14428000Y-6590500D01*
X14528000Y-6540500D02*
G75*
G03*
X14528000Y-6540500I-50000J0D01*
G01*
X14428000Y-6744500D02*
X14528000Y-6844500D01*
X14528000Y-6744500D02*
X14428000Y-6844500D01*
X14528000Y-6794500D02*
G75*
G03*
X14528000Y-6794500I-50000J0D01*
G01*
X14428000Y-6998500D02*
X14528000Y-7098500D01*
X14528000Y-6998500D02*
X14428000Y-7098500D01*
X14528000Y-7048500D02*
G75*
G03*
X14528000Y-7048500I-50000J0D01*
G01*
X14428000Y-7252500D02*
X14528000Y-7352500D01*
X14528000Y-7252500D02*
X14428000Y-7352500D01*
X14528000Y-7302500D02*
G75*
G03*
X14528000Y-7302500I-50000J0D01*
G01*
X14428000Y-7506500D02*
X14528000Y-7606500D01*
X14528000Y-7506500D02*
X14428000Y-7606500D01*
X14528000Y-7556500D02*
G75*
G03*
X14528000Y-7556500I-50000J0D01*
G01*
X14428000Y-7760500D02*
X14528000Y-7860500D01*
X14528000Y-7760500D02*
X14428000Y-7860500D01*
X14528000Y-7810500D02*
G75*
G03*
X14528000Y-7810500I-50000J0D01*
G01*
X14428000Y-8014500D02*
X14528000Y-8114500D01*
X14528000Y-8014500D02*
X14428000Y-8114500D01*
X14528000Y-8064500D02*
G75*
G03*
X14528000Y-8064500I-50000J0D01*
G01*
X14428000Y-8268500D02*
X14528000Y-8368500D01*
X14528000Y-8268500D02*
X14428000Y-8368500D01*
X14528000Y-8318500D02*
G75*
G03*
X14528000Y-8318500I-50000J0D01*
G01*
X14428000Y-8522500D02*
X14528000Y-8622500D01*
X14528000Y-8522500D02*
X14428000Y-8622500D01*
X14528000Y-8572500D02*
G75*
G03*
X14528000Y-8572500I-50000J0D01*
G01*
X14428000Y-8776500D02*
X14528000Y-8876500D01*
X14528000Y-8776500D02*
X14428000Y-8876500D01*
X14528000Y-8826500D02*
G75*
G03*
X14528000Y-8826500I-50000J0D01*
G01*
X14428000Y-9030500D02*
X14528000Y-9130500D01*
X14528000Y-9030500D02*
X14428000Y-9130500D01*
X14528000Y-9080500D02*
G75*
G03*
X14528000Y-9080500I-50000J0D01*
G01*
X14428000Y-9284500D02*
X14528000Y-9384500D01*
X14528000Y-9284500D02*
X14428000Y-9384500D01*
X14528000Y-9334500D02*
G75*
G03*
X14528000Y-9334500I-50000J0D01*
G01*
X14428000Y-9538500D02*
X14528000Y-9638500D01*
X14528000Y-9538500D02*
X14428000Y-9638500D01*
X14528000Y-9588500D02*
G75*
G03*
X14528000Y-9588500I-50000J0D01*
G01*
X14428000Y-9792500D02*
X14528000Y-9892500D01*
X14528000Y-9792500D02*
X14428000Y-9892500D01*
X14528000Y-9842500D02*
G75*
G03*
X14528000Y-9842500I-50000J0D01*
G01*
X14428000Y-10046500D02*
X14528000Y-10146500D01*
X14528000Y-10046500D02*
X14428000Y-10146500D01*
X14528000Y-10096500D02*
G75*
G03*
X14528000Y-10096500I-50000J0D01*
G01*
X14428000Y-10300500D02*
X14528000Y-10400500D01*
X14528000Y-10300500D02*
X14428000Y-10400500D01*
X14528000Y-10350500D02*
G75*
G03*
X14528000Y-10350500I-50000J0D01*
G01*
X14428000Y-10554500D02*
X14528000Y-10654500D01*
X14528000Y-10554500D02*
X14428000Y-10654500D01*
X14528000Y-10604500D02*
G75*
G03*
X14528000Y-10604500I-50000J0D01*
G01*
X14428000Y-10808500D02*
X14528000Y-10908500D01*
X14528000Y-10808500D02*
X14428000Y-10908500D01*
X14528000Y-10858500D02*
G75*
G03*
X14528000Y-10858500I-50000J0D01*
G01*
X14428000Y-11062500D02*
X14528000Y-11162500D01*
X14528000Y-11062500D02*
X14428000Y-11162500D01*
X14528000Y-11112500D02*
G75*
G03*
X14528000Y-11112500I-50000J0D01*
G01*
X14428000Y-11316500D02*
X14528000Y-11416500D01*
X14528000Y-11316500D02*
X14428000Y-11416500D01*
X14528000Y-11366500D02*
G75*
G03*
X14528000Y-11366500I-50000J0D01*
G01*
X14682000Y-6491000D02*
X14782000Y-6591000D01*
X14782000Y-6491000D02*
X14682000Y-6591000D01*
X14782000Y-6541000D02*
G75*
G03*
X14782000Y-6541000I-50000J0D01*
G01*
X14682000Y-6745000D02*
X14782000Y-6845000D01*
X14782000Y-6745000D02*
X14682000Y-6845000D01*
X14782000Y-6795000D02*
G75*
G03*
X14782000Y-6795000I-50000J0D01*
G01*
X14682000Y-6999000D02*
X14782000Y-7099000D01*
X14782000Y-6999000D02*
X14682000Y-7099000D01*
X14782000Y-7049000D02*
G75*
G03*
X14782000Y-7049000I-50000J0D01*
G01*
X14682000Y-7253000D02*
X14782000Y-7353000D01*
X14782000Y-7253000D02*
X14682000Y-7353000D01*
X14782000Y-7303000D02*
G75*
G03*
X14782000Y-7303000I-50000J0D01*
G01*
X14682000Y-7507000D02*
X14782000Y-7607000D01*
X14782000Y-7507000D02*
X14682000Y-7607000D01*
X14782000Y-7557000D02*
G75*
G03*
X14782000Y-7557000I-50000J0D01*
G01*
X14682000Y-7761000D02*
X14782000Y-7861000D01*
X14782000Y-7761000D02*
X14682000Y-7861000D01*
X14782000Y-7811000D02*
G75*
G03*
X14782000Y-7811000I-50000J0D01*
G01*
X14682000Y-8015000D02*
X14782000Y-8115000D01*
X14782000Y-8015000D02*
X14682000Y-8115000D01*
X14782000Y-8065000D02*
G75*
G03*
X14782000Y-8065000I-50000J0D01*
G01*
X14682000Y-8269000D02*
X14782000Y-8369000D01*
X14782000Y-8269000D02*
X14682000Y-8369000D01*
X14782000Y-8319000D02*
G75*
G03*
X14782000Y-8319000I-50000J0D01*
G01*
X14682000Y-8523000D02*
X14782000Y-8623000D01*
X14782000Y-8523000D02*
X14682000Y-8623000D01*
X14782000Y-8573000D02*
G75*
G03*
X14782000Y-8573000I-50000J0D01*
G01*
X14682000Y-8777000D02*
X14782000Y-8877000D01*
X14782000Y-8777000D02*
X14682000Y-8877000D01*
X14782000Y-8827000D02*
G75*
G03*
X14782000Y-8827000I-50000J0D01*
G01*
X14682000Y-9031000D02*
X14782000Y-9131000D01*
X14782000Y-9031000D02*
X14682000Y-9131000D01*
X14782000Y-9081000D02*
G75*
G03*
X14782000Y-9081000I-50000J0D01*
G01*
X14682000Y-9285000D02*
X14782000Y-9385000D01*
X14782000Y-9285000D02*
X14682000Y-9385000D01*
X14782000Y-9335000D02*
G75*
G03*
X14782000Y-9335000I-50000J0D01*
G01*
X14682000Y-9539000D02*
X14782000Y-9639000D01*
X14782000Y-9539000D02*
X14682000Y-9639000D01*
X14782000Y-9589000D02*
G75*
G03*
X14782000Y-9589000I-50000J0D01*
G01*
X14682000Y-9793000D02*
X14782000Y-9893000D01*
X14782000Y-9793000D02*
X14682000Y-9893000D01*
X14782000Y-9843000D02*
G75*
G03*
X14782000Y-9843000I-50000J0D01*
G01*
X14682000Y-10047000D02*
X14782000Y-10147000D01*
X14782000Y-10047000D02*
X14682000Y-10147000D01*
X14782000Y-10097000D02*
G75*
G03*
X14782000Y-10097000I-50000J0D01*
G01*
X14682000Y-10301000D02*
X14782000Y-10401000D01*
X14782000Y-10301000D02*
X14682000Y-10401000D01*
X14782000Y-10351000D02*
G75*
G03*
X14782000Y-10351000I-50000J0D01*
G01*
X14682000Y-10555000D02*
X14782000Y-10655000D01*
X14782000Y-10555000D02*
X14682000Y-10655000D01*
X14782000Y-10605000D02*
G75*
G03*
X14782000Y-10605000I-50000J0D01*
G01*
X14682000Y-10809000D02*
X14782000Y-10909000D01*
X14782000Y-10809000D02*
X14682000Y-10909000D01*
X14782000Y-10859000D02*
G75*
G03*
X14782000Y-10859000I-50000J0D01*
G01*
X14682000Y-11063000D02*
X14782000Y-11163000D01*
X14782000Y-11063000D02*
X14682000Y-11163000D01*
X14782000Y-11113000D02*
G75*
G03*
X14782000Y-11113000I-50000J0D01*
G01*
X14682000Y-11317000D02*
X14782000Y-11417000D01*
X14782000Y-11317000D02*
X14682000Y-11417000D01*
X14782000Y-11367000D02*
G75*
G03*
X14782000Y-11367000I-50000J0D01*
G01*
X14936000Y-6491000D02*
X15036000Y-6591000D01*
X15036000Y-6491000D02*
X14936000Y-6591000D01*
X15036000Y-6541000D02*
G75*
G03*
X15036000Y-6541000I-50000J0D01*
G01*
X14936000Y-6745000D02*
X15036000Y-6845000D01*
X15036000Y-6745000D02*
X14936000Y-6845000D01*
X15036000Y-6795000D02*
G75*
G03*
X15036000Y-6795000I-50000J0D01*
G01*
X14936000Y-6999000D02*
X15036000Y-7099000D01*
X15036000Y-6999000D02*
X14936000Y-7099000D01*
X15036000Y-7049000D02*
G75*
G03*
X15036000Y-7049000I-50000J0D01*
G01*
X14936000Y-7253000D02*
X15036000Y-7353000D01*
X15036000Y-7253000D02*
X14936000Y-7353000D01*
X15036000Y-7303000D02*
G75*
G03*
X15036000Y-7303000I-50000J0D01*
G01*
X14936000Y-7507000D02*
X15036000Y-7607000D01*
X15036000Y-7507000D02*
X14936000Y-7607000D01*
X15036000Y-7557000D02*
G75*
G03*
X15036000Y-7557000I-50000J0D01*
G01*
X14936000Y-7761000D02*
X15036000Y-7861000D01*
X15036000Y-7761000D02*
X14936000Y-7861000D01*
X15036000Y-7811000D02*
G75*
G03*
X15036000Y-7811000I-50000J0D01*
G01*
X14936000Y-8015000D02*
X15036000Y-8115000D01*
X15036000Y-8015000D02*
X14936000Y-8115000D01*
X15036000Y-8065000D02*
G75*
G03*
X15036000Y-8065000I-50000J0D01*
G01*
X14936000Y-8269000D02*
X15036000Y-8369000D01*
X15036000Y-8269000D02*
X14936000Y-8369000D01*
X15036000Y-8319000D02*
G75*
G03*
X15036000Y-8319000I-50000J0D01*
G01*
X14936000Y-8523000D02*
X15036000Y-8623000D01*
X15036000Y-8523000D02*
X14936000Y-8623000D01*
X15036000Y-8573000D02*
G75*
G03*
X15036000Y-8573000I-50000J0D01*
G01*
X14936000Y-8777000D02*
X15036000Y-8877000D01*
X15036000Y-8777000D02*
X14936000Y-8877000D01*
X15036000Y-8827000D02*
G75*
G03*
X15036000Y-8827000I-50000J0D01*
G01*
X14936000Y-9031000D02*
X15036000Y-9131000D01*
X15036000Y-9031000D02*
X14936000Y-9131000D01*
X15036000Y-9081000D02*
G75*
G03*
X15036000Y-9081000I-50000J0D01*
G01*
X14936000Y-9285000D02*
X15036000Y-9385000D01*
X15036000Y-9285000D02*
X14936000Y-9385000D01*
X15036000Y-9335000D02*
G75*
G03*
X15036000Y-9335000I-50000J0D01*
G01*
X14936000Y-9539000D02*
X15036000Y-9639000D01*
X15036000Y-9539000D02*
X14936000Y-9639000D01*
X15036000Y-9589000D02*
G75*
G03*
X15036000Y-9589000I-50000J0D01*
G01*
X14936000Y-9793000D02*
X15036000Y-9893000D01*
X15036000Y-9793000D02*
X14936000Y-9893000D01*
X15036000Y-9843000D02*
G75*
G03*
X15036000Y-9843000I-50000J0D01*
G01*
X14936000Y-10047000D02*
X15036000Y-10147000D01*
X15036000Y-10047000D02*
X14936000Y-10147000D01*
X15036000Y-10097000D02*
G75*
G03*
X15036000Y-10097000I-50000J0D01*
G01*
X14936000Y-10301000D02*
X15036000Y-10401000D01*
X15036000Y-10301000D02*
X14936000Y-10401000D01*
X15036000Y-10351000D02*
G75*
G03*
X15036000Y-10351000I-50000J0D01*
G01*
X14936000Y-10555000D02*
X15036000Y-10655000D01*
X15036000Y-10555000D02*
X14936000Y-10655000D01*
X15036000Y-10605000D02*
G75*
G03*
X15036000Y-10605000I-50000J0D01*
G01*
X14936000Y-10809000D02*
X15036000Y-10909000D01*
X15036000Y-10809000D02*
X14936000Y-10909000D01*
X15036000Y-10859000D02*
G75*
G03*
X15036000Y-10859000I-50000J0D01*
G01*
X14936000Y-11063000D02*
X15036000Y-11163000D01*
X15036000Y-11063000D02*
X14936000Y-11163000D01*
X15036000Y-11113000D02*
G75*
G03*
X15036000Y-11113000I-50000J0D01*
G01*
X14936000Y-11317000D02*
X15036000Y-11417000D01*
X15036000Y-11317000D02*
X14936000Y-11417000D01*
X15036000Y-11367000D02*
G75*
G03*
X15036000Y-11367000I-50000J0D01*
G01*
D17*
X17090000Y-5945000D02*
X17200000Y-6055000D01*
X17200000Y-5945000D02*
X17090000Y-6055000D01*
X17145000Y-5945000D02*
X17145000Y-6055000D01*
X17090000Y-6000000D02*
X17200000Y-6000000D01*
X17344000Y-5945000D02*
X17454000Y-6055000D01*
X17454000Y-5945000D02*
X17344000Y-6055000D01*
X17399000Y-5945000D02*
X17399000Y-6055000D01*
X17344000Y-6000000D02*
X17454000Y-6000000D01*
X17471000Y-4453500D02*
X17581000Y-4563500D01*
X17581000Y-4453500D02*
X17471000Y-4563500D01*
X17526000Y-4453500D02*
X17526000Y-4563500D01*
X17471000Y-4508500D02*
X17581000Y-4508500D01*
X17471000Y-4707500D02*
X17581000Y-4817500D01*
X17581000Y-4707500D02*
X17471000Y-4817500D01*
X17526000Y-4707500D02*
X17526000Y-4817500D01*
X17471000Y-4762500D02*
X17581000Y-4762500D01*
X17471000Y-4961500D02*
X17581000Y-5071500D01*
X17581000Y-4961500D02*
X17471000Y-5071500D01*
X17526000Y-4961500D02*
X17526000Y-5071500D01*
X17471000Y-5016500D02*
X17581000Y-5016500D01*
X17598000Y-5945000D02*
X17708000Y-6055000D01*
X17708000Y-5945000D02*
X17598000Y-6055000D01*
X17653000Y-5945000D02*
X17653000Y-6055000D01*
X17598000Y-6000000D02*
X17708000Y-6000000D01*
D18*
X14104500Y-13826500D02*
X14264500Y-13986500D01*
X14264500Y-13826500D02*
X14104500Y-13986500D01*
X14241069Y-13963069D02*
X14241069Y-13849931D01*
X14127931Y-13849931D01*
X14127931Y-13963069D01*
X14241069Y-13963069D01*
X14915500Y-13826500D02*
X15075500Y-13986500D01*
X15075500Y-13826500D02*
X14915500Y-13986500D01*
X15052069Y-13963069D02*
X15052069Y-13849931D01*
X14938931Y-13849931D01*
X14938931Y-13963069D01*
X15052069Y-13963069D01*
X16708000Y-13826500D02*
X16868000Y-13986500D01*
X16868000Y-13826500D02*
X16708000Y-13986500D01*
X16844569Y-13963069D02*
X16844569Y-13849931D01*
X16731431Y-13849931D01*
X16731431Y-13963069D01*
X16844569Y-13963069D01*
X18271500Y-4873000D02*
X18431500Y-5033000D01*
X18431500Y-4873000D02*
X18271500Y-5033000D01*
X18408069Y-5009569D02*
X18408069Y-4896431D01*
X18294931Y-4896431D01*
X18294931Y-5009569D01*
X18408069Y-5009569D01*
X18271500Y-5444500D02*
X18431500Y-5604500D01*
X18431500Y-5444500D02*
X18271500Y-5604500D01*
X18408069Y-5581069D02*
X18408069Y-5467931D01*
X18294931Y-5467931D01*
X18294931Y-5581069D01*
X18408069Y-5581069D01*
X18271500Y-6079500D02*
X18431500Y-6239500D01*
X18431500Y-6079500D02*
X18271500Y-6239500D01*
X18408069Y-6216069D02*
X18408069Y-6102931D01*
X18294931Y-6102931D01*
X18294931Y-6216069D01*
X18408069Y-6216069D01*
D19*
X9895500Y-4117000D02*
X10170500Y-4392000D01*
X10170500Y-4117000D02*
X9895500Y-4392000D01*
X10033000Y-4392000D02*
X10170500Y-4254500D01*
X10033000Y-4117000D01*
X9895500Y-4254500D01*
X10033000Y-4392000D01*
X9895500Y-5895000D02*
X10170500Y-6170000D01*
X10170500Y-5895000D02*
X9895500Y-6170000D01*
X10033000Y-6170000D02*
X10170500Y-6032500D01*
X10033000Y-5895000D01*
X9895500Y-6032500D01*
X10033000Y-6170000D01*
X9895500Y-11737000D02*
X10170500Y-12012000D01*
X10170500Y-11737000D02*
X9895500Y-12012000D01*
X10033000Y-12012000D02*
X10170500Y-11874500D01*
X10033000Y-11737000D01*
X9895500Y-11874500D01*
X10033000Y-12012000D01*
X9895500Y-13642000D02*
X10170500Y-13917000D01*
X10170500Y-13642000D02*
X9895500Y-13917000D01*
X10033000Y-13917000D02*
X10170500Y-13779500D01*
X10033000Y-13642000D01*
X9895500Y-13779500D01*
X10033000Y-13917000D01*
X14721500Y-5895000D02*
X14996500Y-6170000D01*
X14996500Y-5895000D02*
X14721500Y-6170000D01*
X14859000Y-6170000D02*
X14996500Y-6032500D01*
X14859000Y-5895000D01*
X14721500Y-6032500D01*
X14859000Y-6170000D01*
X14721500Y-11737000D02*
X14996500Y-12012000D01*
X14996500Y-11737000D02*
X14721500Y-12012000D01*
X14859000Y-12012000D02*
X14996500Y-11874500D01*
X14859000Y-11737000D01*
X14721500Y-11874500D01*
X14859000Y-12012000D01*
X18023500Y-4117000D02*
X18298500Y-4392000D01*
X18298500Y-4117000D02*
X18023500Y-4392000D01*
X18161000Y-4392000D02*
X18298500Y-4254500D01*
X18161000Y-4117000D01*
X18023500Y-4254500D01*
X18161000Y-4392000D01*
X18023500Y-13642000D02*
X18298500Y-13917000D01*
X18298500Y-13642000D02*
X18023500Y-13917000D01*
X18161000Y-13917000D02*
X18298500Y-13779500D01*
X18161000Y-13642000D01*
X18023500Y-13779500D01*
X18161000Y-13917000D01*
D11*
X9865119Y-14602976D02*
X9865119Y-14402976D01*
X9912738Y-14402976D01*
X9941310Y-14412500D01*
X9960357Y-14431548D01*
X9969881Y-14450595D01*
X9979405Y-14488690D01*
X9979405Y-14517262D01*
X9969881Y-14555357D01*
X9960357Y-14574405D01*
X9941310Y-14593452D01*
X9912738Y-14602976D01*
X9865119Y-14602976D01*
X10065119Y-14602976D02*
X10065119Y-14469643D01*
X10065119Y-14507738D02*
X10074643Y-14488690D01*
X10084167Y-14479167D01*
X10103214Y-14469643D01*
X10122262Y-14469643D01*
X10188929Y-14602976D02*
X10188929Y-14469643D01*
X10188929Y-14402976D02*
X10179405Y-14412500D01*
X10188929Y-14422024D01*
X10198452Y-14412500D01*
X10188929Y-14402976D01*
X10188929Y-14422024D01*
X10312738Y-14602976D02*
X10293690Y-14593452D01*
X10284167Y-14574405D01*
X10284167Y-14402976D01*
X10417500Y-14602976D02*
X10398452Y-14593452D01*
X10388929Y-14574405D01*
X10388929Y-14402976D01*
X10646071Y-14602976D02*
X10646071Y-14402976D01*
X10712738Y-14545833D01*
X10779405Y-14402976D01*
X10779405Y-14602976D01*
X10960357Y-14602976D02*
X10960357Y-14498214D01*
X10950833Y-14479167D01*
X10931786Y-14469643D01*
X10893690Y-14469643D01*
X10874643Y-14479167D01*
X10960357Y-14593452D02*
X10941310Y-14602976D01*
X10893690Y-14602976D01*
X10874643Y-14593452D01*
X10865119Y-14574405D01*
X10865119Y-14555357D01*
X10874643Y-14536309D01*
X10893690Y-14526786D01*
X10941310Y-14526786D01*
X10960357Y-14517262D01*
X11055595Y-14469643D02*
X11055595Y-14669643D01*
X11055595Y-14479167D02*
X11074643Y-14469643D01*
X11112738Y-14469643D01*
X11131786Y-14479167D01*
X11141310Y-14488690D01*
X11150833Y-14507738D01*
X11150833Y-14564881D01*
X11141310Y-14583928D01*
X11131786Y-14593452D01*
X11112738Y-14602976D01*
X11074643Y-14602976D01*
X11055595Y-14593452D01*
X11236548Y-14583928D02*
X11246071Y-14593452D01*
X11236548Y-14602976D01*
X11227024Y-14593452D01*
X11236548Y-14583928D01*
X11236548Y-14602976D01*
X11236548Y-14479167D02*
X11246071Y-14488690D01*
X11236548Y-14498214D01*
X11227024Y-14488690D01*
X11236548Y-14479167D01*
X11236548Y-14498214D01*
D12*
X9567500Y-14912500D02*
X9607500Y-14952500D01*
X9607500Y-14912500D02*
X9567500Y-14952500D01*
D11*
X9903214Y-14822976D02*
X9922262Y-14822976D01*
X9941310Y-14832500D01*
X9950833Y-14842024D01*
X9960357Y-14861071D01*
X9969881Y-14899167D01*
X9969881Y-14946786D01*
X9960357Y-14984881D01*
X9950833Y-15003928D01*
X9941310Y-15013452D01*
X9922262Y-15022976D01*
X9903214Y-15022976D01*
X9884167Y-15013452D01*
X9874643Y-15003928D01*
X9865119Y-14984881D01*
X9855595Y-14946786D01*
X9855595Y-14899167D01*
X9865119Y-14861071D01*
X9874643Y-14842024D01*
X9884167Y-14832500D01*
X9903214Y-14822976D01*
X10055595Y-15003928D02*
X10065119Y-15013452D01*
X10055595Y-15022976D01*
X10046071Y-15013452D01*
X10055595Y-15003928D01*
X10055595Y-15022976D01*
X10236548Y-14889643D02*
X10236548Y-15022976D01*
X10188929Y-14813452D02*
X10141310Y-14956309D01*
X10265119Y-14956309D01*
X10379405Y-14822976D02*
X10398452Y-14822976D01*
X10417500Y-14832500D01*
X10427024Y-14842024D01*
X10436548Y-14861071D01*
X10446071Y-14899167D01*
X10446071Y-14946786D01*
X10436548Y-14984881D01*
X10427024Y-15003928D01*
X10417500Y-15013452D01*
X10398452Y-15022976D01*
X10379405Y-15022976D01*
X10360357Y-15013452D01*
X10350833Y-15003928D01*
X10341310Y-14984881D01*
X10331786Y-14946786D01*
X10331786Y-14899167D01*
X10341310Y-14861071D01*
X10350833Y-14842024D01*
X10360357Y-14832500D01*
X10379405Y-14822976D01*
X10569881Y-14822976D02*
X10588929Y-14822976D01*
X10607976Y-14832500D01*
X10617500Y-14842024D01*
X10627024Y-14861071D01*
X10636548Y-14899167D01*
X10636548Y-14946786D01*
X10627024Y-14984881D01*
X10617500Y-15003928D01*
X10607976Y-15013452D01*
X10588929Y-15022976D01*
X10569881Y-15022976D01*
X10550833Y-15013452D01*
X10541310Y-15003928D01*
X10531786Y-14984881D01*
X10522262Y-14946786D01*
X10522262Y-14899167D01*
X10531786Y-14861071D01*
X10541310Y-14842024D01*
X10550833Y-14832500D01*
X10569881Y-14822976D01*
X10722262Y-15022976D02*
X10722262Y-14889643D01*
X10722262Y-14908690D02*
X10731786Y-14899167D01*
X10750833Y-14889643D01*
X10779405Y-14889643D01*
X10798452Y-14899167D01*
X10807976Y-14918214D01*
X10807976Y-15022976D01*
X10807976Y-14918214D02*
X10817500Y-14899167D01*
X10836548Y-14889643D01*
X10865119Y-14889643D01*
X10884167Y-14899167D01*
X10893690Y-14918214D01*
X10893690Y-15022976D01*
X10988929Y-15022976D02*
X10988929Y-14889643D01*
X10988929Y-14908690D02*
X10998452Y-14899167D01*
X11017500Y-14889643D01*
X11046071Y-14889643D01*
X11065119Y-14899167D01*
X11074643Y-14918214D01*
X11074643Y-15022976D01*
X11074643Y-14918214D02*
X11084167Y-14899167D01*
X11103214Y-14889643D01*
X11131786Y-14889643D01*
X11150833Y-14899167D01*
X11160357Y-14918214D01*
X11160357Y-15022976D01*
X11550833Y-14813452D02*
X11379405Y-15070595D01*
X11807976Y-14822976D02*
X11827024Y-14822976D01*
X11846071Y-14832500D01*
X11855595Y-14842024D01*
X11865119Y-14861071D01*
X11874643Y-14899167D01*
X11874643Y-14946786D01*
X11865119Y-14984881D01*
X11855595Y-15003928D01*
X11846071Y-15013452D01*
X11827024Y-15022976D01*
X11807976Y-15022976D01*
X11788928Y-15013452D01*
X11779405Y-15003928D01*
X11769881Y-14984881D01*
X11760357Y-14946786D01*
X11760357Y-14899167D01*
X11769881Y-14861071D01*
X11779405Y-14842024D01*
X11788928Y-14832500D01*
X11807976Y-14822976D01*
X11960357Y-15003928D02*
X11969881Y-15013452D01*
X11960357Y-15022976D01*
X11950833Y-15013452D01*
X11960357Y-15003928D01*
X11960357Y-15022976D01*
X12093690Y-14822976D02*
X12112738Y-14822976D01*
X12131786Y-14832500D01*
X12141309Y-14842024D01*
X12150833Y-14861071D01*
X12160357Y-14899167D01*
X12160357Y-14946786D01*
X12150833Y-14984881D01*
X12141309Y-15003928D01*
X12131786Y-15013452D01*
X12112738Y-15022976D01*
X12093690Y-15022976D01*
X12074643Y-15013452D01*
X12065119Y-15003928D01*
X12055595Y-14984881D01*
X12046071Y-14946786D01*
X12046071Y-14899167D01*
X12055595Y-14861071D01*
X12065119Y-14842024D01*
X12074643Y-14832500D01*
X12093690Y-14822976D01*
X12350833Y-15022976D02*
X12236548Y-15022976D01*
X12293690Y-15022976D02*
X12293690Y-14822976D01*
X12274643Y-14851548D01*
X12255595Y-14870595D01*
X12236548Y-14880119D01*
X12531786Y-14822976D02*
X12436548Y-14822976D01*
X12427024Y-14918214D01*
X12436548Y-14908690D01*
X12455595Y-14899167D01*
X12503214Y-14899167D01*
X12522262Y-14908690D01*
X12531786Y-14918214D01*
X12541309Y-14937262D01*
X12541309Y-14984881D01*
X12531786Y-15003928D01*
X12522262Y-15013452D01*
X12503214Y-15022976D01*
X12455595Y-15022976D01*
X12436548Y-15013452D01*
X12427024Y-15003928D01*
X12607976Y-14822976D02*
X12741309Y-14822976D01*
X12655595Y-15022976D01*
X12807976Y-14822976D02*
X12807976Y-14861071D01*
X12884167Y-14822976D02*
X12884167Y-14861071D01*
X13179405Y-15099167D02*
X13169881Y-15089643D01*
X13150833Y-15061071D01*
X13141309Y-15042024D01*
X13131786Y-15013452D01*
X13122262Y-14965833D01*
X13122262Y-14927738D01*
X13131786Y-14880119D01*
X13141309Y-14851548D01*
X13150833Y-14832500D01*
X13169881Y-14803928D01*
X13179405Y-14794405D01*
X13246071Y-14842024D02*
X13255595Y-14832500D01*
X13274643Y-14822976D01*
X13322262Y-14822976D01*
X13341309Y-14832500D01*
X13350833Y-14842024D01*
X13360357Y-14861071D01*
X13360357Y-14880119D01*
X13350833Y-14908690D01*
X13236548Y-15022976D01*
X13360357Y-15022976D01*
X13598452Y-15022976D02*
X13598452Y-14822976D01*
X13684167Y-15022976D02*
X13684167Y-14918214D01*
X13674643Y-14899167D01*
X13655595Y-14889643D01*
X13627024Y-14889643D01*
X13607976Y-14899167D01*
X13598452Y-14908690D01*
X13807976Y-15022976D02*
X13788928Y-15013452D01*
X13779405Y-15003928D01*
X13769881Y-14984881D01*
X13769881Y-14927738D01*
X13779405Y-14908690D01*
X13788928Y-14899167D01*
X13807976Y-14889643D01*
X13836548Y-14889643D01*
X13855595Y-14899167D01*
X13865119Y-14908690D01*
X13874643Y-14927738D01*
X13874643Y-14984881D01*
X13865119Y-15003928D01*
X13855595Y-15013452D01*
X13836548Y-15022976D01*
X13807976Y-15022976D01*
X13988928Y-15022976D02*
X13969881Y-15013452D01*
X13960357Y-14994405D01*
X13960357Y-14822976D01*
X14141309Y-15013452D02*
X14122262Y-15022976D01*
X14084167Y-15022976D01*
X14065119Y-15013452D01*
X14055595Y-14994405D01*
X14055595Y-14918214D01*
X14065119Y-14899167D01*
X14084167Y-14889643D01*
X14122262Y-14889643D01*
X14141309Y-14899167D01*
X14150833Y-14918214D01*
X14150833Y-14937262D01*
X14055595Y-14956309D01*
X14227024Y-15013452D02*
X14246071Y-15022976D01*
X14284167Y-15022976D01*
X14303214Y-15013452D01*
X14312738Y-14994405D01*
X14312738Y-14984881D01*
X14303214Y-14965833D01*
X14284167Y-14956309D01*
X14255595Y-14956309D01*
X14236548Y-14946786D01*
X14227024Y-14927738D01*
X14227024Y-14918214D01*
X14236548Y-14899167D01*
X14255595Y-14889643D01*
X14284167Y-14889643D01*
X14303214Y-14899167D01*
X14379405Y-15099167D02*
X14388928Y-15089643D01*
X14407976Y-15061071D01*
X14417500Y-15042024D01*
X14427024Y-15013452D01*
X14436548Y-14965833D01*
X14436548Y-14927738D01*
X14427024Y-14880119D01*
X14417500Y-14851548D01*
X14407976Y-14832500D01*
X14388928Y-14803928D01*
X14379405Y-14794405D01*
D13*
X9607500Y-15196500D02*
G75*
G03*
X9607500Y-15196500I-30000J0D01*
G01*
D11*
X9903214Y-15086976D02*
X9922262Y-15086976D01*
X9941310Y-15096500D01*
X9950833Y-15106024D01*
X9960357Y-15125071D01*
X9969881Y-15163167D01*
X9969881Y-15210786D01*
X9960357Y-15248881D01*
X9950833Y-15267928D01*
X9941310Y-15277452D01*
X9922262Y-15286976D01*
X9903214Y-15286976D01*
X9884167Y-15277452D01*
X9874643Y-15267928D01*
X9865119Y-15248881D01*
X9855595Y-15210786D01*
X9855595Y-15163167D01*
X9865119Y-15125071D01*
X9874643Y-15106024D01*
X9884167Y-15096500D01*
X9903214Y-15086976D01*
X10055595Y-15267928D02*
X10065119Y-15277452D01*
X10055595Y-15286976D01*
X10046071Y-15277452D01*
X10055595Y-15267928D01*
X10055595Y-15286976D01*
X10236548Y-15086976D02*
X10198452Y-15086976D01*
X10179405Y-15096500D01*
X10169881Y-15106024D01*
X10150833Y-15134595D01*
X10141310Y-15172690D01*
X10141310Y-15248881D01*
X10150833Y-15267928D01*
X10160357Y-15277452D01*
X10179405Y-15286976D01*
X10217500Y-15286976D01*
X10236548Y-15277452D01*
X10246071Y-15267928D01*
X10255595Y-15248881D01*
X10255595Y-15201262D01*
X10246071Y-15182214D01*
X10236548Y-15172690D01*
X10217500Y-15163167D01*
X10179405Y-15163167D01*
X10160357Y-15172690D01*
X10150833Y-15182214D01*
X10141310Y-15201262D01*
X10379405Y-15086976D02*
X10398452Y-15086976D01*
X10417500Y-15096500D01*
X10427024Y-15106024D01*
X10436548Y-15125071D01*
X10446071Y-15163167D01*
X10446071Y-15210786D01*
X10436548Y-15248881D01*
X10427024Y-15267928D01*
X10417500Y-15277452D01*
X10398452Y-15286976D01*
X10379405Y-15286976D01*
X10360357Y-15277452D01*
X10350833Y-15267928D01*
X10341310Y-15248881D01*
X10331786Y-15210786D01*
X10331786Y-15163167D01*
X10341310Y-15125071D01*
X10350833Y-15106024D01*
X10360357Y-15096500D01*
X10379405Y-15086976D01*
X10569881Y-15086976D02*
X10588929Y-15086976D01*
X10607976Y-15096500D01*
X10617500Y-15106024D01*
X10627024Y-15125071D01*
X10636548Y-15163167D01*
X10636548Y-15210786D01*
X10627024Y-15248881D01*
X10617500Y-15267928D01*
X10607976Y-15277452D01*
X10588929Y-15286976D01*
X10569881Y-15286976D01*
X10550833Y-15277452D01*
X10541310Y-15267928D01*
X10531786Y-15248881D01*
X10522262Y-15210786D01*
X10522262Y-15163167D01*
X10531786Y-15125071D01*
X10541310Y-15106024D01*
X10550833Y-15096500D01*
X10569881Y-15086976D01*
X10722262Y-15286976D02*
X10722262Y-15153643D01*
X10722262Y-15172690D02*
X10731786Y-15163167D01*
X10750833Y-15153643D01*
X10779405Y-15153643D01*
X10798452Y-15163167D01*
X10807976Y-15182214D01*
X10807976Y-15286976D01*
X10807976Y-15182214D02*
X10817500Y-15163167D01*
X10836548Y-15153643D01*
X10865119Y-15153643D01*
X10884167Y-15163167D01*
X10893690Y-15182214D01*
X10893690Y-15286976D01*
X10988929Y-15286976D02*
X10988929Y-15153643D01*
X10988929Y-15172690D02*
X10998452Y-15163167D01*
X11017500Y-15153643D01*
X11046071Y-15153643D01*
X11065119Y-15163167D01*
X11074643Y-15182214D01*
X11074643Y-15286976D01*
X11074643Y-15182214D02*
X11084167Y-15163167D01*
X11103214Y-15153643D01*
X11131786Y-15153643D01*
X11150833Y-15163167D01*
X11160357Y-15182214D01*
X11160357Y-15286976D01*
X11550833Y-15077452D02*
X11379405Y-15334595D01*
X11807976Y-15086976D02*
X11827024Y-15086976D01*
X11846071Y-15096500D01*
X11855595Y-15106024D01*
X11865119Y-15125071D01*
X11874643Y-15163167D01*
X11874643Y-15210786D01*
X11865119Y-15248881D01*
X11855595Y-15267928D01*
X11846071Y-15277452D01*
X11827024Y-15286976D01*
X11807976Y-15286976D01*
X11788928Y-15277452D01*
X11779405Y-15267928D01*
X11769881Y-15248881D01*
X11760357Y-15210786D01*
X11760357Y-15163167D01*
X11769881Y-15125071D01*
X11779405Y-15106024D01*
X11788928Y-15096500D01*
X11807976Y-15086976D01*
X11960357Y-15267928D02*
X11969881Y-15277452D01*
X11960357Y-15286976D01*
X11950833Y-15277452D01*
X11960357Y-15267928D01*
X11960357Y-15286976D01*
X12093690Y-15086976D02*
X12112738Y-15086976D01*
X12131786Y-15096500D01*
X12141309Y-15106024D01*
X12150833Y-15125071D01*
X12160357Y-15163167D01*
X12160357Y-15210786D01*
X12150833Y-15248881D01*
X12141309Y-15267928D01*
X12131786Y-15277452D01*
X12112738Y-15286976D01*
X12093690Y-15286976D01*
X12074643Y-15277452D01*
X12065119Y-15267928D01*
X12055595Y-15248881D01*
X12046071Y-15210786D01*
X12046071Y-15163167D01*
X12055595Y-15125071D01*
X12065119Y-15106024D01*
X12074643Y-15096500D01*
X12093690Y-15086976D01*
X12236548Y-15106024D02*
X12246071Y-15096500D01*
X12265119Y-15086976D01*
X12312738Y-15086976D01*
X12331786Y-15096500D01*
X12341309Y-15106024D01*
X12350833Y-15125071D01*
X12350833Y-15144119D01*
X12341309Y-15172690D01*
X12227024Y-15286976D01*
X12350833Y-15286976D01*
X12417500Y-15086976D02*
X12541309Y-15086976D01*
X12474643Y-15163167D01*
X12503214Y-15163167D01*
X12522262Y-15172690D01*
X12531786Y-15182214D01*
X12541309Y-15201262D01*
X12541309Y-15248881D01*
X12531786Y-15267928D01*
X12522262Y-15277452D01*
X12503214Y-15286976D01*
X12446071Y-15286976D01*
X12427024Y-15277452D01*
X12417500Y-15267928D01*
X12712738Y-15086976D02*
X12674643Y-15086976D01*
X12655595Y-15096500D01*
X12646071Y-15106024D01*
X12627024Y-15134595D01*
X12617500Y-15172690D01*
X12617500Y-15248881D01*
X12627024Y-15267928D01*
X12636548Y-15277452D01*
X12655595Y-15286976D01*
X12693690Y-15286976D01*
X12712738Y-15277452D01*
X12722262Y-15267928D01*
X12731786Y-15248881D01*
X12731786Y-15201262D01*
X12722262Y-15182214D01*
X12712738Y-15172690D01*
X12693690Y-15163167D01*
X12655595Y-15163167D01*
X12636548Y-15172690D01*
X12627024Y-15182214D01*
X12617500Y-15201262D01*
X12807976Y-15086976D02*
X12807976Y-15125071D01*
X12884167Y-15086976D02*
X12884167Y-15125071D01*
X13179405Y-15363167D02*
X13169881Y-15353643D01*
X13150833Y-15325071D01*
X13141309Y-15306024D01*
X13131786Y-15277452D01*
X13122262Y-15229833D01*
X13122262Y-15191738D01*
X13131786Y-15144119D01*
X13141309Y-15115548D01*
X13150833Y-15096500D01*
X13169881Y-15067928D01*
X13179405Y-15058405D01*
X13360357Y-15286976D02*
X13246071Y-15286976D01*
X13303214Y-15286976D02*
X13303214Y-15086976D01*
X13284167Y-15115548D01*
X13265119Y-15134595D01*
X13246071Y-15144119D01*
X13598452Y-15286976D02*
X13598452Y-15086976D01*
X13684167Y-15286976D02*
X13684167Y-15182214D01*
X13674643Y-15163167D01*
X13655595Y-15153643D01*
X13627024Y-15153643D01*
X13607976Y-15163167D01*
X13598452Y-15172690D01*
X13807976Y-15286976D02*
X13788928Y-15277452D01*
X13779405Y-15267928D01*
X13769881Y-15248881D01*
X13769881Y-15191738D01*
X13779405Y-15172690D01*
X13788928Y-15163167D01*
X13807976Y-15153643D01*
X13836548Y-15153643D01*
X13855595Y-15163167D01*
X13865119Y-15172690D01*
X13874643Y-15191738D01*
X13874643Y-15248881D01*
X13865119Y-15267928D01*
X13855595Y-15277452D01*
X13836548Y-15286976D01*
X13807976Y-15286976D01*
X13988928Y-15286976D02*
X13969881Y-15277452D01*
X13960357Y-15258405D01*
X13960357Y-15086976D01*
X14141309Y-15277452D02*
X14122262Y-15286976D01*
X14084167Y-15286976D01*
X14065119Y-15277452D01*
X14055595Y-15258405D01*
X14055595Y-15182214D01*
X14065119Y-15163167D01*
X14084167Y-15153643D01*
X14122262Y-15153643D01*
X14141309Y-15163167D01*
X14150833Y-15182214D01*
X14150833Y-15201262D01*
X14055595Y-15220309D01*
X14217500Y-15363167D02*
X14227024Y-15353643D01*
X14246071Y-15325071D01*
X14255595Y-15306024D01*
X14265119Y-15277452D01*
X14274643Y-15229833D01*
X14274643Y-15191738D01*
X14265119Y-15144119D01*
X14255595Y-15115548D01*
X14246071Y-15096500D01*
X14227024Y-15067928D01*
X14217500Y-15058405D01*
D14*
X9569400Y-15422400D02*
X9569400Y-15498600D01*
X9531300Y-15460500D02*
X9607500Y-15460500D01*
D11*
X9903214Y-15350976D02*
X9922262Y-15350976D01*
X9941310Y-15360500D01*
X9950833Y-15370024D01*
X9960357Y-15389071D01*
X9969881Y-15427167D01*
X9969881Y-15474786D01*
X9960357Y-15512881D01*
X9950833Y-15531928D01*
X9941310Y-15541452D01*
X9922262Y-15550976D01*
X9903214Y-15550976D01*
X9884167Y-15541452D01*
X9874643Y-15531928D01*
X9865119Y-15512881D01*
X9855595Y-15474786D01*
X9855595Y-15427167D01*
X9865119Y-15389071D01*
X9874643Y-15370024D01*
X9884167Y-15360500D01*
X9903214Y-15350976D01*
X10055595Y-15531928D02*
X10065119Y-15541452D01*
X10055595Y-15550976D01*
X10046071Y-15541452D01*
X10055595Y-15531928D01*
X10055595Y-15550976D01*
X10131786Y-15350976D02*
X10265119Y-15350976D01*
X10179405Y-15550976D01*
X10427024Y-15350976D02*
X10388929Y-15350976D01*
X10369881Y-15360500D01*
X10360357Y-15370024D01*
X10341310Y-15398595D01*
X10331786Y-15436690D01*
X10331786Y-15512881D01*
X10341310Y-15531928D01*
X10350833Y-15541452D01*
X10369881Y-15550976D01*
X10407976Y-15550976D01*
X10427024Y-15541452D01*
X10436548Y-15531928D01*
X10446071Y-15512881D01*
X10446071Y-15465262D01*
X10436548Y-15446214D01*
X10427024Y-15436690D01*
X10407976Y-15427167D01*
X10369881Y-15427167D01*
X10350833Y-15436690D01*
X10341310Y-15446214D01*
X10331786Y-15465262D01*
X10522262Y-15370024D02*
X10531786Y-15360500D01*
X10550833Y-15350976D01*
X10598452Y-15350976D01*
X10617500Y-15360500D01*
X10627024Y-15370024D01*
X10636548Y-15389071D01*
X10636548Y-15408119D01*
X10627024Y-15436690D01*
X10512738Y-15550976D01*
X10636548Y-15550976D01*
X10722262Y-15550976D02*
X10722262Y-15417643D01*
X10722262Y-15436690D02*
X10731786Y-15427167D01*
X10750833Y-15417643D01*
X10779405Y-15417643D01*
X10798452Y-15427167D01*
X10807976Y-15446214D01*
X10807976Y-15550976D01*
X10807976Y-15446214D02*
X10817500Y-15427167D01*
X10836548Y-15417643D01*
X10865119Y-15417643D01*
X10884167Y-15427167D01*
X10893690Y-15446214D01*
X10893690Y-15550976D01*
X10988929Y-15550976D02*
X10988929Y-15417643D01*
X10988929Y-15436690D02*
X10998452Y-15427167D01*
X11017500Y-15417643D01*
X11046071Y-15417643D01*
X11065119Y-15427167D01*
X11074643Y-15446214D01*
X11074643Y-15550976D01*
X11074643Y-15446214D02*
X11084167Y-15427167D01*
X11103214Y-15417643D01*
X11131786Y-15417643D01*
X11150833Y-15427167D01*
X11160357Y-15446214D01*
X11160357Y-15550976D01*
X11550833Y-15341452D02*
X11379405Y-15598595D01*
X11807976Y-15350976D02*
X11827024Y-15350976D01*
X11846071Y-15360500D01*
X11855595Y-15370024D01*
X11865119Y-15389071D01*
X11874643Y-15427167D01*
X11874643Y-15474786D01*
X11865119Y-15512881D01*
X11855595Y-15531928D01*
X11846071Y-15541452D01*
X11827024Y-15550976D01*
X11807976Y-15550976D01*
X11788928Y-15541452D01*
X11779405Y-15531928D01*
X11769881Y-15512881D01*
X11760357Y-15474786D01*
X11760357Y-15427167D01*
X11769881Y-15389071D01*
X11779405Y-15370024D01*
X11788928Y-15360500D01*
X11807976Y-15350976D01*
X11960357Y-15531928D02*
X11969881Y-15541452D01*
X11960357Y-15550976D01*
X11950833Y-15541452D01*
X11960357Y-15531928D01*
X11960357Y-15550976D01*
X12093690Y-15350976D02*
X12112738Y-15350976D01*
X12131786Y-15360500D01*
X12141309Y-15370024D01*
X12150833Y-15389071D01*
X12160357Y-15427167D01*
X12160357Y-15474786D01*
X12150833Y-15512881D01*
X12141309Y-15531928D01*
X12131786Y-15541452D01*
X12112738Y-15550976D01*
X12093690Y-15550976D01*
X12074643Y-15541452D01*
X12065119Y-15531928D01*
X12055595Y-15512881D01*
X12046071Y-15474786D01*
X12046071Y-15427167D01*
X12055595Y-15389071D01*
X12065119Y-15370024D01*
X12074643Y-15360500D01*
X12093690Y-15350976D01*
X12227024Y-15350976D02*
X12350833Y-15350976D01*
X12284167Y-15427167D01*
X12312738Y-15427167D01*
X12331786Y-15436690D01*
X12341309Y-15446214D01*
X12350833Y-15465262D01*
X12350833Y-15512881D01*
X12341309Y-15531928D01*
X12331786Y-15541452D01*
X12312738Y-15550976D01*
X12255595Y-15550976D01*
X12236548Y-15541452D01*
X12227024Y-15531928D01*
X12474643Y-15350976D02*
X12493690Y-15350976D01*
X12512738Y-15360500D01*
X12522262Y-15370024D01*
X12531786Y-15389071D01*
X12541309Y-15427167D01*
X12541309Y-15474786D01*
X12531786Y-15512881D01*
X12522262Y-15531928D01*
X12512738Y-15541452D01*
X12493690Y-15550976D01*
X12474643Y-15550976D01*
X12455595Y-15541452D01*
X12446071Y-15531928D01*
X12436548Y-15512881D01*
X12427024Y-15474786D01*
X12427024Y-15427167D01*
X12436548Y-15389071D01*
X12446071Y-15370024D01*
X12455595Y-15360500D01*
X12474643Y-15350976D01*
X12665119Y-15350976D02*
X12684167Y-15350976D01*
X12703214Y-15360500D01*
X12712738Y-15370024D01*
X12722262Y-15389071D01*
X12731786Y-15427167D01*
X12731786Y-15474786D01*
X12722262Y-15512881D01*
X12712738Y-15531928D01*
X12703214Y-15541452D01*
X12684167Y-15550976D01*
X12665119Y-15550976D01*
X12646071Y-15541452D01*
X12636548Y-15531928D01*
X12627024Y-15512881D01*
X12617500Y-15474786D01*
X12617500Y-15427167D01*
X12627024Y-15389071D01*
X12636548Y-15370024D01*
X12646071Y-15360500D01*
X12665119Y-15350976D01*
X12807976Y-15350976D02*
X12807976Y-15389071D01*
X12884167Y-15350976D02*
X12884167Y-15389071D01*
X13179405Y-15627167D02*
X13169881Y-15617643D01*
X13150833Y-15589071D01*
X13141309Y-15570024D01*
X13131786Y-15541452D01*
X13122262Y-15493833D01*
X13122262Y-15455738D01*
X13131786Y-15408119D01*
X13141309Y-15379548D01*
X13150833Y-15360500D01*
X13169881Y-15331928D01*
X13179405Y-15322405D01*
X13360357Y-15550976D02*
X13246071Y-15550976D01*
X13303214Y-15550976D02*
X13303214Y-15350976D01*
X13284167Y-15379548D01*
X13265119Y-15398595D01*
X13246071Y-15408119D01*
X13484167Y-15350976D02*
X13503214Y-15350976D01*
X13522262Y-15360500D01*
X13531786Y-15370024D01*
X13541309Y-15389071D01*
X13550833Y-15427167D01*
X13550833Y-15474786D01*
X13541309Y-15512881D01*
X13531786Y-15531928D01*
X13522262Y-15541452D01*
X13503214Y-15550976D01*
X13484167Y-15550976D01*
X13465119Y-15541452D01*
X13455595Y-15531928D01*
X13446071Y-15512881D01*
X13436548Y-15474786D01*
X13436548Y-15427167D01*
X13446071Y-15389071D01*
X13455595Y-15370024D01*
X13465119Y-15360500D01*
X13484167Y-15350976D01*
X13788928Y-15550976D02*
X13788928Y-15350976D01*
X13874643Y-15550976D02*
X13874643Y-15446214D01*
X13865119Y-15427167D01*
X13846071Y-15417643D01*
X13817500Y-15417643D01*
X13798452Y-15427167D01*
X13788928Y-15436690D01*
X13998452Y-15550976D02*
X13979405Y-15541452D01*
X13969881Y-15531928D01*
X13960357Y-15512881D01*
X13960357Y-15455738D01*
X13969881Y-15436690D01*
X13979405Y-15427167D01*
X13998452Y-15417643D01*
X14027024Y-15417643D01*
X14046071Y-15427167D01*
X14055595Y-15436690D01*
X14065119Y-15455738D01*
X14065119Y-15512881D01*
X14055595Y-15531928D01*
X14046071Y-15541452D01*
X14027024Y-15550976D01*
X13998452Y-15550976D01*
X14179405Y-15550976D02*
X14160357Y-15541452D01*
X14150833Y-15522405D01*
X14150833Y-15350976D01*
X14331786Y-15541452D02*
X14312738Y-15550976D01*
X14274643Y-15550976D01*
X14255595Y-15541452D01*
X14246071Y-15522405D01*
X14246071Y-15446214D01*
X14255595Y-15427167D01*
X14274643Y-15417643D01*
X14312738Y-15417643D01*
X14331786Y-15427167D01*
X14341309Y-15446214D01*
X14341309Y-15465262D01*
X14246071Y-15484309D01*
X14417500Y-15541452D02*
X14436548Y-15550976D01*
X14474643Y-15550976D01*
X14493690Y-15541452D01*
X14503214Y-15522405D01*
X14503214Y-15512881D01*
X14493690Y-15493833D01*
X14474643Y-15484309D01*
X14446071Y-15484309D01*
X14427024Y-15474786D01*
X14417500Y-15455738D01*
X14417500Y-15446214D01*
X14427024Y-15427167D01*
X14446071Y-15417643D01*
X14474643Y-15417643D01*
X14493690Y-15427167D01*
X14569881Y-15627167D02*
X14579405Y-15617643D01*
X14598452Y-15589071D01*
X14607976Y-15570024D01*
X14617500Y-15541452D01*
X14627024Y-15493833D01*
X14627024Y-15455738D01*
X14617500Y-15408119D01*
X14607976Y-15379548D01*
X14598452Y-15360500D01*
X14579405Y-15331928D01*
X14569881Y-15322405D01*
D15*
X9595785Y-15752784D02*
X9595785Y-15696215D01*
X9539216Y-15696215D01*
X9539216Y-15752784D01*
X9595785Y-15752784D01*
D11*
X9903214Y-15614976D02*
X9922262Y-15614976D01*
X9941310Y-15624500D01*
X9950833Y-15634024D01*
X9960357Y-15653071D01*
X9969881Y-15691167D01*
X9969881Y-15738786D01*
X9960357Y-15776881D01*
X9950833Y-15795928D01*
X9941310Y-15805452D01*
X9922262Y-15814976D01*
X9903214Y-15814976D01*
X9884167Y-15805452D01*
X9874643Y-15795928D01*
X9865119Y-15776881D01*
X9855595Y-15738786D01*
X9855595Y-15691167D01*
X9865119Y-15653071D01*
X9874643Y-15634024D01*
X9884167Y-15624500D01*
X9903214Y-15614976D01*
X10055595Y-15795928D02*
X10065119Y-15805452D01*
X10055595Y-15814976D01*
X10046071Y-15805452D01*
X10055595Y-15795928D01*
X10055595Y-15814976D01*
X10179405Y-15700690D02*
X10160357Y-15691167D01*
X10150833Y-15681643D01*
X10141310Y-15662595D01*
X10141310Y-15653071D01*
X10150833Y-15634024D01*
X10160357Y-15624500D01*
X10179405Y-15614976D01*
X10217500Y-15614976D01*
X10236548Y-15624500D01*
X10246071Y-15634024D01*
X10255595Y-15653071D01*
X10255595Y-15662595D01*
X10246071Y-15681643D01*
X10236548Y-15691167D01*
X10217500Y-15700690D01*
X10179405Y-15700690D01*
X10160357Y-15710214D01*
X10150833Y-15719738D01*
X10141310Y-15738786D01*
X10141310Y-15776881D01*
X10150833Y-15795928D01*
X10160357Y-15805452D01*
X10179405Y-15814976D01*
X10217500Y-15814976D01*
X10236548Y-15805452D01*
X10246071Y-15795928D01*
X10255595Y-15776881D01*
X10255595Y-15738786D01*
X10246071Y-15719738D01*
X10236548Y-15710214D01*
X10217500Y-15700690D01*
X10379405Y-15614976D02*
X10398452Y-15614976D01*
X10417500Y-15624500D01*
X10427024Y-15634024D01*
X10436548Y-15653071D01*
X10446071Y-15691167D01*
X10446071Y-15738786D01*
X10436548Y-15776881D01*
X10427024Y-15795928D01*
X10417500Y-15805452D01*
X10398452Y-15814976D01*
X10379405Y-15814976D01*
X10360357Y-15805452D01*
X10350833Y-15795928D01*
X10341310Y-15776881D01*
X10331786Y-15738786D01*
X10331786Y-15691167D01*
X10341310Y-15653071D01*
X10350833Y-15634024D01*
X10360357Y-15624500D01*
X10379405Y-15614976D01*
X10569881Y-15614976D02*
X10588929Y-15614976D01*
X10607976Y-15624500D01*
X10617500Y-15634024D01*
X10627024Y-15653071D01*
X10636548Y-15691167D01*
X10636548Y-15738786D01*
X10627024Y-15776881D01*
X10617500Y-15795928D01*
X10607976Y-15805452D01*
X10588929Y-15814976D01*
X10569881Y-15814976D01*
X10550833Y-15805452D01*
X10541310Y-15795928D01*
X10531786Y-15776881D01*
X10522262Y-15738786D01*
X10522262Y-15691167D01*
X10531786Y-15653071D01*
X10541310Y-15634024D01*
X10550833Y-15624500D01*
X10569881Y-15614976D01*
X10722262Y-15814976D02*
X10722262Y-15681643D01*
X10722262Y-15700690D02*
X10731786Y-15691167D01*
X10750833Y-15681643D01*
X10779405Y-15681643D01*
X10798452Y-15691167D01*
X10807976Y-15710214D01*
X10807976Y-15814976D01*
X10807976Y-15710214D02*
X10817500Y-15691167D01*
X10836548Y-15681643D01*
X10865119Y-15681643D01*
X10884167Y-15691167D01*
X10893690Y-15710214D01*
X10893690Y-15814976D01*
X10988929Y-15814976D02*
X10988929Y-15681643D01*
X10988929Y-15700690D02*
X10998452Y-15691167D01*
X11017500Y-15681643D01*
X11046071Y-15681643D01*
X11065119Y-15691167D01*
X11074643Y-15710214D01*
X11074643Y-15814976D01*
X11074643Y-15710214D02*
X11084167Y-15691167D01*
X11103214Y-15681643D01*
X11131786Y-15681643D01*
X11150833Y-15691167D01*
X11160357Y-15710214D01*
X11160357Y-15814976D01*
X11550833Y-15605452D02*
X11379405Y-15862595D01*
X11807976Y-15614976D02*
X11827024Y-15614976D01*
X11846071Y-15624500D01*
X11855595Y-15634024D01*
X11865119Y-15653071D01*
X11874643Y-15691167D01*
X11874643Y-15738786D01*
X11865119Y-15776881D01*
X11855595Y-15795928D01*
X11846071Y-15805452D01*
X11827024Y-15814976D01*
X11807976Y-15814976D01*
X11788928Y-15805452D01*
X11779405Y-15795928D01*
X11769881Y-15776881D01*
X11760357Y-15738786D01*
X11760357Y-15691167D01*
X11769881Y-15653071D01*
X11779405Y-15634024D01*
X11788928Y-15624500D01*
X11807976Y-15614976D01*
X11960357Y-15795928D02*
X11969881Y-15805452D01*
X11960357Y-15814976D01*
X11950833Y-15805452D01*
X11960357Y-15795928D01*
X11960357Y-15814976D01*
X12093690Y-15614976D02*
X12112738Y-15614976D01*
X12131786Y-15624500D01*
X12141309Y-15634024D01*
X12150833Y-15653071D01*
X12160357Y-15691167D01*
X12160357Y-15738786D01*
X12150833Y-15776881D01*
X12141309Y-15795928D01*
X12131786Y-15805452D01*
X12112738Y-15814976D01*
X12093690Y-15814976D01*
X12074643Y-15805452D01*
X12065119Y-15795928D01*
X12055595Y-15776881D01*
X12046071Y-15738786D01*
X12046071Y-15691167D01*
X12055595Y-15653071D01*
X12065119Y-15634024D01*
X12074643Y-15624500D01*
X12093690Y-15614976D01*
X12227024Y-15614976D02*
X12350833Y-15614976D01*
X12284167Y-15691167D01*
X12312738Y-15691167D01*
X12331786Y-15700690D01*
X12341309Y-15710214D01*
X12350833Y-15729262D01*
X12350833Y-15776881D01*
X12341309Y-15795928D01*
X12331786Y-15805452D01*
X12312738Y-15814976D01*
X12255595Y-15814976D01*
X12236548Y-15805452D01*
X12227024Y-15795928D01*
X12541309Y-15814976D02*
X12427024Y-15814976D01*
X12484167Y-15814976D02*
X12484167Y-15614976D01*
X12465119Y-15643548D01*
X12446071Y-15662595D01*
X12427024Y-15672119D01*
X12722262Y-15614976D02*
X12627024Y-15614976D01*
X12617500Y-15710214D01*
X12627024Y-15700690D01*
X12646071Y-15691167D01*
X12693690Y-15691167D01*
X12712738Y-15700690D01*
X12722262Y-15710214D01*
X12731786Y-15729262D01*
X12731786Y-15776881D01*
X12722262Y-15795928D01*
X12712738Y-15805452D01*
X12693690Y-15814976D01*
X12646071Y-15814976D01*
X12627024Y-15805452D01*
X12617500Y-15795928D01*
X12807976Y-15614976D02*
X12807976Y-15653071D01*
X12884167Y-15614976D02*
X12884167Y-15653071D01*
X13179405Y-15891167D02*
X13169881Y-15881643D01*
X13150833Y-15853071D01*
X13141309Y-15834024D01*
X13131786Y-15805452D01*
X13122262Y-15757833D01*
X13122262Y-15719738D01*
X13131786Y-15672119D01*
X13141309Y-15643548D01*
X13150833Y-15624500D01*
X13169881Y-15595928D01*
X13179405Y-15586405D01*
X13236548Y-15614976D02*
X13369881Y-15614976D01*
X13284167Y-15814976D01*
X13531786Y-15614976D02*
X13493690Y-15614976D01*
X13474643Y-15624500D01*
X13465119Y-15634024D01*
X13446071Y-15662595D01*
X13436548Y-15700690D01*
X13436548Y-15776881D01*
X13446071Y-15795928D01*
X13455595Y-15805452D01*
X13474643Y-15814976D01*
X13512738Y-15814976D01*
X13531786Y-15805452D01*
X13541309Y-15795928D01*
X13550833Y-15776881D01*
X13550833Y-15729262D01*
X13541309Y-15710214D01*
X13531786Y-15700690D01*
X13512738Y-15691167D01*
X13474643Y-15691167D01*
X13455595Y-15700690D01*
X13446071Y-15710214D01*
X13436548Y-15729262D01*
X13788928Y-15814976D02*
X13788928Y-15614976D01*
X13874643Y-15814976D02*
X13874643Y-15710214D01*
X13865119Y-15691167D01*
X13846071Y-15681643D01*
X13817500Y-15681643D01*
X13798452Y-15691167D01*
X13788928Y-15700690D01*
X13998452Y-15814976D02*
X13979405Y-15805452D01*
X13969881Y-15795928D01*
X13960357Y-15776881D01*
X13960357Y-15719738D01*
X13969881Y-15700690D01*
X13979405Y-15691167D01*
X13998452Y-15681643D01*
X14027024Y-15681643D01*
X14046071Y-15691167D01*
X14055595Y-15700690D01*
X14065119Y-15719738D01*
X14065119Y-15776881D01*
X14055595Y-15795928D01*
X14046071Y-15805452D01*
X14027024Y-15814976D01*
X13998452Y-15814976D01*
X14179405Y-15814976D02*
X14160357Y-15805452D01*
X14150833Y-15786405D01*
X14150833Y-15614976D01*
X14331786Y-15805452D02*
X14312738Y-15814976D01*
X14274643Y-15814976D01*
X14255595Y-15805452D01*
X14246071Y-15786405D01*
X14246071Y-15710214D01*
X14255595Y-15691167D01*
X14274643Y-15681643D01*
X14312738Y-15681643D01*
X14331786Y-15691167D01*
X14341309Y-15710214D01*
X14341309Y-15729262D01*
X14246071Y-15748309D01*
X14417500Y-15805452D02*
X14436548Y-15814976D01*
X14474643Y-15814976D01*
X14493690Y-15805452D01*
X14503214Y-15786405D01*
X14503214Y-15776881D01*
X14493690Y-15757833D01*
X14474643Y-15748309D01*
X14446071Y-15748309D01*
X14427024Y-15738786D01*
X14417500Y-15719738D01*
X14417500Y-15710214D01*
X14427024Y-15691167D01*
X14446071Y-15681643D01*
X14474643Y-15681643D01*
X14493690Y-15691167D01*
X14569881Y-15891167D02*
X14579405Y-15881643D01*
X14598452Y-15853071D01*
X14607976Y-15834024D01*
X14617500Y-15805452D01*
X14627024Y-15757833D01*
X14627024Y-15719738D01*
X14617500Y-15672119D01*
X14607976Y-15643548D01*
X14598452Y-15624500D01*
X14579405Y-15595928D01*
X14569881Y-15586405D01*
D16*
X9562500Y-16033500D02*
X9607500Y-15988500D01*
X9562500Y-15943500D01*
X9517500Y-15988500D01*
X9562500Y-16033500D01*
D11*
X9903214Y-15878976D02*
X9922262Y-15878976D01*
X9941310Y-15888500D01*
X9950833Y-15898024D01*
X9960357Y-15917071D01*
X9969881Y-15955167D01*
X9969881Y-16002786D01*
X9960357Y-16040881D01*
X9950833Y-16059928D01*
X9941310Y-16069452D01*
X9922262Y-16078976D01*
X9903214Y-16078976D01*
X9884167Y-16069452D01*
X9874643Y-16059928D01*
X9865119Y-16040881D01*
X9855595Y-16002786D01*
X9855595Y-15955167D01*
X9865119Y-15917071D01*
X9874643Y-15898024D01*
X9884167Y-15888500D01*
X9903214Y-15878976D01*
X10055595Y-16059928D02*
X10065119Y-16069452D01*
X10055595Y-16078976D01*
X10046071Y-16069452D01*
X10055595Y-16059928D01*
X10055595Y-16078976D01*
X10160357Y-16078976D02*
X10198452Y-16078976D01*
X10217500Y-16069452D01*
X10227024Y-16059928D01*
X10246071Y-16031357D01*
X10255595Y-15993262D01*
X10255595Y-15917071D01*
X10246071Y-15898024D01*
X10236548Y-15888500D01*
X10217500Y-15878976D01*
X10179405Y-15878976D01*
X10160357Y-15888500D01*
X10150833Y-15898024D01*
X10141310Y-15917071D01*
X10141310Y-15964690D01*
X10150833Y-15983738D01*
X10160357Y-15993262D01*
X10179405Y-16002786D01*
X10217500Y-16002786D01*
X10236548Y-15993262D01*
X10246071Y-15983738D01*
X10255595Y-15964690D01*
X10379405Y-15878976D02*
X10398452Y-15878976D01*
X10417500Y-15888500D01*
X10427024Y-15898024D01*
X10436548Y-15917071D01*
X10446071Y-15955167D01*
X10446071Y-16002786D01*
X10436548Y-16040881D01*
X10427024Y-16059928D01*
X10417500Y-16069452D01*
X10398452Y-16078976D01*
X10379405Y-16078976D01*
X10360357Y-16069452D01*
X10350833Y-16059928D01*
X10341310Y-16040881D01*
X10331786Y-16002786D01*
X10331786Y-15955167D01*
X10341310Y-15917071D01*
X10350833Y-15898024D01*
X10360357Y-15888500D01*
X10379405Y-15878976D01*
X10569881Y-15878976D02*
X10588929Y-15878976D01*
X10607976Y-15888500D01*
X10617500Y-15898024D01*
X10627024Y-15917071D01*
X10636548Y-15955167D01*
X10636548Y-16002786D01*
X10627024Y-16040881D01*
X10617500Y-16059928D01*
X10607976Y-16069452D01*
X10588929Y-16078976D01*
X10569881Y-16078976D01*
X10550833Y-16069452D01*
X10541310Y-16059928D01*
X10531786Y-16040881D01*
X10522262Y-16002786D01*
X10522262Y-15955167D01*
X10531786Y-15917071D01*
X10541310Y-15898024D01*
X10550833Y-15888500D01*
X10569881Y-15878976D01*
X10722262Y-16078976D02*
X10722262Y-15945643D01*
X10722262Y-15964690D02*
X10731786Y-15955167D01*
X10750833Y-15945643D01*
X10779405Y-15945643D01*
X10798452Y-15955167D01*
X10807976Y-15974214D01*
X10807976Y-16078976D01*
X10807976Y-15974214D02*
X10817500Y-15955167D01*
X10836548Y-15945643D01*
X10865119Y-15945643D01*
X10884167Y-15955167D01*
X10893690Y-15974214D01*
X10893690Y-16078976D01*
X10988929Y-16078976D02*
X10988929Y-15945643D01*
X10988929Y-15964690D02*
X10998452Y-15955167D01*
X11017500Y-15945643D01*
X11046071Y-15945643D01*
X11065119Y-15955167D01*
X11074643Y-15974214D01*
X11074643Y-16078976D01*
X11074643Y-15974214D02*
X11084167Y-15955167D01*
X11103214Y-15945643D01*
X11131786Y-15945643D01*
X11150833Y-15955167D01*
X11160357Y-15974214D01*
X11160357Y-16078976D01*
X11550833Y-15869452D02*
X11379405Y-16126595D01*
X11807976Y-15878976D02*
X11827024Y-15878976D01*
X11846071Y-15888500D01*
X11855595Y-15898024D01*
X11865119Y-15917071D01*
X11874643Y-15955167D01*
X11874643Y-16002786D01*
X11865119Y-16040881D01*
X11855595Y-16059928D01*
X11846071Y-16069452D01*
X11827024Y-16078976D01*
X11807976Y-16078976D01*
X11788928Y-16069452D01*
X11779405Y-16059928D01*
X11769881Y-16040881D01*
X11760357Y-16002786D01*
X11760357Y-15955167D01*
X11769881Y-15917071D01*
X11779405Y-15898024D01*
X11788928Y-15888500D01*
X11807976Y-15878976D01*
X11960357Y-16059928D02*
X11969881Y-16069452D01*
X11960357Y-16078976D01*
X11950833Y-16069452D01*
X11960357Y-16059928D01*
X11960357Y-16078976D01*
X12093690Y-15878976D02*
X12112738Y-15878976D01*
X12131786Y-15888500D01*
X12141309Y-15898024D01*
X12150833Y-15917071D01*
X12160357Y-15955167D01*
X12160357Y-16002786D01*
X12150833Y-16040881D01*
X12141309Y-16059928D01*
X12131786Y-16069452D01*
X12112738Y-16078976D01*
X12093690Y-16078976D01*
X12074643Y-16069452D01*
X12065119Y-16059928D01*
X12055595Y-16040881D01*
X12046071Y-16002786D01*
X12046071Y-15955167D01*
X12055595Y-15917071D01*
X12065119Y-15898024D01*
X12074643Y-15888500D01*
X12093690Y-15878976D01*
X12227024Y-15878976D02*
X12350833Y-15878976D01*
X12284167Y-15955167D01*
X12312738Y-15955167D01*
X12331786Y-15964690D01*
X12341309Y-15974214D01*
X12350833Y-15993262D01*
X12350833Y-16040881D01*
X12341309Y-16059928D01*
X12331786Y-16069452D01*
X12312738Y-16078976D01*
X12255595Y-16078976D01*
X12236548Y-16069452D01*
X12227024Y-16059928D01*
X12531786Y-15878976D02*
X12436548Y-15878976D01*
X12427024Y-15974214D01*
X12436548Y-15964690D01*
X12455595Y-15955167D01*
X12503214Y-15955167D01*
X12522262Y-15964690D01*
X12531786Y-15974214D01*
X12541309Y-15993262D01*
X12541309Y-16040881D01*
X12531786Y-16059928D01*
X12522262Y-16069452D01*
X12503214Y-16078976D01*
X12455595Y-16078976D01*
X12436548Y-16069452D01*
X12427024Y-16059928D01*
X12712738Y-15945643D02*
X12712738Y-16078976D01*
X12665119Y-15869452D02*
X12617500Y-16012309D01*
X12741309Y-16012309D01*
X12807976Y-15878976D02*
X12807976Y-15917071D01*
X12884167Y-15878976D02*
X12884167Y-15917071D01*
X13179405Y-16155167D02*
X13169881Y-16145643D01*
X13150833Y-16117071D01*
X13141309Y-16098024D01*
X13131786Y-16069452D01*
X13122262Y-16021833D01*
X13122262Y-15983738D01*
X13131786Y-15936119D01*
X13141309Y-15907548D01*
X13150833Y-15888500D01*
X13169881Y-15859928D01*
X13179405Y-15850405D01*
X13246071Y-15898024D02*
X13255595Y-15888500D01*
X13274643Y-15878976D01*
X13322262Y-15878976D01*
X13341309Y-15888500D01*
X13350833Y-15898024D01*
X13360357Y-15917071D01*
X13360357Y-15936119D01*
X13350833Y-15964690D01*
X13236548Y-16078976D01*
X13360357Y-16078976D01*
X13484167Y-15878976D02*
X13503214Y-15878976D01*
X13522262Y-15888500D01*
X13531786Y-15898024D01*
X13541309Y-15917071D01*
X13550833Y-15955167D01*
X13550833Y-16002786D01*
X13541309Y-16040881D01*
X13531786Y-16059928D01*
X13522262Y-16069452D01*
X13503214Y-16078976D01*
X13484167Y-16078976D01*
X13465119Y-16069452D01*
X13455595Y-16059928D01*
X13446071Y-16040881D01*
X13436548Y-16002786D01*
X13436548Y-15955167D01*
X13446071Y-15917071D01*
X13455595Y-15898024D01*
X13465119Y-15888500D01*
X13484167Y-15878976D01*
X13788928Y-16078976D02*
X13788928Y-15878976D01*
X13874643Y-16078976D02*
X13874643Y-15974214D01*
X13865119Y-15955167D01*
X13846071Y-15945643D01*
X13817500Y-15945643D01*
X13798452Y-15955167D01*
X13788928Y-15964690D01*
X13998452Y-16078976D02*
X13979405Y-16069452D01*
X13969881Y-16059928D01*
X13960357Y-16040881D01*
X13960357Y-15983738D01*
X13969881Y-15964690D01*
X13979405Y-15955167D01*
X13998452Y-15945643D01*
X14027024Y-15945643D01*
X14046071Y-15955167D01*
X14055595Y-15964690D01*
X14065119Y-15983738D01*
X14065119Y-16040881D01*
X14055595Y-16059928D01*
X14046071Y-16069452D01*
X14027024Y-16078976D01*
X13998452Y-16078976D01*
X14179405Y-16078976D02*
X14160357Y-16069452D01*
X14150833Y-16050405D01*
X14150833Y-15878976D01*
X14331786Y-16069452D02*
X14312738Y-16078976D01*
X14274643Y-16078976D01*
X14255595Y-16069452D01*
X14246071Y-16050405D01*
X14246071Y-15974214D01*
X14255595Y-15955167D01*
X14274643Y-15945643D01*
X14312738Y-15945643D01*
X14331786Y-15955167D01*
X14341309Y-15974214D01*
X14341309Y-15993262D01*
X14246071Y-16012309D01*
X14417500Y-16069452D02*
X14436548Y-16078976D01*
X14474643Y-16078976D01*
X14493690Y-16069452D01*
X14503214Y-16050405D01*
X14503214Y-16040881D01*
X14493690Y-16021833D01*
X14474643Y-16012309D01*
X14446071Y-16012309D01*
X14427024Y-16002786D01*
X14417500Y-15983738D01*
X14417500Y-15974214D01*
X14427024Y-15955167D01*
X14446071Y-15945643D01*
X14474643Y-15945643D01*
X14493690Y-15955167D01*
X14569881Y-16155167D02*
X14579405Y-16145643D01*
X14598452Y-16117071D01*
X14607976Y-16098024D01*
X14617500Y-16069452D01*
X14627024Y-16021833D01*
X14627024Y-15983738D01*
X14617500Y-15936119D01*
X14607976Y-15907548D01*
X14598452Y-15888500D01*
X14579405Y-15859928D01*
X14569881Y-15850405D01*
D10*
X9507500Y-16202500D02*
X9607500Y-16302500D01*
X9607500Y-16202500D02*
X9507500Y-16302500D01*
X9607500Y-16252500D02*
G75*
G03*
X9607500Y-16252500I-50000J0D01*
G01*
D11*
X9969881Y-16342976D02*
X9855595Y-16342976D01*
X9912738Y-16342976D02*
X9912738Y-16142976D01*
X9893690Y-16171548D01*
X9874643Y-16190595D01*
X9855595Y-16200119D01*
X10055595Y-16323928D02*
X10065119Y-16333452D01*
X10055595Y-16342976D01*
X10046071Y-16333452D01*
X10055595Y-16323928D01*
X10055595Y-16342976D01*
X10188929Y-16142976D02*
X10207976Y-16142976D01*
X10227024Y-16152500D01*
X10236548Y-16162024D01*
X10246071Y-16181071D01*
X10255595Y-16219167D01*
X10255595Y-16266786D01*
X10246071Y-16304881D01*
X10236548Y-16323928D01*
X10227024Y-16333452D01*
X10207976Y-16342976D01*
X10188929Y-16342976D01*
X10169881Y-16333452D01*
X10160357Y-16323928D01*
X10150833Y-16304881D01*
X10141310Y-16266786D01*
X10141310Y-16219167D01*
X10150833Y-16181071D01*
X10160357Y-16162024D01*
X10169881Y-16152500D01*
X10188929Y-16142976D01*
X10379405Y-16142976D02*
X10398452Y-16142976D01*
X10417500Y-16152500D01*
X10427024Y-16162024D01*
X10436548Y-16181071D01*
X10446071Y-16219167D01*
X10446071Y-16266786D01*
X10436548Y-16304881D01*
X10427024Y-16323928D01*
X10417500Y-16333452D01*
X10398452Y-16342976D01*
X10379405Y-16342976D01*
X10360357Y-16333452D01*
X10350833Y-16323928D01*
X10341310Y-16304881D01*
X10331786Y-16266786D01*
X10331786Y-16219167D01*
X10341310Y-16181071D01*
X10350833Y-16162024D01*
X10360357Y-16152500D01*
X10379405Y-16142976D01*
X10569881Y-16142976D02*
X10588929Y-16142976D01*
X10607976Y-16152500D01*
X10617500Y-16162024D01*
X10627024Y-16181071D01*
X10636548Y-16219167D01*
X10636548Y-16266786D01*
X10627024Y-16304881D01*
X10617500Y-16323928D01*
X10607976Y-16333452D01*
X10588929Y-16342976D01*
X10569881Y-16342976D01*
X10550833Y-16333452D01*
X10541310Y-16323928D01*
X10531786Y-16304881D01*
X10522262Y-16266786D01*
X10522262Y-16219167D01*
X10531786Y-16181071D01*
X10541310Y-16162024D01*
X10550833Y-16152500D01*
X10569881Y-16142976D01*
X10722262Y-16342976D02*
X10722262Y-16209643D01*
X10722262Y-16228690D02*
X10731786Y-16219167D01*
X10750833Y-16209643D01*
X10779405Y-16209643D01*
X10798452Y-16219167D01*
X10807976Y-16238214D01*
X10807976Y-16342976D01*
X10807976Y-16238214D02*
X10817500Y-16219167D01*
X10836548Y-16209643D01*
X10865119Y-16209643D01*
X10884167Y-16219167D01*
X10893690Y-16238214D01*
X10893690Y-16342976D01*
X10988929Y-16342976D02*
X10988929Y-16209643D01*
X10988929Y-16228690D02*
X10998452Y-16219167D01*
X11017500Y-16209643D01*
X11046071Y-16209643D01*
X11065119Y-16219167D01*
X11074643Y-16238214D01*
X11074643Y-16342976D01*
X11074643Y-16238214D02*
X11084167Y-16219167D01*
X11103214Y-16209643D01*
X11131786Y-16209643D01*
X11150833Y-16219167D01*
X11160357Y-16238214D01*
X11160357Y-16342976D01*
X11550833Y-16133452D02*
X11379405Y-16390595D01*
X11807976Y-16142976D02*
X11827024Y-16142976D01*
X11846071Y-16152500D01*
X11855595Y-16162024D01*
X11865119Y-16181071D01*
X11874643Y-16219167D01*
X11874643Y-16266786D01*
X11865119Y-16304881D01*
X11855595Y-16323928D01*
X11846071Y-16333452D01*
X11827024Y-16342976D01*
X11807976Y-16342976D01*
X11788928Y-16333452D01*
X11779405Y-16323928D01*
X11769881Y-16304881D01*
X11760357Y-16266786D01*
X11760357Y-16219167D01*
X11769881Y-16181071D01*
X11779405Y-16162024D01*
X11788928Y-16152500D01*
X11807976Y-16142976D01*
X11960357Y-16323928D02*
X11969881Y-16333452D01*
X11960357Y-16342976D01*
X11950833Y-16333452D01*
X11960357Y-16323928D01*
X11960357Y-16342976D01*
X12093690Y-16142976D02*
X12112738Y-16142976D01*
X12131786Y-16152500D01*
X12141309Y-16162024D01*
X12150833Y-16181071D01*
X12160357Y-16219167D01*
X12160357Y-16266786D01*
X12150833Y-16304881D01*
X12141309Y-16323928D01*
X12131786Y-16333452D01*
X12112738Y-16342976D01*
X12093690Y-16342976D01*
X12074643Y-16333452D01*
X12065119Y-16323928D01*
X12055595Y-16304881D01*
X12046071Y-16266786D01*
X12046071Y-16219167D01*
X12055595Y-16181071D01*
X12065119Y-16162024D01*
X12074643Y-16152500D01*
X12093690Y-16142976D01*
X12227024Y-16142976D02*
X12350833Y-16142976D01*
X12284167Y-16219167D01*
X12312738Y-16219167D01*
X12331786Y-16228690D01*
X12341309Y-16238214D01*
X12350833Y-16257262D01*
X12350833Y-16304881D01*
X12341309Y-16323928D01*
X12331786Y-16333452D01*
X12312738Y-16342976D01*
X12255595Y-16342976D01*
X12236548Y-16333452D01*
X12227024Y-16323928D01*
X12446071Y-16342976D02*
X12484167Y-16342976D01*
X12503214Y-16333452D01*
X12512738Y-16323928D01*
X12531786Y-16295357D01*
X12541309Y-16257262D01*
X12541309Y-16181071D01*
X12531786Y-16162024D01*
X12522262Y-16152500D01*
X12503214Y-16142976D01*
X12465119Y-16142976D01*
X12446071Y-16152500D01*
X12436548Y-16162024D01*
X12427024Y-16181071D01*
X12427024Y-16228690D01*
X12436548Y-16247738D01*
X12446071Y-16257262D01*
X12465119Y-16266786D01*
X12503214Y-16266786D01*
X12522262Y-16257262D01*
X12531786Y-16247738D01*
X12541309Y-16228690D01*
X12712738Y-16209643D02*
X12712738Y-16342976D01*
X12665119Y-16133452D02*
X12617500Y-16276309D01*
X12741309Y-16276309D01*
X12807976Y-16142976D02*
X12807976Y-16181071D01*
X12884167Y-16142976D02*
X12884167Y-16181071D01*
X13179405Y-16419167D02*
X13169881Y-16409643D01*
X13150833Y-16381071D01*
X13141309Y-16362024D01*
X13131786Y-16333452D01*
X13122262Y-16285833D01*
X13122262Y-16247738D01*
X13131786Y-16200119D01*
X13141309Y-16171548D01*
X13150833Y-16152500D01*
X13169881Y-16123928D01*
X13179405Y-16114405D01*
X13265119Y-16342976D02*
X13303214Y-16342976D01*
X13322262Y-16333452D01*
X13331786Y-16323928D01*
X13350833Y-16295357D01*
X13360357Y-16257262D01*
X13360357Y-16181071D01*
X13350833Y-16162024D01*
X13341309Y-16152500D01*
X13322262Y-16142976D01*
X13284167Y-16142976D01*
X13265119Y-16152500D01*
X13255595Y-16162024D01*
X13246071Y-16181071D01*
X13246071Y-16228690D01*
X13255595Y-16247738D01*
X13265119Y-16257262D01*
X13284167Y-16266786D01*
X13322262Y-16266786D01*
X13341309Y-16257262D01*
X13350833Y-16247738D01*
X13360357Y-16228690D01*
X13484167Y-16142976D02*
X13503214Y-16142976D01*
X13522262Y-16152500D01*
X13531786Y-16162024D01*
X13541309Y-16181071D01*
X13550833Y-16219167D01*
X13550833Y-16266786D01*
X13541309Y-16304881D01*
X13531786Y-16323928D01*
X13522262Y-16333452D01*
X13503214Y-16342976D01*
X13484167Y-16342976D01*
X13465119Y-16333452D01*
X13455595Y-16323928D01*
X13446071Y-16304881D01*
X13436548Y-16266786D01*
X13436548Y-16219167D01*
X13446071Y-16181071D01*
X13455595Y-16162024D01*
X13465119Y-16152500D01*
X13484167Y-16142976D01*
X13788928Y-16342976D02*
X13788928Y-16142976D01*
X13874643Y-16342976D02*
X13874643Y-16238214D01*
X13865119Y-16219167D01*
X13846071Y-16209643D01*
X13817500Y-16209643D01*
X13798452Y-16219167D01*
X13788928Y-16228690D01*
X13998452Y-16342976D02*
X13979405Y-16333452D01*
X13969881Y-16323928D01*
X13960357Y-16304881D01*
X13960357Y-16247738D01*
X13969881Y-16228690D01*
X13979405Y-16219167D01*
X13998452Y-16209643D01*
X14027024Y-16209643D01*
X14046071Y-16219167D01*
X14055595Y-16228690D01*
X14065119Y-16247738D01*
X14065119Y-16304881D01*
X14055595Y-16323928D01*
X14046071Y-16333452D01*
X14027024Y-16342976D01*
X13998452Y-16342976D01*
X14179405Y-16342976D02*
X14160357Y-16333452D01*
X14150833Y-16314405D01*
X14150833Y-16142976D01*
X14331786Y-16333452D02*
X14312738Y-16342976D01*
X14274643Y-16342976D01*
X14255595Y-16333452D01*
X14246071Y-16314405D01*
X14246071Y-16238214D01*
X14255595Y-16219167D01*
X14274643Y-16209643D01*
X14312738Y-16209643D01*
X14331786Y-16219167D01*
X14341309Y-16238214D01*
X14341309Y-16257262D01*
X14246071Y-16276309D01*
X14417500Y-16333452D02*
X14436548Y-16342976D01*
X14474643Y-16342976D01*
X14493690Y-16333452D01*
X14503214Y-16314405D01*
X14503214Y-16304881D01*
X14493690Y-16285833D01*
X14474643Y-16276309D01*
X14446071Y-16276309D01*
X14427024Y-16266786D01*
X14417500Y-16247738D01*
X14417500Y-16238214D01*
X14427024Y-16219167D01*
X14446071Y-16209643D01*
X14474643Y-16209643D01*
X14493690Y-16219167D01*
X14569881Y-16419167D02*
X14579405Y-16409643D01*
X14598452Y-16381071D01*
X14607976Y-16362024D01*
X14617500Y-16333452D01*
X14627024Y-16285833D01*
X14627024Y-16247738D01*
X14617500Y-16200119D01*
X14607976Y-16171548D01*
X14598452Y-16152500D01*
X14579405Y-16123928D01*
X14569881Y-16114405D01*
D17*
X9497500Y-16461500D02*
X9607500Y-16571500D01*
X9607500Y-16461500D02*
X9497500Y-16571500D01*
X9552500Y-16461500D02*
X9552500Y-16571500D01*
X9497500Y-16516500D02*
X9607500Y-16516500D01*
D11*
X9969881Y-16606976D02*
X9855595Y-16606976D01*
X9912738Y-16606976D02*
X9912738Y-16406976D01*
X9893690Y-16435548D01*
X9874643Y-16454595D01*
X9855595Y-16464119D01*
X10055595Y-16587928D02*
X10065119Y-16597452D01*
X10055595Y-16606976D01*
X10046071Y-16597452D01*
X10055595Y-16587928D01*
X10055595Y-16606976D01*
X10255595Y-16606976D02*
X10141310Y-16606976D01*
X10198452Y-16606976D02*
X10198452Y-16406976D01*
X10179405Y-16435548D01*
X10160357Y-16454595D01*
X10141310Y-16464119D01*
X10379405Y-16406976D02*
X10398452Y-16406976D01*
X10417500Y-16416500D01*
X10427024Y-16426024D01*
X10436548Y-16445071D01*
X10446071Y-16483167D01*
X10446071Y-16530786D01*
X10436548Y-16568881D01*
X10427024Y-16587928D01*
X10417500Y-16597452D01*
X10398452Y-16606976D01*
X10379405Y-16606976D01*
X10360357Y-16597452D01*
X10350833Y-16587928D01*
X10341310Y-16568881D01*
X10331786Y-16530786D01*
X10331786Y-16483167D01*
X10341310Y-16445071D01*
X10350833Y-16426024D01*
X10360357Y-16416500D01*
X10379405Y-16406976D01*
X10569881Y-16406976D02*
X10588929Y-16406976D01*
X10607976Y-16416500D01*
X10617500Y-16426024D01*
X10627024Y-16445071D01*
X10636548Y-16483167D01*
X10636548Y-16530786D01*
X10627024Y-16568881D01*
X10617500Y-16587928D01*
X10607976Y-16597452D01*
X10588929Y-16606976D01*
X10569881Y-16606976D01*
X10550833Y-16597452D01*
X10541310Y-16587928D01*
X10531786Y-16568881D01*
X10522262Y-16530786D01*
X10522262Y-16483167D01*
X10531786Y-16445071D01*
X10541310Y-16426024D01*
X10550833Y-16416500D01*
X10569881Y-16406976D01*
X10722262Y-16606976D02*
X10722262Y-16473643D01*
X10722262Y-16492690D02*
X10731786Y-16483167D01*
X10750833Y-16473643D01*
X10779405Y-16473643D01*
X10798452Y-16483167D01*
X10807976Y-16502214D01*
X10807976Y-16606976D01*
X10807976Y-16502214D02*
X10817500Y-16483167D01*
X10836548Y-16473643D01*
X10865119Y-16473643D01*
X10884167Y-16483167D01*
X10893690Y-16502214D01*
X10893690Y-16606976D01*
X10988929Y-16606976D02*
X10988929Y-16473643D01*
X10988929Y-16492690D02*
X10998452Y-16483167D01*
X11017500Y-16473643D01*
X11046071Y-16473643D01*
X11065119Y-16483167D01*
X11074643Y-16502214D01*
X11074643Y-16606976D01*
X11074643Y-16502214D02*
X11084167Y-16483167D01*
X11103214Y-16473643D01*
X11131786Y-16473643D01*
X11150833Y-16483167D01*
X11160357Y-16502214D01*
X11160357Y-16606976D01*
X11550833Y-16397452D02*
X11379405Y-16654595D01*
X11807976Y-16406976D02*
X11827024Y-16406976D01*
X11846071Y-16416500D01*
X11855595Y-16426024D01*
X11865119Y-16445071D01*
X11874643Y-16483167D01*
X11874643Y-16530786D01*
X11865119Y-16568881D01*
X11855595Y-16587928D01*
X11846071Y-16597452D01*
X11827024Y-16606976D01*
X11807976Y-16606976D01*
X11788928Y-16597452D01*
X11779405Y-16587928D01*
X11769881Y-16568881D01*
X11760357Y-16530786D01*
X11760357Y-16483167D01*
X11769881Y-16445071D01*
X11779405Y-16426024D01*
X11788928Y-16416500D01*
X11807976Y-16406976D01*
X11960357Y-16587928D02*
X11969881Y-16597452D01*
X11960357Y-16606976D01*
X11950833Y-16597452D01*
X11960357Y-16587928D01*
X11960357Y-16606976D01*
X12093690Y-16406976D02*
X12112738Y-16406976D01*
X12131786Y-16416500D01*
X12141309Y-16426024D01*
X12150833Y-16445071D01*
X12160357Y-16483167D01*
X12160357Y-16530786D01*
X12150833Y-16568881D01*
X12141309Y-16587928D01*
X12131786Y-16597452D01*
X12112738Y-16606976D01*
X12093690Y-16606976D01*
X12074643Y-16597452D01*
X12065119Y-16587928D01*
X12055595Y-16568881D01*
X12046071Y-16530786D01*
X12046071Y-16483167D01*
X12055595Y-16445071D01*
X12065119Y-16426024D01*
X12074643Y-16416500D01*
X12093690Y-16406976D01*
X12331786Y-16473643D02*
X12331786Y-16606976D01*
X12284167Y-16397452D02*
X12236548Y-16540309D01*
X12360357Y-16540309D01*
X12417500Y-16406976D02*
X12541309Y-16406976D01*
X12474643Y-16483167D01*
X12503214Y-16483167D01*
X12522262Y-16492690D01*
X12531786Y-16502214D01*
X12541309Y-16521262D01*
X12541309Y-16568881D01*
X12531786Y-16587928D01*
X12522262Y-16597452D01*
X12503214Y-16606976D01*
X12446071Y-16606976D01*
X12427024Y-16597452D01*
X12417500Y-16587928D01*
X12607976Y-16406976D02*
X12731786Y-16406976D01*
X12665119Y-16483167D01*
X12693690Y-16483167D01*
X12712738Y-16492690D01*
X12722262Y-16502214D01*
X12731786Y-16521262D01*
X12731786Y-16568881D01*
X12722262Y-16587928D01*
X12712738Y-16597452D01*
X12693690Y-16606976D01*
X12636548Y-16606976D01*
X12617500Y-16597452D01*
X12607976Y-16587928D01*
X12807976Y-16406976D02*
X12807976Y-16445071D01*
X12884167Y-16406976D02*
X12884167Y-16445071D01*
X13179405Y-16683167D02*
X13169881Y-16673643D01*
X13150833Y-16645071D01*
X13141309Y-16626024D01*
X13131786Y-16597452D01*
X13122262Y-16549833D01*
X13122262Y-16511738D01*
X13131786Y-16464119D01*
X13141309Y-16435548D01*
X13150833Y-16416500D01*
X13169881Y-16387928D01*
X13179405Y-16378405D01*
X13341309Y-16406976D02*
X13303214Y-16406976D01*
X13284167Y-16416500D01*
X13274643Y-16426024D01*
X13255595Y-16454595D01*
X13246071Y-16492690D01*
X13246071Y-16568881D01*
X13255595Y-16587928D01*
X13265119Y-16597452D01*
X13284167Y-16606976D01*
X13322262Y-16606976D01*
X13341309Y-16597452D01*
X13350833Y-16587928D01*
X13360357Y-16568881D01*
X13360357Y-16521262D01*
X13350833Y-16502214D01*
X13341309Y-16492690D01*
X13322262Y-16483167D01*
X13284167Y-16483167D01*
X13265119Y-16492690D01*
X13255595Y-16502214D01*
X13246071Y-16521262D01*
X13598452Y-16606976D02*
X13598452Y-16406976D01*
X13684167Y-16606976D02*
X13684167Y-16502214D01*
X13674643Y-16483167D01*
X13655595Y-16473643D01*
X13627024Y-16473643D01*
X13607976Y-16483167D01*
X13598452Y-16492690D01*
X13807976Y-16606976D02*
X13788928Y-16597452D01*
X13779405Y-16587928D01*
X13769881Y-16568881D01*
X13769881Y-16511738D01*
X13779405Y-16492690D01*
X13788928Y-16483167D01*
X13807976Y-16473643D01*
X13836548Y-16473643D01*
X13855595Y-16483167D01*
X13865119Y-16492690D01*
X13874643Y-16511738D01*
X13874643Y-16568881D01*
X13865119Y-16587928D01*
X13855595Y-16597452D01*
X13836548Y-16606976D01*
X13807976Y-16606976D01*
X13988928Y-16606976D02*
X13969881Y-16597452D01*
X13960357Y-16578405D01*
X13960357Y-16406976D01*
X14141309Y-16597452D02*
X14122262Y-16606976D01*
X14084167Y-16606976D01*
X14065119Y-16597452D01*
X14055595Y-16578405D01*
X14055595Y-16502214D01*
X14065119Y-16483167D01*
X14084167Y-16473643D01*
X14122262Y-16473643D01*
X14141309Y-16483167D01*
X14150833Y-16502214D01*
X14150833Y-16521262D01*
X14055595Y-16540309D01*
X14227024Y-16597452D02*
X14246071Y-16606976D01*
X14284167Y-16606976D01*
X14303214Y-16597452D01*
X14312738Y-16578405D01*
X14312738Y-16568881D01*
X14303214Y-16549833D01*
X14284167Y-16540309D01*
X14255595Y-16540309D01*
X14236548Y-16530786D01*
X14227024Y-16511738D01*
X14227024Y-16502214D01*
X14236548Y-16483167D01*
X14255595Y-16473643D01*
X14284167Y-16473643D01*
X14303214Y-16483167D01*
X14379405Y-16683167D02*
X14388928Y-16673643D01*
X14407976Y-16645071D01*
X14417500Y-16626024D01*
X14427024Y-16597452D01*
X14436548Y-16549833D01*
X14436548Y-16511738D01*
X14427024Y-16464119D01*
X14417500Y-16435548D01*
X14407976Y-16416500D01*
X14388928Y-16387928D01*
X14379405Y-16378405D01*
D18*
X9447500Y-16700500D02*
X9607500Y-16860500D01*
X9607500Y-16700500D02*
X9447500Y-16860500D01*
X9584069Y-16837069D02*
X9584069Y-16723931D01*
X9470931Y-16723931D01*
X9470931Y-16837069D01*
X9584069Y-16837069D01*
D11*
X9969881Y-16870976D02*
X9855595Y-16870976D01*
X9912738Y-16870976D02*
X9912738Y-16670976D01*
X9893690Y-16699548D01*
X9874643Y-16718595D01*
X9855595Y-16728119D01*
X10055595Y-16851929D02*
X10065119Y-16861452D01*
X10055595Y-16870976D01*
X10046071Y-16861452D01*
X10055595Y-16851929D01*
X10055595Y-16870976D01*
X10236548Y-16670976D02*
X10198452Y-16670976D01*
X10179405Y-16680500D01*
X10169881Y-16690024D01*
X10150833Y-16718595D01*
X10141310Y-16756690D01*
X10141310Y-16832881D01*
X10150833Y-16851929D01*
X10160357Y-16861452D01*
X10179405Y-16870976D01*
X10217500Y-16870976D01*
X10236548Y-16861452D01*
X10246071Y-16851929D01*
X10255595Y-16832881D01*
X10255595Y-16785262D01*
X10246071Y-16766214D01*
X10236548Y-16756690D01*
X10217500Y-16747167D01*
X10179405Y-16747167D01*
X10160357Y-16756690D01*
X10150833Y-16766214D01*
X10141310Y-16785262D01*
X10379405Y-16670976D02*
X10398452Y-16670976D01*
X10417500Y-16680500D01*
X10427024Y-16690024D01*
X10436548Y-16709071D01*
X10446071Y-16747167D01*
X10446071Y-16794786D01*
X10436548Y-16832881D01*
X10427024Y-16851929D01*
X10417500Y-16861452D01*
X10398452Y-16870976D01*
X10379405Y-16870976D01*
X10360357Y-16861452D01*
X10350833Y-16851929D01*
X10341310Y-16832881D01*
X10331786Y-16794786D01*
X10331786Y-16747167D01*
X10341310Y-16709071D01*
X10350833Y-16690024D01*
X10360357Y-16680500D01*
X10379405Y-16670976D01*
X10569881Y-16670976D02*
X10588929Y-16670976D01*
X10607976Y-16680500D01*
X10617500Y-16690024D01*
X10627024Y-16709071D01*
X10636548Y-16747167D01*
X10636548Y-16794786D01*
X10627024Y-16832881D01*
X10617500Y-16851929D01*
X10607976Y-16861452D01*
X10588929Y-16870976D01*
X10569881Y-16870976D01*
X10550833Y-16861452D01*
X10541310Y-16851929D01*
X10531786Y-16832881D01*
X10522262Y-16794786D01*
X10522262Y-16747167D01*
X10531786Y-16709071D01*
X10541310Y-16690024D01*
X10550833Y-16680500D01*
X10569881Y-16670976D01*
X10722262Y-16870976D02*
X10722262Y-16737643D01*
X10722262Y-16756690D02*
X10731786Y-16747167D01*
X10750833Y-16737643D01*
X10779405Y-16737643D01*
X10798452Y-16747167D01*
X10807976Y-16766214D01*
X10807976Y-16870976D01*
X10807976Y-16766214D02*
X10817500Y-16747167D01*
X10836548Y-16737643D01*
X10865119Y-16737643D01*
X10884167Y-16747167D01*
X10893690Y-16766214D01*
X10893690Y-16870976D01*
X10988929Y-16870976D02*
X10988929Y-16737643D01*
X10988929Y-16756690D02*
X10998452Y-16747167D01*
X11017500Y-16737643D01*
X11046071Y-16737643D01*
X11065119Y-16747167D01*
X11074643Y-16766214D01*
X11074643Y-16870976D01*
X11074643Y-16766214D02*
X11084167Y-16747167D01*
X11103214Y-16737643D01*
X11131786Y-16737643D01*
X11150833Y-16747167D01*
X11160357Y-16766214D01*
X11160357Y-16870976D01*
X11550833Y-16661452D02*
X11379405Y-16918595D01*
X11807976Y-16670976D02*
X11827024Y-16670976D01*
X11846071Y-16680500D01*
X11855595Y-16690024D01*
X11865119Y-16709071D01*
X11874643Y-16747167D01*
X11874643Y-16794786D01*
X11865119Y-16832881D01*
X11855595Y-16851929D01*
X11846071Y-16861452D01*
X11827024Y-16870976D01*
X11807976Y-16870976D01*
X11788928Y-16861452D01*
X11779405Y-16851929D01*
X11769881Y-16832881D01*
X11760357Y-16794786D01*
X11760357Y-16747167D01*
X11769881Y-16709071D01*
X11779405Y-16690024D01*
X11788928Y-16680500D01*
X11807976Y-16670976D01*
X11960357Y-16851929D02*
X11969881Y-16861452D01*
X11960357Y-16870976D01*
X11950833Y-16861452D01*
X11960357Y-16851929D01*
X11960357Y-16870976D01*
X12093690Y-16670976D02*
X12112738Y-16670976D01*
X12131786Y-16680500D01*
X12141309Y-16690024D01*
X12150833Y-16709071D01*
X12160357Y-16747167D01*
X12160357Y-16794786D01*
X12150833Y-16832881D01*
X12141309Y-16851929D01*
X12131786Y-16861452D01*
X12112738Y-16870976D01*
X12093690Y-16870976D01*
X12074643Y-16861452D01*
X12065119Y-16851929D01*
X12055595Y-16832881D01*
X12046071Y-16794786D01*
X12046071Y-16747167D01*
X12055595Y-16709071D01*
X12065119Y-16690024D01*
X12074643Y-16680500D01*
X12093690Y-16670976D01*
X12331786Y-16670976D02*
X12293690Y-16670976D01*
X12274643Y-16680500D01*
X12265119Y-16690024D01*
X12246071Y-16718595D01*
X12236548Y-16756690D01*
X12236548Y-16832881D01*
X12246071Y-16851929D01*
X12255595Y-16861452D01*
X12274643Y-16870976D01*
X12312738Y-16870976D01*
X12331786Y-16861452D01*
X12341309Y-16851929D01*
X12350833Y-16832881D01*
X12350833Y-16785262D01*
X12341309Y-16766214D01*
X12331786Y-16756690D01*
X12312738Y-16747167D01*
X12274643Y-16747167D01*
X12255595Y-16756690D01*
X12246071Y-16766214D01*
X12236548Y-16785262D01*
X12417500Y-16670976D02*
X12541309Y-16670976D01*
X12474643Y-16747167D01*
X12503214Y-16747167D01*
X12522262Y-16756690D01*
X12531786Y-16766214D01*
X12541309Y-16785262D01*
X12541309Y-16832881D01*
X12531786Y-16851929D01*
X12522262Y-16861452D01*
X12503214Y-16870976D01*
X12446071Y-16870976D01*
X12427024Y-16861452D01*
X12417500Y-16851929D01*
X12665119Y-16670976D02*
X12684167Y-16670976D01*
X12703214Y-16680500D01*
X12712738Y-16690024D01*
X12722262Y-16709071D01*
X12731786Y-16747167D01*
X12731786Y-16794786D01*
X12722262Y-16832881D01*
X12712738Y-16851929D01*
X12703214Y-16861452D01*
X12684167Y-16870976D01*
X12665119Y-16870976D01*
X12646071Y-16861452D01*
X12636548Y-16851929D01*
X12627024Y-16832881D01*
X12617500Y-16794786D01*
X12617500Y-16747167D01*
X12627024Y-16709071D01*
X12636548Y-16690024D01*
X12646071Y-16680500D01*
X12665119Y-16670976D01*
X12807976Y-16670976D02*
X12807976Y-16709071D01*
X12884167Y-16670976D02*
X12884167Y-16709071D01*
X13179405Y-16947167D02*
X13169881Y-16937643D01*
X13150833Y-16909071D01*
X13141309Y-16890024D01*
X13131786Y-16861452D01*
X13122262Y-16813833D01*
X13122262Y-16775738D01*
X13131786Y-16728119D01*
X13141309Y-16699548D01*
X13150833Y-16680500D01*
X13169881Y-16651928D01*
X13179405Y-16642405D01*
X13341309Y-16670976D02*
X13303214Y-16670976D01*
X13284167Y-16680500D01*
X13274643Y-16690024D01*
X13255595Y-16718595D01*
X13246071Y-16756690D01*
X13246071Y-16832881D01*
X13255595Y-16851929D01*
X13265119Y-16861452D01*
X13284167Y-16870976D01*
X13322262Y-16870976D01*
X13341309Y-16861452D01*
X13350833Y-16851929D01*
X13360357Y-16832881D01*
X13360357Y-16785262D01*
X13350833Y-16766214D01*
X13341309Y-16756690D01*
X13322262Y-16747167D01*
X13284167Y-16747167D01*
X13265119Y-16756690D01*
X13255595Y-16766214D01*
X13246071Y-16785262D01*
X13598452Y-16870976D02*
X13598452Y-16670976D01*
X13684167Y-16870976D02*
X13684167Y-16766214D01*
X13674643Y-16747167D01*
X13655595Y-16737643D01*
X13627024Y-16737643D01*
X13607976Y-16747167D01*
X13598452Y-16756690D01*
X13807976Y-16870976D02*
X13788928Y-16861452D01*
X13779405Y-16851929D01*
X13769881Y-16832881D01*
X13769881Y-16775738D01*
X13779405Y-16756690D01*
X13788928Y-16747167D01*
X13807976Y-16737643D01*
X13836548Y-16737643D01*
X13855595Y-16747167D01*
X13865119Y-16756690D01*
X13874643Y-16775738D01*
X13874643Y-16832881D01*
X13865119Y-16851929D01*
X13855595Y-16861452D01*
X13836548Y-16870976D01*
X13807976Y-16870976D01*
X13988928Y-16870976D02*
X13969881Y-16861452D01*
X13960357Y-16842405D01*
X13960357Y-16670976D01*
X14141309Y-16861452D02*
X14122262Y-16870976D01*
X14084167Y-16870976D01*
X14065119Y-16861452D01*
X14055595Y-16842405D01*
X14055595Y-16766214D01*
X14065119Y-16747167D01*
X14084167Y-16737643D01*
X14122262Y-16737643D01*
X14141309Y-16747167D01*
X14150833Y-16766214D01*
X14150833Y-16785262D01*
X14055595Y-16804310D01*
X14227024Y-16861452D02*
X14246071Y-16870976D01*
X14284167Y-16870976D01*
X14303214Y-16861452D01*
X14312738Y-16842405D01*
X14312738Y-16832881D01*
X14303214Y-16813833D01*
X14284167Y-16804310D01*
X14255595Y-16804310D01*
X14236548Y-16794786D01*
X14227024Y-16775738D01*
X14227024Y-16766214D01*
X14236548Y-16747167D01*
X14255595Y-16737643D01*
X14284167Y-16737643D01*
X14303214Y-16747167D01*
X14379405Y-16947167D02*
X14388928Y-16937643D01*
X14407976Y-16909071D01*
X14417500Y-16890024D01*
X14427024Y-16861452D01*
X14436548Y-16813833D01*
X14436548Y-16775738D01*
X14427024Y-16728119D01*
X14417500Y-16699548D01*
X14407976Y-16680500D01*
X14388928Y-16651928D01*
X14379405Y-16642405D01*
X9407500Y-16960500D02*
X9607500Y-17160500D01*
X9607500Y-16960500D02*
X9407500Y-17160500D01*
X9507500Y-17160500D02*
X9607500Y-17060500D01*
X9507500Y-16960500D01*
X9407500Y-17060500D01*
X9507500Y-17160500D01*
X9855595Y-16970024D02*
X9865119Y-16960500D01*
X9884167Y-16950976D01*
X9931786Y-16950976D01*
X9950833Y-16960500D01*
X9960357Y-16970024D01*
X9969881Y-16989071D01*
X9969881Y-17008119D01*
X9960357Y-17036690D01*
X9846071Y-17150976D01*
X9969881Y-17150976D01*
X10055595Y-17131929D02*
X10065119Y-17141452D01*
X10055595Y-17150976D01*
X10046071Y-17141452D01*
X10055595Y-17131929D01*
X10055595Y-17150976D01*
X10131786Y-16950976D02*
X10265119Y-16950976D01*
X10179405Y-17150976D01*
X10436548Y-16950976D02*
X10341310Y-16950976D01*
X10331786Y-17046214D01*
X10341310Y-17036690D01*
X10360357Y-17027167D01*
X10407976Y-17027167D01*
X10427024Y-17036690D01*
X10436548Y-17046214D01*
X10446071Y-17065262D01*
X10446071Y-17112881D01*
X10436548Y-17131929D01*
X10427024Y-17141452D01*
X10407976Y-17150976D01*
X10360357Y-17150976D01*
X10341310Y-17141452D01*
X10331786Y-17131929D01*
X10569881Y-16950976D02*
X10588929Y-16950976D01*
X10607976Y-16960500D01*
X10617500Y-16970024D01*
X10627024Y-16989071D01*
X10636548Y-17027167D01*
X10636548Y-17074786D01*
X10627024Y-17112881D01*
X10617500Y-17131929D01*
X10607976Y-17141452D01*
X10588929Y-17150976D01*
X10569881Y-17150976D01*
X10550833Y-17141452D01*
X10541310Y-17131929D01*
X10531786Y-17112881D01*
X10522262Y-17074786D01*
X10522262Y-17027167D01*
X10531786Y-16989071D01*
X10541310Y-16970024D01*
X10550833Y-16960500D01*
X10569881Y-16950976D01*
X10722262Y-17150976D02*
X10722262Y-17017643D01*
X10722262Y-17036690D02*
X10731786Y-17027167D01*
X10750833Y-17017643D01*
X10779405Y-17017643D01*
X10798452Y-17027167D01*
X10807976Y-17046214D01*
X10807976Y-17150976D01*
X10807976Y-17046214D02*
X10817500Y-17027167D01*
X10836548Y-17017643D01*
X10865119Y-17017643D01*
X10884167Y-17027167D01*
X10893690Y-17046214D01*
X10893690Y-17150976D01*
X10988929Y-17150976D02*
X10988929Y-17017643D01*
X10988929Y-17036690D02*
X10998452Y-17027167D01*
X11017500Y-17017643D01*
X11046071Y-17017643D01*
X11065119Y-17027167D01*
X11074643Y-17046214D01*
X11074643Y-17150976D01*
X11074643Y-17046214D02*
X11084167Y-17027167D01*
X11103214Y-17017643D01*
X11131786Y-17017643D01*
X11150833Y-17027167D01*
X11160357Y-17046214D01*
X11160357Y-17150976D01*
X11550833Y-16941452D02*
X11379405Y-17198595D01*
X11807976Y-16950976D02*
X11827024Y-16950976D01*
X11846071Y-16960500D01*
X11855595Y-16970024D01*
X11865119Y-16989071D01*
X11874643Y-17027167D01*
X11874643Y-17074786D01*
X11865119Y-17112881D01*
X11855595Y-17131929D01*
X11846071Y-17141452D01*
X11827024Y-17150976D01*
X11807976Y-17150976D01*
X11788928Y-17141452D01*
X11779405Y-17131929D01*
X11769881Y-17112881D01*
X11760357Y-17074786D01*
X11760357Y-17027167D01*
X11769881Y-16989071D01*
X11779405Y-16970024D01*
X11788928Y-16960500D01*
X11807976Y-16950976D01*
X11960357Y-17131929D02*
X11969881Y-17141452D01*
X11960357Y-17150976D01*
X11950833Y-17141452D01*
X11960357Y-17131929D01*
X11960357Y-17150976D01*
X12160357Y-17150976D02*
X12046071Y-17150976D01*
X12103214Y-17150976D02*
X12103214Y-16950976D01*
X12084167Y-16979548D01*
X12065119Y-16998595D01*
X12046071Y-17008119D01*
X12284167Y-16950976D02*
X12303214Y-16950976D01*
X12322262Y-16960500D01*
X12331786Y-16970024D01*
X12341309Y-16989071D01*
X12350833Y-17027167D01*
X12350833Y-17074786D01*
X12341309Y-17112881D01*
X12331786Y-17131929D01*
X12322262Y-17141452D01*
X12303214Y-17150976D01*
X12284167Y-17150976D01*
X12265119Y-17141452D01*
X12255595Y-17131929D01*
X12246071Y-17112881D01*
X12236548Y-17074786D01*
X12236548Y-17027167D01*
X12246071Y-16989071D01*
X12255595Y-16970024D01*
X12265119Y-16960500D01*
X12284167Y-16950976D01*
X12465119Y-17036690D02*
X12446071Y-17027167D01*
X12436548Y-17017643D01*
X12427024Y-16998595D01*
X12427024Y-16989071D01*
X12436548Y-16970024D01*
X12446071Y-16960500D01*
X12465119Y-16950976D01*
X12503214Y-16950976D01*
X12522262Y-16960500D01*
X12531786Y-16970024D01*
X12541309Y-16989071D01*
X12541309Y-16998595D01*
X12531786Y-17017643D01*
X12522262Y-17027167D01*
X12503214Y-17036690D01*
X12465119Y-17036690D01*
X12446071Y-17046214D01*
X12436548Y-17055738D01*
X12427024Y-17074786D01*
X12427024Y-17112881D01*
X12436548Y-17131929D01*
X12446071Y-17141452D01*
X12465119Y-17150976D01*
X12503214Y-17150976D01*
X12522262Y-17141452D01*
X12531786Y-17131929D01*
X12541309Y-17112881D01*
X12541309Y-17074786D01*
X12531786Y-17055738D01*
X12522262Y-17046214D01*
X12503214Y-17036690D01*
X12607976Y-16950976D02*
X12731786Y-16950976D01*
X12665119Y-17027167D01*
X12693690Y-17027167D01*
X12712738Y-17036690D01*
X12722262Y-17046214D01*
X12731786Y-17065262D01*
X12731786Y-17112881D01*
X12722262Y-17131929D01*
X12712738Y-17141452D01*
X12693690Y-17150976D01*
X12636548Y-17150976D01*
X12617500Y-17141452D01*
X12607976Y-17131929D01*
X12807976Y-16950976D02*
X12807976Y-16989071D01*
X12884167Y-16950976D02*
X12884167Y-16989071D01*
X13179405Y-17227167D02*
X13169881Y-17217643D01*
X13150833Y-17189071D01*
X13141309Y-17170024D01*
X13131786Y-17141452D01*
X13122262Y-17093833D01*
X13122262Y-17055738D01*
X13131786Y-17008119D01*
X13141309Y-16979548D01*
X13150833Y-16960500D01*
X13169881Y-16931929D01*
X13179405Y-16922405D01*
X13284167Y-17036690D02*
X13265119Y-17027167D01*
X13255595Y-17017643D01*
X13246071Y-16998595D01*
X13246071Y-16989071D01*
X13255595Y-16970024D01*
X13265119Y-16960500D01*
X13284167Y-16950976D01*
X13322262Y-16950976D01*
X13341309Y-16960500D01*
X13350833Y-16970024D01*
X13360357Y-16989071D01*
X13360357Y-16998595D01*
X13350833Y-17017643D01*
X13341309Y-17027167D01*
X13322262Y-17036690D01*
X13284167Y-17036690D01*
X13265119Y-17046214D01*
X13255595Y-17055738D01*
X13246071Y-17074786D01*
X13246071Y-17112881D01*
X13255595Y-17131929D01*
X13265119Y-17141452D01*
X13284167Y-17150976D01*
X13322262Y-17150976D01*
X13341309Y-17141452D01*
X13350833Y-17131929D01*
X13360357Y-17112881D01*
X13360357Y-17074786D01*
X13350833Y-17055738D01*
X13341309Y-17046214D01*
X13322262Y-17036690D01*
X13598452Y-17150976D02*
X13598452Y-16950976D01*
X13684167Y-17150976D02*
X13684167Y-17046214D01*
X13674643Y-17027167D01*
X13655595Y-17017643D01*
X13627024Y-17017643D01*
X13607976Y-17027167D01*
X13598452Y-17036690D01*
X13807976Y-17150976D02*
X13788928Y-17141452D01*
X13779405Y-17131929D01*
X13769881Y-17112881D01*
X13769881Y-17055738D01*
X13779405Y-17036690D01*
X13788928Y-17027167D01*
X13807976Y-17017643D01*
X13836548Y-17017643D01*
X13855595Y-17027167D01*
X13865119Y-17036690D01*
X13874643Y-17055738D01*
X13874643Y-17112881D01*
X13865119Y-17131929D01*
X13855595Y-17141452D01*
X13836548Y-17150976D01*
X13807976Y-17150976D01*
X13988928Y-17150976D02*
X13969881Y-17141452D01*
X13960357Y-17122405D01*
X13960357Y-16950976D01*
X14141309Y-17141452D02*
X14122262Y-17150976D01*
X14084167Y-17150976D01*
X14065119Y-17141452D01*
X14055595Y-17122405D01*
X14055595Y-17046214D01*
X14065119Y-17027167D01*
X14084167Y-17017643D01*
X14122262Y-17017643D01*
X14141309Y-17027167D01*
X14150833Y-17046214D01*
X14150833Y-17065262D01*
X14055595Y-17084310D01*
X14227024Y-17141452D02*
X14246071Y-17150976D01*
X14284167Y-17150976D01*
X14303214Y-17141452D01*
X14312738Y-17122405D01*
X14312738Y-17112881D01*
X14303214Y-17093833D01*
X14284167Y-17084310D01*
X14255595Y-17084310D01*
X14236548Y-17074786D01*
X14227024Y-17055738D01*
X14227024Y-17046214D01*
X14236548Y-17027167D01*
X14255595Y-17017643D01*
X14284167Y-17017643D01*
X14303214Y-17027167D01*
X14379405Y-17227167D02*
X14388928Y-17217643D01*
X14407976Y-17189071D01*
X14417500Y-17170024D01*
X14427024Y-17141452D01*
X14436548Y-17093833D01*
X14436548Y-17055738D01*
X14427024Y-17008119D01*
X14417500Y-16979548D01*
X14407976Y-16960500D01*
X14388928Y-16931929D01*
X14379405Y-16922405D01*
M02*
