%TF.GenerationSoftware,KiCad,Pcbnew,6.0.8*%
%TF.CreationDate,2024-03-27T11:01:51-07:00*%
%TF.ProjectId,GracefulPSU,47726163-6566-4756-9c50-53552e6b6963,rev?*%
%TF.SameCoordinates,Original*%
%TF.FileFunction,Drillmap*%
%TF.FilePolarity,Positive*%
%FSLAX45Y45*%
G04 Gerber Fmt 4.5, Leading zero omitted, Abs format (unit mm)*
G04 Created by KiCad (PCBNEW 6.0.8) date 2024-03-27 11:01:51*
%MOMM*%
%LPD*%
G01*
G04 APERTURE LIST*
%ADD10C,0.100000*%
%ADD11C,0.200000*%
%ADD12C,0.350000*%
G04 APERTURE END LIST*
D10*
X16410500Y-7919400D02*
X6426900Y-7919400D01*
X6426900Y-7919400D02*
X6426900Y-16580800D01*
X6426900Y-16580800D02*
X16410500Y-16580800D01*
X16410500Y-16580800D02*
X16410500Y-7919400D01*
D11*
D12*
X12485500Y-10702500D02*
X12835500Y-11052500D01*
X12835500Y-10702500D02*
X12485500Y-11052500D01*
X12485500Y-13115500D02*
X12835500Y-13465500D01*
X12835500Y-13115500D02*
X12485500Y-13465500D01*
D11*
X6679519Y-16896276D02*
X6679519Y-16696276D01*
X6727138Y-16696276D01*
X6755709Y-16705800D01*
X6774757Y-16724848D01*
X6784281Y-16743895D01*
X6793805Y-16781990D01*
X6793805Y-16810562D01*
X6784281Y-16848657D01*
X6774757Y-16867705D01*
X6755709Y-16886752D01*
X6727138Y-16896276D01*
X6679519Y-16896276D01*
X6879519Y-16896276D02*
X6879519Y-16762943D01*
X6879519Y-16801038D02*
X6889043Y-16781990D01*
X6898567Y-16772467D01*
X6917614Y-16762943D01*
X6936662Y-16762943D01*
X7003328Y-16896276D02*
X7003328Y-16762943D01*
X7003328Y-16696276D02*
X6993805Y-16705800D01*
X7003328Y-16715324D01*
X7012852Y-16705800D01*
X7003328Y-16696276D01*
X7003328Y-16715324D01*
X7127138Y-16896276D02*
X7108090Y-16886752D01*
X7098567Y-16867705D01*
X7098567Y-16696276D01*
X7231900Y-16896276D02*
X7212852Y-16886752D01*
X7203328Y-16867705D01*
X7203328Y-16696276D01*
X7460471Y-16896276D02*
X7460471Y-16696276D01*
X7527138Y-16839133D01*
X7593805Y-16696276D01*
X7593805Y-16896276D01*
X7774757Y-16896276D02*
X7774757Y-16791514D01*
X7765233Y-16772467D01*
X7746186Y-16762943D01*
X7708090Y-16762943D01*
X7689043Y-16772467D01*
X7774757Y-16886752D02*
X7755709Y-16896276D01*
X7708090Y-16896276D01*
X7689043Y-16886752D01*
X7679519Y-16867705D01*
X7679519Y-16848657D01*
X7689043Y-16829610D01*
X7708090Y-16820086D01*
X7755709Y-16820086D01*
X7774757Y-16810562D01*
X7869995Y-16762943D02*
X7869995Y-16962943D01*
X7869995Y-16772467D02*
X7889043Y-16762943D01*
X7927138Y-16762943D01*
X7946186Y-16772467D01*
X7955709Y-16781990D01*
X7965233Y-16801038D01*
X7965233Y-16858181D01*
X7955709Y-16877229D01*
X7946186Y-16886752D01*
X7927138Y-16896276D01*
X7889043Y-16896276D01*
X7869995Y-16886752D01*
X8050948Y-16877229D02*
X8060471Y-16886752D01*
X8050948Y-16896276D01*
X8041424Y-16886752D01*
X8050948Y-16877229D01*
X8050948Y-16896276D01*
X8050948Y-16772467D02*
X8060471Y-16781990D01*
X8050948Y-16791514D01*
X8041424Y-16781990D01*
X8050948Y-16772467D01*
X8050948Y-16791514D01*
X6221900Y-17125800D02*
X6421900Y-17325800D01*
X6421900Y-17125800D02*
X6221900Y-17325800D01*
X6660471Y-17116276D02*
X6784281Y-17116276D01*
X6717614Y-17192467D01*
X6746186Y-17192467D01*
X6765233Y-17201990D01*
X6774757Y-17211514D01*
X6784281Y-17230562D01*
X6784281Y-17278181D01*
X6774757Y-17297229D01*
X6765233Y-17306752D01*
X6746186Y-17316276D01*
X6689043Y-17316276D01*
X6669995Y-17306752D01*
X6660471Y-17297229D01*
X6869995Y-17297229D02*
X6879519Y-17306752D01*
X6869995Y-17316276D01*
X6860471Y-17306752D01*
X6869995Y-17297229D01*
X6869995Y-17316276D01*
X7060471Y-17116276D02*
X6965233Y-17116276D01*
X6955709Y-17211514D01*
X6965233Y-17201990D01*
X6984281Y-17192467D01*
X7031900Y-17192467D01*
X7050948Y-17201990D01*
X7060471Y-17211514D01*
X7069995Y-17230562D01*
X7069995Y-17278181D01*
X7060471Y-17297229D01*
X7050948Y-17306752D01*
X7031900Y-17316276D01*
X6984281Y-17316276D01*
X6965233Y-17306752D01*
X6955709Y-17297229D01*
X7193805Y-17116276D02*
X7212852Y-17116276D01*
X7231900Y-17125800D01*
X7241424Y-17135324D01*
X7250948Y-17154371D01*
X7260471Y-17192467D01*
X7260471Y-17240086D01*
X7250948Y-17278181D01*
X7241424Y-17297229D01*
X7231900Y-17306752D01*
X7212852Y-17316276D01*
X7193805Y-17316276D01*
X7174757Y-17306752D01*
X7165233Y-17297229D01*
X7155709Y-17278181D01*
X7146186Y-17240086D01*
X7146186Y-17192467D01*
X7155709Y-17154371D01*
X7165233Y-17135324D01*
X7174757Y-17125800D01*
X7193805Y-17116276D01*
X7384281Y-17116276D02*
X7403328Y-17116276D01*
X7422376Y-17125800D01*
X7431900Y-17135324D01*
X7441424Y-17154371D01*
X7450948Y-17192467D01*
X7450948Y-17240086D01*
X7441424Y-17278181D01*
X7431900Y-17297229D01*
X7422376Y-17306752D01*
X7403328Y-17316276D01*
X7384281Y-17316276D01*
X7365233Y-17306752D01*
X7355709Y-17297229D01*
X7346186Y-17278181D01*
X7336662Y-17240086D01*
X7336662Y-17192467D01*
X7346186Y-17154371D01*
X7355709Y-17135324D01*
X7365233Y-17125800D01*
X7384281Y-17116276D01*
X7536662Y-17316276D02*
X7536662Y-17182943D01*
X7536662Y-17201990D02*
X7546186Y-17192467D01*
X7565233Y-17182943D01*
X7593805Y-17182943D01*
X7612852Y-17192467D01*
X7622376Y-17211514D01*
X7622376Y-17316276D01*
X7622376Y-17211514D02*
X7631900Y-17192467D01*
X7650948Y-17182943D01*
X7679519Y-17182943D01*
X7698567Y-17192467D01*
X7708090Y-17211514D01*
X7708090Y-17316276D01*
X7803328Y-17316276D02*
X7803328Y-17182943D01*
X7803328Y-17201990D02*
X7812852Y-17192467D01*
X7831900Y-17182943D01*
X7860471Y-17182943D01*
X7879519Y-17192467D01*
X7889043Y-17211514D01*
X7889043Y-17316276D01*
X7889043Y-17211514D02*
X7898567Y-17192467D01*
X7917614Y-17182943D01*
X7946186Y-17182943D01*
X7965233Y-17192467D01*
X7974757Y-17211514D01*
X7974757Y-17316276D01*
X8365233Y-17106752D02*
X8193805Y-17363895D01*
X8622376Y-17116276D02*
X8641424Y-17116276D01*
X8660471Y-17125800D01*
X8669995Y-17135324D01*
X8679519Y-17154371D01*
X8689043Y-17192467D01*
X8689043Y-17240086D01*
X8679519Y-17278181D01*
X8669995Y-17297229D01*
X8660471Y-17306752D01*
X8641424Y-17316276D01*
X8622376Y-17316276D01*
X8603329Y-17306752D01*
X8593805Y-17297229D01*
X8584281Y-17278181D01*
X8574757Y-17240086D01*
X8574757Y-17192467D01*
X8584281Y-17154371D01*
X8593805Y-17135324D01*
X8603329Y-17125800D01*
X8622376Y-17116276D01*
X8774757Y-17297229D02*
X8784281Y-17306752D01*
X8774757Y-17316276D01*
X8765233Y-17306752D01*
X8774757Y-17297229D01*
X8774757Y-17316276D01*
X8974757Y-17316276D02*
X8860471Y-17316276D01*
X8917614Y-17316276D02*
X8917614Y-17116276D01*
X8898567Y-17144848D01*
X8879519Y-17163895D01*
X8860471Y-17173419D01*
X9041424Y-17116276D02*
X9165233Y-17116276D01*
X9098567Y-17192467D01*
X9127138Y-17192467D01*
X9146186Y-17201990D01*
X9155710Y-17211514D01*
X9165233Y-17230562D01*
X9165233Y-17278181D01*
X9155710Y-17297229D01*
X9146186Y-17306752D01*
X9127138Y-17316276D01*
X9069995Y-17316276D01*
X9050948Y-17306752D01*
X9041424Y-17297229D01*
X9231900Y-17116276D02*
X9365233Y-17116276D01*
X9279519Y-17316276D01*
X9469995Y-17201990D02*
X9450948Y-17192467D01*
X9441424Y-17182943D01*
X9431900Y-17163895D01*
X9431900Y-17154371D01*
X9441424Y-17135324D01*
X9450948Y-17125800D01*
X9469995Y-17116276D01*
X9508090Y-17116276D01*
X9527138Y-17125800D01*
X9536662Y-17135324D01*
X9546186Y-17154371D01*
X9546186Y-17163895D01*
X9536662Y-17182943D01*
X9527138Y-17192467D01*
X9508090Y-17201990D01*
X9469995Y-17201990D01*
X9450948Y-17211514D01*
X9441424Y-17221038D01*
X9431900Y-17240086D01*
X9431900Y-17278181D01*
X9441424Y-17297229D01*
X9450948Y-17306752D01*
X9469995Y-17316276D01*
X9508090Y-17316276D01*
X9527138Y-17306752D01*
X9536662Y-17297229D01*
X9546186Y-17278181D01*
X9546186Y-17240086D01*
X9536662Y-17221038D01*
X9527138Y-17211514D01*
X9508090Y-17201990D01*
X9622376Y-17116276D02*
X9622376Y-17154371D01*
X9698567Y-17116276D02*
X9698567Y-17154371D01*
X9993805Y-17392467D02*
X9984281Y-17382943D01*
X9965233Y-17354371D01*
X9955710Y-17335324D01*
X9946186Y-17306752D01*
X9936662Y-17259133D01*
X9936662Y-17221038D01*
X9946186Y-17173419D01*
X9955710Y-17144848D01*
X9965233Y-17125800D01*
X9984281Y-17097229D01*
X9993805Y-17087705D01*
X10060471Y-17135324D02*
X10069995Y-17125800D01*
X10089043Y-17116276D01*
X10136662Y-17116276D01*
X10155710Y-17125800D01*
X10165233Y-17135324D01*
X10174757Y-17154371D01*
X10174757Y-17173419D01*
X10165233Y-17201990D01*
X10050948Y-17316276D01*
X10174757Y-17316276D01*
X10412852Y-17316276D02*
X10412852Y-17116276D01*
X10498567Y-17316276D02*
X10498567Y-17211514D01*
X10489043Y-17192467D01*
X10469995Y-17182943D01*
X10441424Y-17182943D01*
X10422376Y-17192467D01*
X10412852Y-17201990D01*
X10622376Y-17316276D02*
X10603329Y-17306752D01*
X10593805Y-17297229D01*
X10584281Y-17278181D01*
X10584281Y-17221038D01*
X10593805Y-17201990D01*
X10603329Y-17192467D01*
X10622376Y-17182943D01*
X10650948Y-17182943D01*
X10669995Y-17192467D01*
X10679519Y-17201990D01*
X10689043Y-17221038D01*
X10689043Y-17278181D01*
X10679519Y-17297229D01*
X10669995Y-17306752D01*
X10650948Y-17316276D01*
X10622376Y-17316276D01*
X10803329Y-17316276D02*
X10784281Y-17306752D01*
X10774757Y-17287705D01*
X10774757Y-17116276D01*
X10955710Y-17306752D02*
X10936662Y-17316276D01*
X10898567Y-17316276D01*
X10879519Y-17306752D01*
X10869995Y-17287705D01*
X10869995Y-17211514D01*
X10879519Y-17192467D01*
X10898567Y-17182943D01*
X10936662Y-17182943D01*
X10955710Y-17192467D01*
X10965233Y-17211514D01*
X10965233Y-17230562D01*
X10869995Y-17249610D01*
X11041424Y-17306752D02*
X11060471Y-17316276D01*
X11098567Y-17316276D01*
X11117614Y-17306752D01*
X11127138Y-17287705D01*
X11127138Y-17278181D01*
X11117614Y-17259133D01*
X11098567Y-17249610D01*
X11069995Y-17249610D01*
X11050948Y-17240086D01*
X11041424Y-17221038D01*
X11041424Y-17211514D01*
X11050948Y-17192467D01*
X11069995Y-17182943D01*
X11098567Y-17182943D01*
X11117614Y-17192467D01*
X11193805Y-17392467D02*
X11203328Y-17382943D01*
X11222376Y-17354371D01*
X11231900Y-17335324D01*
X11241424Y-17306752D01*
X11250948Y-17259133D01*
X11250948Y-17221038D01*
X11241424Y-17173419D01*
X11231900Y-17144848D01*
X11222376Y-17125800D01*
X11203328Y-17097229D01*
X11193805Y-17087705D01*
X11555709Y-17392467D02*
X11546186Y-17382943D01*
X11527138Y-17354371D01*
X11517614Y-17335324D01*
X11508090Y-17306752D01*
X11498567Y-17259133D01*
X11498567Y-17221038D01*
X11508090Y-17173419D01*
X11517614Y-17144848D01*
X11527138Y-17125800D01*
X11546186Y-17097229D01*
X11555709Y-17087705D01*
X11631900Y-17182943D02*
X11631900Y-17316276D01*
X11631900Y-17201990D02*
X11641424Y-17192467D01*
X11660471Y-17182943D01*
X11689043Y-17182943D01*
X11708090Y-17192467D01*
X11717614Y-17211514D01*
X11717614Y-17316276D01*
X11841424Y-17316276D02*
X11822376Y-17306752D01*
X11812852Y-17297229D01*
X11803328Y-17278181D01*
X11803328Y-17221038D01*
X11812852Y-17201990D01*
X11822376Y-17192467D01*
X11841424Y-17182943D01*
X11869995Y-17182943D01*
X11889043Y-17192467D01*
X11898567Y-17201990D01*
X11908090Y-17221038D01*
X11908090Y-17278181D01*
X11898567Y-17297229D01*
X11889043Y-17306752D01*
X11869995Y-17316276D01*
X11841424Y-17316276D01*
X11965233Y-17182943D02*
X12041424Y-17182943D01*
X11993805Y-17116276D02*
X11993805Y-17287705D01*
X12003328Y-17306752D01*
X12022376Y-17316276D01*
X12041424Y-17316276D01*
X12260471Y-17182943D02*
X12260471Y-17382943D01*
X12260471Y-17192467D02*
X12279519Y-17182943D01*
X12317614Y-17182943D01*
X12336662Y-17192467D01*
X12346186Y-17201990D01*
X12355709Y-17221038D01*
X12355709Y-17278181D01*
X12346186Y-17297229D01*
X12336662Y-17306752D01*
X12317614Y-17316276D01*
X12279519Y-17316276D01*
X12260471Y-17306752D01*
X12469995Y-17316276D02*
X12450948Y-17306752D01*
X12441424Y-17287705D01*
X12441424Y-17116276D01*
X12631900Y-17316276D02*
X12631900Y-17211514D01*
X12622376Y-17192467D01*
X12603328Y-17182943D01*
X12565233Y-17182943D01*
X12546186Y-17192467D01*
X12631900Y-17306752D02*
X12612852Y-17316276D01*
X12565233Y-17316276D01*
X12546186Y-17306752D01*
X12536662Y-17287705D01*
X12536662Y-17268657D01*
X12546186Y-17249610D01*
X12565233Y-17240086D01*
X12612852Y-17240086D01*
X12631900Y-17230562D01*
X12698567Y-17182943D02*
X12774757Y-17182943D01*
X12727138Y-17116276D02*
X12727138Y-17287705D01*
X12736662Y-17306752D01*
X12755709Y-17316276D01*
X12774757Y-17316276D01*
X12917614Y-17306752D02*
X12898567Y-17316276D01*
X12860471Y-17316276D01*
X12841424Y-17306752D01*
X12831900Y-17287705D01*
X12831900Y-17211514D01*
X12841424Y-17192467D01*
X12860471Y-17182943D01*
X12898567Y-17182943D01*
X12917614Y-17192467D01*
X12927138Y-17211514D01*
X12927138Y-17230562D01*
X12831900Y-17249610D01*
X13098567Y-17316276D02*
X13098567Y-17116276D01*
X13098567Y-17306752D02*
X13079519Y-17316276D01*
X13041424Y-17316276D01*
X13022376Y-17306752D01*
X13012852Y-17297229D01*
X13003328Y-17278181D01*
X13003328Y-17221038D01*
X13012852Y-17201990D01*
X13022376Y-17192467D01*
X13041424Y-17182943D01*
X13079519Y-17182943D01*
X13098567Y-17192467D01*
X13174757Y-17392467D02*
X13184281Y-17382943D01*
X13203328Y-17354371D01*
X13212852Y-17335324D01*
X13222376Y-17306752D01*
X13231900Y-17259133D01*
X13231900Y-17221038D01*
X13222376Y-17173419D01*
X13212852Y-17144848D01*
X13203328Y-17125800D01*
X13184281Y-17097229D01*
X13174757Y-17087705D01*
M02*
