%TF.GenerationSoftware,KiCad,Pcbnew,6.0.8*%
%TF.CreationDate,2024-03-27T11:01:58-07:00*%
%TF.ProjectId,GracefulPSU,47726163-6566-4756-9c50-53552e6b6963,rev?*%
%TF.SameCoordinates,Original*%
%TF.FileFunction,Soldermask,Top*%
%TF.FilePolarity,Negative*%
%FSLAX46Y46*%
G04 Gerber Fmt 4.6, Leading zero omitted, Abs format (unit mm)*
G04 Created by KiCad (PCBNEW 6.0.8) date 2024-03-27 11:01:58*
%MOMM*%
%LPD*%
G01*
G04 APERTURE LIST*
G04 Aperture macros list*
%AMRoundRect*
0 Rectangle with rounded corners*
0 $1 Rounding radius*
0 $2 $3 $4 $5 $6 $7 $8 $9 X,Y pos of 4 corners*
0 Add a 4 corners polygon primitive as box body*
4,1,4,$2,$3,$4,$5,$6,$7,$8,$9,$2,$3,0*
0 Add four circle primitives for the rounded corners*
1,1,$1+$1,$2,$3*
1,1,$1+$1,$4,$5*
1,1,$1+$1,$6,$7*
1,1,$1+$1,$8,$9*
0 Add four rect primitives between the rounded corners*
20,1,$1+$1,$2,$3,$4,$5,0*
20,1,$1+$1,$4,$5,$6,$7,0*
20,1,$1+$1,$6,$7,$8,$9,0*
20,1,$1+$1,$8,$9,$2,$3,0*%
G04 Aperture macros list end*
%ADD10C,1.600000*%
%ADD11C,1.700000*%
%ADD12O,1.600000X1.600000*%
%ADD13RoundRect,0.150000X-0.825000X-0.150000X0.825000X-0.150000X0.825000X0.150000X-0.825000X0.150000X0*%
%ADD14R,1.970000X0.570000*%
%ADD15O,3.500000X3.500000*%
%ADD16R,1.905000X2.000000*%
%ADD17O,1.905000X2.000000*%
%ADD18R,1.200000X2.200000*%
%ADD19R,5.800000X6.400000*%
%ADD20RoundRect,0.170000X-1.630000X0.680000X-1.630000X-0.680000X1.630000X-0.680000X1.630000X0.680000X0*%
%ADD21RoundRect,0.250000X1.500000X0.550000X-1.500000X0.550000X-1.500000X-0.550000X1.500000X-0.550000X0*%
%ADD22RoundRect,0.425000X-0.425000X-0.425000X0.425000X-0.425000X0.425000X0.425000X-0.425000X0.425000X0*%
%ADD23C,6.000000*%
%ADD24C,2.000000*%
%ADD25RoundRect,0.675000X-0.675000X-0.675000X0.675000X-0.675000X0.675000X0.675000X-0.675000X0.675000X0*%
%ADD26R,1.800000X1.800000*%
%ADD27O,1.800000X1.800000*%
%ADD28C,1.524000*%
%ADD29R,1.700000X1.800000*%
%ADD30R,1.700000X1.700000*%
%ADD31O,1.700000X1.700000*%
%ADD32RoundRect,0.250000X1.250000X0.550000X-1.250000X0.550000X-1.250000X-0.550000X1.250000X-0.550000X0*%
%ADD33R,0.800000X4.600000*%
%ADD34R,10.800000X9.400000*%
G04 APERTURE END LIST*
D10*
%TO.C,C9*%
X112762000Y-87703000D03*
X115262000Y-87703000D03*
%TD*%
D11*
%TO.C,JP1*%
X107082000Y-143329000D03*
%TD*%
D10*
%TO.C,R29*%
X95572000Y-105868000D03*
D12*
X105732000Y-105868000D03*
%TD*%
D10*
%TO.C,R25*%
X100017000Y-102058000D03*
D12*
X110177000Y-102058000D03*
%TD*%
D10*
%TO.C,R26*%
X106697000Y-88258000D03*
D12*
X106697000Y-98418000D03*
%TD*%
D13*
%TO.C,U1*%
X82382000Y-129613000D03*
X82382000Y-130883000D03*
X82382000Y-132153000D03*
X82382000Y-133423000D03*
X87332000Y-133423000D03*
X87332000Y-132153000D03*
X87332000Y-130883000D03*
X87332000Y-129613000D03*
%TD*%
D10*
%TO.C,R12*%
X121398000Y-102489000D03*
D12*
X131558000Y-102489000D03*
%TD*%
D10*
%TO.C,R23*%
X87317000Y-118568000D03*
D12*
X97477000Y-118568000D03*
%TD*%
D14*
%TO.C,Q2*%
X93177000Y-109928000D03*
X93177000Y-111198000D03*
X93177000Y-112468000D03*
X93177000Y-113738000D03*
X98127000Y-113738000D03*
X98127000Y-112468000D03*
X98127000Y-111198000D03*
X98127000Y-109928000D03*
%TD*%
D15*
%TO.C,Q1*%
X126605000Y-132905000D03*
D16*
X124065000Y-149565000D03*
D17*
X126605000Y-149565000D03*
X129145000Y-149565000D03*
%TD*%
D10*
%TO.C,R28*%
X95097000Y-159708000D03*
D12*
X84937000Y-159708000D03*
%TD*%
D10*
%TO.C,R17*%
X77237000Y-127708000D03*
D12*
X67077000Y-127708000D03*
%TD*%
D18*
%TO.C,D14*%
X139427000Y-108532000D03*
D19*
X137147000Y-114832000D03*
D18*
X137147000Y-108532000D03*
X134867000Y-108532000D03*
%TD*%
D20*
%TO.C,L1*%
X145782000Y-117927000D03*
X145782000Y-123227000D03*
%TD*%
D21*
%TO.C,C14*%
X149598000Y-139573000D03*
X143998000Y-139573000D03*
%TD*%
D10*
%TO.C,R8*%
X88917000Y-139058000D03*
D12*
X88917000Y-149218000D03*
%TD*%
D11*
%TO.C,JP4*%
X107082000Y-149298000D03*
%TD*%
D10*
%TO.C,R27*%
X102557000Y-83008000D03*
D12*
X112717000Y-83008000D03*
%TD*%
D10*
%TO.C,R15*%
X124147000Y-155398000D03*
D12*
X134307000Y-155398000D03*
%TD*%
D10*
%TO.C,R14*%
X97807000Y-136518000D03*
D12*
X97807000Y-146678000D03*
%TD*%
D22*
%TO.C,J7*%
X117877000Y-83258000D03*
%TD*%
D23*
%TO.C,H5*%
X68474000Y-161109000D03*
%TD*%
D24*
%TO.C,C7*%
X97517000Y-83258000D03*
X92517000Y-83258000D03*
%TD*%
D23*
%TO.C,H2*%
X159625000Y-83185000D03*
%TD*%
D10*
%TO.C,R22*%
X100017000Y-161748000D03*
D12*
X110177000Y-161748000D03*
%TD*%
D10*
%TO.C,R10*%
X77792000Y-113738000D03*
D12*
X87952000Y-113738000D03*
%TD*%
D25*
%TO.C,J11*%
X136292000Y-161998000D03*
%TD*%
D26*
%TO.C,D12*%
X92447000Y-88488000D03*
D27*
X100067000Y-88488000D03*
%TD*%
D10*
%TO.C,C3*%
X102637000Y-152473000D03*
X102637000Y-154973000D03*
%TD*%
D26*
%TO.C,D13*%
X110862000Y-93568000D03*
D27*
X118482000Y-93568000D03*
%TD*%
D22*
%TO.C,J8*%
X122957000Y-83258000D03*
%TD*%
D10*
%TO.C,R20*%
X66997000Y-123648000D03*
D12*
X77157000Y-123648000D03*
%TD*%
D28*
%TO.C,B1*%
X156790000Y-150420000D03*
X152290000Y-150420000D03*
X156790000Y-93420000D03*
X152290000Y-93420000D03*
%TD*%
D29*
%TO.C,D7*%
X141210000Y-92928000D03*
X141210000Y-88828000D03*
%TD*%
D10*
%TO.C,R5*%
X92727000Y-139058000D03*
D12*
X92727000Y-149218000D03*
%TD*%
D10*
%TO.C,C12*%
X137400000Y-102235000D03*
X137400000Y-104735000D03*
%TD*%
%TO.C,R24*%
X95402000Y-103023000D03*
D12*
X95402000Y-92863000D03*
%TD*%
D10*
%TO.C,R18*%
X80797000Y-149378000D03*
D12*
X80797000Y-139218000D03*
%TD*%
D23*
%TO.C,H1*%
X68347000Y-83258000D03*
%TD*%
D10*
%TO.C,R3*%
X105427000Y-128898000D03*
D12*
X105427000Y-139058000D03*
%TD*%
D10*
%TO.C,R4*%
X70807000Y-154128000D03*
D12*
X80967000Y-154128000D03*
%TD*%
D10*
%TO.C,R7*%
X85107000Y-139058000D03*
D12*
X85107000Y-149218000D03*
%TD*%
D25*
%TO.C,J2*%
X140737000Y-83258000D03*
%TD*%
D10*
%TO.C,R19*%
X77317000Y-131768000D03*
D12*
X67157000Y-131768000D03*
%TD*%
D22*
%TO.C,J6*%
X76127000Y-161831000D03*
%TD*%
D25*
%TO.C,J12*%
X145817000Y-161998000D03*
%TD*%
D10*
%TO.C,R31*%
X139428000Y-134921000D03*
D12*
X139428000Y-145081000D03*
%TD*%
D10*
%TO.C,C4*%
X84857000Y-125168000D03*
X82357000Y-125168000D03*
%TD*%
D22*
%TO.C,J9*%
X81047000Y-161998000D03*
%TD*%
D25*
%TO.C,J3*%
X150897000Y-83258000D03*
%TD*%
D10*
%TO.C,R11*%
X92227000Y-134138000D03*
D12*
X92227000Y-123978000D03*
%TD*%
D29*
%TO.C,D8*%
X146290000Y-92928000D03*
X146290000Y-88828000D03*
%TD*%
D23*
%TO.C,H6*%
X116734000Y-161109000D03*
%TD*%
D26*
%TO.C,D6*%
X74847000Y-89638000D03*
D27*
X74847000Y-82018000D03*
%TD*%
D10*
%TO.C,R1*%
X105427000Y-114928000D03*
D12*
X105427000Y-125088000D03*
%TD*%
D30*
%TO.C,J5*%
X110384000Y-107769000D03*
D31*
X112924000Y-107769000D03*
X110384000Y-110309000D03*
X112924000Y-110309000D03*
X110384000Y-112849000D03*
X112924000Y-112849000D03*
X110384000Y-115389000D03*
X112924000Y-115389000D03*
X110384000Y-117929000D03*
X112924000Y-117929000D03*
X110384000Y-120469000D03*
X112924000Y-120469000D03*
X110384000Y-123009000D03*
X112924000Y-123009000D03*
X110384000Y-125549000D03*
X112924000Y-125549000D03*
X110384000Y-128089000D03*
X112924000Y-128089000D03*
X110384000Y-130629000D03*
X112924000Y-130629000D03*
X110384000Y-133169000D03*
X112924000Y-133169000D03*
X110384000Y-135709000D03*
X112924000Y-135709000D03*
X110384000Y-138249000D03*
X112924000Y-138249000D03*
X110384000Y-140789000D03*
X112924000Y-140789000D03*
X110384000Y-143329000D03*
X112924000Y-143329000D03*
X110384000Y-145869000D03*
X112924000Y-145869000D03*
X110384000Y-148409000D03*
X112924000Y-148409000D03*
X110384000Y-150949000D03*
X112924000Y-150949000D03*
X110384000Y-153489000D03*
X112924000Y-153489000D03*
X110384000Y-156029000D03*
X112924000Y-156029000D03*
%TD*%
D25*
%TO.C,J1*%
X133117000Y-83258000D03*
%TD*%
D11*
%TO.C,JP3*%
X107082000Y-152473000D03*
%TD*%
%TO.C,JP2*%
X107082000Y-145869000D03*
%TD*%
D32*
%TO.C,C10*%
X130202000Y-96901000D03*
X125802000Y-96901000D03*
%TD*%
D10*
%TO.C,C1*%
X102637000Y-146758000D03*
X102637000Y-144258000D03*
%TD*%
%TO.C,R6*%
X74312000Y-102228000D03*
D12*
X74312000Y-112388000D03*
%TD*%
D33*
%TO.C,U2*%
X142642000Y-110181000D03*
X143912000Y-110181000D03*
X145182000Y-110181000D03*
X146452000Y-110181000D03*
X147722000Y-110181000D03*
X148992000Y-110181000D03*
X150262000Y-110181000D03*
D34*
X146452000Y-101031000D03*
%TD*%
D10*
%TO.C,R16*%
X78427000Y-108408000D03*
D12*
X88587000Y-108408000D03*
%TD*%
D23*
%TO.C,H4*%
X116734000Y-102689000D03*
%TD*%
D26*
%TO.C,D10*%
X68197000Y-108628000D03*
D27*
X68197000Y-116248000D03*
%TD*%
D23*
%TO.C,H8*%
X159787000Y-160728000D03*
%TD*%
D26*
%TO.C,D1*%
X91237000Y-93268000D03*
D27*
X83617000Y-93268000D03*
%TD*%
D26*
%TO.C,D2*%
X83557000Y-98648000D03*
D27*
X91177000Y-98648000D03*
%TD*%
D23*
%TO.C,H3*%
X68474000Y-102689000D03*
%TD*%
D26*
%TO.C,D3*%
X81017000Y-88742000D03*
D27*
X88637000Y-88742000D03*
%TD*%
D26*
%TO.C,D11*%
X97407000Y-124503000D03*
D27*
X97407000Y-132123000D03*
%TD*%
D24*
%TO.C,C11*%
X137654000Y-121325000D03*
X137654000Y-126325000D03*
%TD*%
%TO.C,C6*%
X101367000Y-97823000D03*
X101367000Y-92823000D03*
%TD*%
D25*
%TO.C,J10*%
X126767000Y-161998000D03*
%TD*%
D15*
%TO.C,Q3*%
X126605000Y-108775000D03*
D16*
X124065000Y-125435000D03*
D17*
X126605000Y-125435000D03*
X129145000Y-125435000D03*
%TD*%
D10*
%TO.C,R2*%
X79697000Y-103328000D03*
D12*
X89857000Y-103328000D03*
%TD*%
D28*
%TO.C,C2*%
X66793000Y-94688000D03*
X66793000Y-97228000D03*
%TD*%
D26*
%TO.C,D5*%
X67047000Y-140558000D03*
D27*
X74667000Y-140558000D03*
%TD*%
D30*
%TO.C,J4*%
X115464000Y-107774000D03*
D31*
X118004000Y-107774000D03*
X115464000Y-110314000D03*
X118004000Y-110314000D03*
X115464000Y-112854000D03*
X118004000Y-112854000D03*
X115464000Y-115394000D03*
X118004000Y-115394000D03*
X115464000Y-117934000D03*
X118004000Y-117934000D03*
X115464000Y-120474000D03*
X118004000Y-120474000D03*
X115464000Y-123014000D03*
X118004000Y-123014000D03*
X115464000Y-125554000D03*
X118004000Y-125554000D03*
X115464000Y-128094000D03*
X118004000Y-128094000D03*
X115464000Y-130634000D03*
X118004000Y-130634000D03*
X115464000Y-133174000D03*
X118004000Y-133174000D03*
X115464000Y-135714000D03*
X118004000Y-135714000D03*
X115464000Y-138254000D03*
X118004000Y-138254000D03*
X115464000Y-140794000D03*
X118004000Y-140794000D03*
X115464000Y-143334000D03*
X118004000Y-143334000D03*
X115464000Y-145874000D03*
X118004000Y-145874000D03*
X115464000Y-148414000D03*
X118004000Y-148414000D03*
X115464000Y-150954000D03*
X118004000Y-150954000D03*
X115464000Y-153494000D03*
X118004000Y-153494000D03*
X115464000Y-156034000D03*
X118004000Y-156034000D03*
%TD*%
D10*
%TO.C,R9*%
X84777000Y-154128000D03*
D12*
X94937000Y-154128000D03*
%TD*%
D10*
%TO.C,R13*%
X82397000Y-119068000D03*
D12*
X72237000Y-119068000D03*
%TD*%
D10*
%TO.C,R21*%
X67204000Y-135582000D03*
D12*
X77364000Y-135582000D03*
%TD*%
D26*
%TO.C,D4*%
X81017000Y-83408000D03*
D27*
X88637000Y-83408000D03*
%TD*%
D10*
%TO.C,R30*%
X149465000Y-130810000D03*
D12*
X139305000Y-130810000D03*
%TD*%
D28*
%TO.C,C8*%
X118350000Y-90043000D03*
X118350000Y-87503000D03*
%TD*%
D26*
%TO.C,D9*%
X67047000Y-145638000D03*
D27*
X74667000Y-145638000D03*
%TD*%
D28*
%TO.C,C5*%
X138197000Y-93418000D03*
X138197000Y-154378000D03*
X161057000Y-154378000D03*
X161057000Y-93418000D03*
%TD*%
M02*
