%TF.GenerationSoftware,KiCad,Pcbnew,6.0.8*%
%TF.CreationDate,2023-11-11T15:32:50-08:00*%
%TF.ProjectId,GracefulPSU,47726163-6566-4756-9c50-53552e6b6963,rev?*%
%TF.SameCoordinates,Original*%
%TF.FileFunction,Drillmap*%
%TF.FilePolarity,Positive*%
%FSLAX45Y45*%
G04 Gerber Fmt 4.5, Leading zero omitted, Abs format (unit mm)*
G04 Created by KiCad (PCBNEW 6.0.8) date 2023-11-11 15:32:50*
%MOMM*%
%LPD*%
G01*
G04 APERTURE LIST*
%ADD10C,0.100000*%
%ADD11C,0.200000*%
G04 APERTURE END LIST*
D10*
X18566000Y-3683000D02*
X9612500Y-3683000D01*
X9612500Y-3683000D02*
X9612500Y-14287500D01*
X9612500Y-14287500D02*
X18566000Y-14287500D01*
X18566000Y-14287500D02*
X18566000Y-3683000D01*
D11*
X9865119Y-14602976D02*
X9865119Y-14402976D01*
X9912738Y-14402976D01*
X9941310Y-14412500D01*
X9960357Y-14431548D01*
X9969881Y-14450595D01*
X9979405Y-14488690D01*
X9979405Y-14517262D01*
X9969881Y-14555357D01*
X9960357Y-14574405D01*
X9941310Y-14593452D01*
X9912738Y-14602976D01*
X9865119Y-14602976D01*
X10065119Y-14602976D02*
X10065119Y-14469643D01*
X10065119Y-14507738D02*
X10074643Y-14488690D01*
X10084167Y-14479167D01*
X10103214Y-14469643D01*
X10122262Y-14469643D01*
X10188929Y-14602976D02*
X10188929Y-14469643D01*
X10188929Y-14402976D02*
X10179405Y-14412500D01*
X10188929Y-14422024D01*
X10198452Y-14412500D01*
X10188929Y-14402976D01*
X10188929Y-14422024D01*
X10312738Y-14602976D02*
X10293690Y-14593452D01*
X10284167Y-14574405D01*
X10284167Y-14402976D01*
X10417500Y-14602976D02*
X10398452Y-14593452D01*
X10388929Y-14574405D01*
X10388929Y-14402976D01*
X10646071Y-14602976D02*
X10646071Y-14402976D01*
X10712738Y-14545833D01*
X10779405Y-14402976D01*
X10779405Y-14602976D01*
X10960357Y-14602976D02*
X10960357Y-14498214D01*
X10950833Y-14479167D01*
X10931786Y-14469643D01*
X10893690Y-14469643D01*
X10874643Y-14479167D01*
X10960357Y-14593452D02*
X10941310Y-14602976D01*
X10893690Y-14602976D01*
X10874643Y-14593452D01*
X10865119Y-14574405D01*
X10865119Y-14555357D01*
X10874643Y-14536309D01*
X10893690Y-14526786D01*
X10941310Y-14526786D01*
X10960357Y-14517262D01*
X11055595Y-14469643D02*
X11055595Y-14669643D01*
X11055595Y-14479167D02*
X11074643Y-14469643D01*
X11112738Y-14469643D01*
X11131786Y-14479167D01*
X11141310Y-14488690D01*
X11150833Y-14507738D01*
X11150833Y-14564881D01*
X11141310Y-14583928D01*
X11131786Y-14593452D01*
X11112738Y-14602976D01*
X11074643Y-14602976D01*
X11055595Y-14593452D01*
X11236548Y-14583928D02*
X11246071Y-14593452D01*
X11236548Y-14602976D01*
X11227024Y-14593452D01*
X11236548Y-14583928D01*
X11236548Y-14602976D01*
X11236548Y-14479167D02*
X11246071Y-14488690D01*
X11236548Y-14498214D01*
X11227024Y-14488690D01*
X11236548Y-14479167D01*
X11236548Y-14498214D01*
M02*
