%TF.GenerationSoftware,KiCad,Pcbnew,6.0.8*%
%TF.CreationDate,2024-03-27T11:01:58-07:00*%
%TF.ProjectId,GracefulPSU,47726163-6566-4756-9c50-53552e6b6963,rev?*%
%TF.SameCoordinates,Original*%
%TF.FileFunction,Paste,Top*%
%TF.FilePolarity,Positive*%
%FSLAX46Y46*%
G04 Gerber Fmt 4.6, Leading zero omitted, Abs format (unit mm)*
G04 Created by KiCad (PCBNEW 6.0.8) date 2024-03-27 11:01:58*
%MOMM*%
%LPD*%
G01*
G04 APERTURE LIST*
G04 Aperture macros list*
%AMRoundRect*
0 Rectangle with rounded corners*
0 $1 Rounding radius*
0 $2 $3 $4 $5 $6 $7 $8 $9 X,Y pos of 4 corners*
0 Add a 4 corners polygon primitive as box body*
4,1,4,$2,$3,$4,$5,$6,$7,$8,$9,$2,$3,0*
0 Add four circle primitives for the rounded corners*
1,1,$1+$1,$2,$3*
1,1,$1+$1,$4,$5*
1,1,$1+$1,$6,$7*
1,1,$1+$1,$8,$9*
0 Add four rect primitives between the rounded corners*
20,1,$1+$1,$2,$3,$4,$5,0*
20,1,$1+$1,$4,$5,$6,$7,0*
20,1,$1+$1,$6,$7,$8,$9,0*
20,1,$1+$1,$8,$9,$2,$3,0*%
G04 Aperture macros list end*
%ADD10RoundRect,0.150000X-0.825000X-0.150000X0.825000X-0.150000X0.825000X0.150000X-0.825000X0.150000X0*%
%ADD11R,1.970000X0.570000*%
%ADD12R,2.750000X3.050000*%
%ADD13R,1.200000X2.200000*%
%ADD14RoundRect,0.170000X-1.630000X0.680000X-1.630000X-0.680000X1.630000X-0.680000X1.630000X0.680000X0*%
%ADD15RoundRect,0.250000X1.500000X0.550000X-1.500000X0.550000X-1.500000X-0.550000X1.500000X-0.550000X0*%
%ADD16R,1.700000X1.800000*%
%ADD17RoundRect,0.250000X1.250000X0.550000X-1.250000X0.550000X-1.250000X-0.550000X1.250000X-0.550000X0*%
%ADD18R,5.250000X4.550000*%
%ADD19R,0.800000X4.600000*%
G04 APERTURE END LIST*
D10*
%TO.C,U1*%
X82382000Y-129613000D03*
X82382000Y-130883000D03*
X82382000Y-132153000D03*
X82382000Y-133423000D03*
X87332000Y-133423000D03*
X87332000Y-132153000D03*
X87332000Y-130883000D03*
X87332000Y-129613000D03*
%TD*%
D11*
%TO.C,Q2*%
X93177000Y-109928000D03*
X93177000Y-111198000D03*
X93177000Y-112468000D03*
X93177000Y-113738000D03*
X98127000Y-113738000D03*
X98127000Y-112468000D03*
X98127000Y-111198000D03*
X98127000Y-109928000D03*
%TD*%
D12*
%TO.C,D14*%
X135622000Y-113157000D03*
X138672000Y-116507000D03*
X135622000Y-116507000D03*
X138672000Y-113157000D03*
D13*
X139427000Y-108532000D03*
X137147000Y-108532000D03*
X134867000Y-108532000D03*
%TD*%
D14*
%TO.C,L1*%
X145782000Y-117927000D03*
X145782000Y-123227000D03*
%TD*%
D15*
%TO.C,C14*%
X149598000Y-139573000D03*
X143998000Y-139573000D03*
%TD*%
D16*
%TO.C,D7*%
X141210000Y-92928000D03*
X141210000Y-88828000D03*
%TD*%
%TO.C,D8*%
X146290000Y-92928000D03*
X146290000Y-88828000D03*
%TD*%
D17*
%TO.C,C10*%
X130202000Y-96901000D03*
X125802000Y-96901000D03*
%TD*%
D18*
%TO.C,U2*%
X149227000Y-103456000D03*
X149227000Y-98606000D03*
X143677000Y-98606000D03*
X143677000Y-103456000D03*
D19*
X142642000Y-110181000D03*
X143912000Y-110181000D03*
X145182000Y-110181000D03*
X146452000Y-110181000D03*
X147722000Y-110181000D03*
X148992000Y-110181000D03*
X150262000Y-110181000D03*
%TD*%
M02*
