%TF.GenerationSoftware,KiCad,Pcbnew,6.0.8*%
%TF.CreationDate,2024-03-27T11:01:58-07:00*%
%TF.ProjectId,GracefulPSU,47726163-6566-4756-9c50-53552e6b6963,rev?*%
%TF.SameCoordinates,Original*%
%TF.FileFunction,Legend,Bot*%
%TF.FilePolarity,Positive*%
%FSLAX46Y46*%
G04 Gerber Fmt 4.6, Leading zero omitted, Abs format (unit mm)*
G04 Created by KiCad (PCBNEW 6.0.8) date 2024-03-27 11:01:58*
%MOMM*%
%LPD*%
G01*
G04 APERTURE LIST*
%ADD10C,0.150000*%
%ADD11C,0.120000*%
G04 APERTURE END LIST*
D10*
%TO.C,C5*%
X145983666Y-93775142D02*
X146031285Y-93822761D01*
X146174142Y-93870380D01*
X146269380Y-93870380D01*
X146412238Y-93822761D01*
X146507476Y-93727523D01*
X146555095Y-93632285D01*
X146602714Y-93441809D01*
X146602714Y-93298952D01*
X146555095Y-93108476D01*
X146507476Y-93013238D01*
X146412238Y-92918000D01*
X146269380Y-92870380D01*
X146174142Y-92870380D01*
X146031285Y-92918000D01*
X145983666Y-92965619D01*
X145078904Y-92870380D02*
X145555095Y-92870380D01*
X145602714Y-93346571D01*
X145555095Y-93298952D01*
X145459857Y-93251333D01*
X145221761Y-93251333D01*
X145126523Y-93298952D01*
X145078904Y-93346571D01*
X145031285Y-93441809D01*
X145031285Y-93679904D01*
X145078904Y-93775142D01*
X145126523Y-93822761D01*
X145221761Y-93870380D01*
X145459857Y-93870380D01*
X145555095Y-93822761D01*
X145602714Y-93775142D01*
X138577952Y-151909428D02*
X137816047Y-151909428D01*
X138577952Y-96029428D02*
X137816047Y-96029428D01*
X138197000Y-96410380D02*
X138197000Y-95648476D01*
D11*
X163597000Y-90878000D02*
X135657000Y-90878000D01*
X135657000Y-90878000D02*
X135657000Y-156918000D01*
X135657000Y-156918000D02*
X163597000Y-156918000D01*
X163597000Y-156918000D02*
X163597000Y-90878000D01*
%TD*%
M02*
