%TF.GenerationSoftware,KiCad,Pcbnew,6.0.8*%
%TF.CreationDate,2023-11-11T15:33:24-08:00*%
%TF.ProjectId,GracefulPSU,47726163-6566-4756-9c50-53552e6b6963,rev?*%
%TF.SameCoordinates,Original*%
%TF.FileFunction,Soldermask,Bot*%
%TF.FilePolarity,Negative*%
%FSLAX46Y46*%
G04 Gerber Fmt 4.6, Leading zero omitted, Abs format (unit mm)*
G04 Created by KiCad (PCBNEW 6.0.8) date 2023-11-11 15:33:24*
%MOMM*%
%LPD*%
G01*
G04 APERTURE LIST*
G04 Aperture macros list*
%AMRoundRect*
0 Rectangle with rounded corners*
0 $1 Rounding radius*
0 $2 $3 $4 $5 $6 $7 $8 $9 X,Y pos of 4 corners*
0 Add a 4 corners polygon primitive as box body*
4,1,4,$2,$3,$4,$5,$6,$7,$8,$9,$2,$3,0*
0 Add four circle primitives for the rounded corners*
1,1,$1+$1,$2,$3*
1,1,$1+$1,$4,$5*
1,1,$1+$1,$6,$7*
1,1,$1+$1,$8,$9*
0 Add four rect primitives between the rounded corners*
20,1,$1+$1,$2,$3,$4,$5,0*
20,1,$1+$1,$4,$5,$6,$7,0*
20,1,$1+$1,$6,$7,$8,$9,0*
20,1,$1+$1,$8,$9,$2,$3,0*%
G04 Aperture macros list end*
%ADD10C,1.700000*%
%ADD11C,1.600000*%
%ADD12O,1.600000X1.600000*%
%ADD13R,1.905000X2.000000*%
%ADD14O,1.905000X2.000000*%
%ADD15R,1.600000X1.600000*%
%ADD16R,1.800000X1.800000*%
%ADD17O,1.800000X1.800000*%
%ADD18C,6.000000*%
%ADD19RoundRect,0.675000X-0.675000X-0.675000X0.675000X-0.675000X0.675000X0.675000X-0.675000X0.675000X0*%
%ADD20R,2.000000X1.905000*%
%ADD21O,2.000000X1.905000*%
%ADD22RoundRect,0.425000X0.425000X-0.425000X0.425000X0.425000X-0.425000X0.425000X-0.425000X-0.425000X0*%
%ADD23C,2.000000*%
%ADD24C,1.524000*%
%ADD25R,1.700000X1.700000*%
%ADD26O,1.700000X1.700000*%
%ADD27RoundRect,0.425000X-0.425000X-0.425000X0.425000X-0.425000X0.425000X0.425000X-0.425000X0.425000X0*%
G04 APERTURE END LIST*
D10*
%TO.C,JP4*%
X138924000Y-108585000D03*
%TD*%
%TO.C,JP3*%
X138924000Y-111125000D03*
%TD*%
%TO.C,JP2*%
X138924000Y-103505000D03*
%TD*%
%TO.C,JP1*%
X138924000Y-100965000D03*
%TD*%
D11*
%TO.C,C1*%
X127895000Y-90170000D03*
X130395000Y-90170000D03*
%TD*%
%TO.C,R13*%
X155942000Y-60071000D03*
D12*
X166102000Y-60071000D03*
%TD*%
D13*
%TO.C,Q1*%
X171450000Y-60000000D03*
D14*
X173990000Y-60000000D03*
X176530000Y-60000000D03*
%TD*%
D15*
%TO.C,C8*%
X109460000Y-53975000D03*
D11*
X111460000Y-53975000D03*
%TD*%
%TO.C,R8*%
X120890000Y-123825000D03*
D12*
X131050000Y-123825000D03*
%TD*%
D11*
%TO.C,R22*%
X129780000Y-70485000D03*
D12*
X119620000Y-70485000D03*
%TD*%
D11*
%TO.C,C4*%
X112000000Y-97155000D03*
X109500000Y-97155000D03*
%TD*%
%TO.C,R17*%
X115810000Y-113665000D03*
D12*
X115810000Y-123825000D03*
%TD*%
D11*
%TO.C,R1*%
X120890000Y-103505000D03*
D12*
X131050000Y-103505000D03*
%TD*%
D16*
%TO.C,D2*%
X136130000Y-118745000D03*
D17*
X136130000Y-126365000D03*
%TD*%
D11*
%TO.C,R14*%
X165975000Y-55245000D03*
D12*
X155815000Y-55245000D03*
%TD*%
D11*
%TO.C,C3*%
X130395000Y-85090000D03*
X127895000Y-85090000D03*
%TD*%
%TO.C,R28*%
X127240000Y-57150000D03*
D12*
X137400000Y-57150000D03*
%TD*%
D16*
%TO.C,D8*%
X98665000Y-125730000D03*
D17*
X106285000Y-125730000D03*
%TD*%
D18*
%TO.C,H5*%
X100330000Y-118745000D03*
%TD*%
D11*
%TO.C,R5*%
X131050000Y-118745000D03*
D12*
X131050000Y-108585000D03*
%TD*%
D18*
%TO.C,H2*%
X181610000Y-42545000D03*
%TD*%
D11*
%TO.C,R11*%
X123430000Y-92710000D03*
D12*
X113270000Y-92710000D03*
%TD*%
D11*
%TO.C,R23*%
X109460000Y-79375000D03*
D12*
X119620000Y-79375000D03*
%TD*%
D11*
%TO.C,R27*%
X109460000Y-88265000D03*
D12*
X119620000Y-88265000D03*
%TD*%
D16*
%TO.C,D9*%
X98665000Y-112395000D03*
D17*
X106285000Y-112395000D03*
%TD*%
D19*
%TO.C,J11*%
X183515000Y-55245000D03*
%TD*%
D11*
%TO.C,R21*%
X119620000Y-75565000D03*
D12*
X129780000Y-75565000D03*
%TD*%
D19*
%TO.C,J12*%
X183515000Y-61595000D03*
%TD*%
D11*
%TO.C,R25*%
X104380000Y-76200000D03*
D12*
X104380000Y-86360000D03*
%TD*%
D11*
%TO.C,R2*%
X110730000Y-128905000D03*
D12*
X110730000Y-139065000D03*
%TD*%
D20*
%TO.C,Q3*%
X175260000Y-50165000D03*
D21*
X175260000Y-47625000D03*
X175260000Y-45085000D03*
%TD*%
D11*
%TO.C,R3*%
X125970000Y-118745000D03*
D12*
X125970000Y-108585000D03*
%TD*%
D19*
%TO.C,J3*%
X167880000Y-139065000D03*
%TD*%
D16*
%TO.C,D4*%
X136765000Y-131445000D03*
D17*
X136765000Y-139065000D03*
%TD*%
D11*
%TO.C,R30*%
X134620000Y-40640000D03*
D12*
X144780000Y-40640000D03*
%TD*%
D11*
%TO.C,R20*%
X99300000Y-86360000D03*
D12*
X99300000Y-76200000D03*
%TD*%
D15*
%TO.C,C10*%
X122160000Y-53975000D03*
D11*
X120160000Y-53975000D03*
%TD*%
%TO.C,R19*%
X99300000Y-107315000D03*
D12*
X99300000Y-97155000D03*
%TD*%
D18*
%TO.C,H1*%
X100330000Y-42545000D03*
%TD*%
D11*
%TO.C,R6*%
X115810000Y-139065000D03*
D12*
X115810000Y-128905000D03*
%TD*%
D16*
%TO.C,D1*%
X141210000Y-118745000D03*
D17*
X141210000Y-126365000D03*
%TD*%
D11*
%TO.C,C9*%
X127895000Y-80391000D03*
X130395000Y-80391000D03*
%TD*%
D18*
%TO.C,H7*%
X100330000Y-137795000D03*
%TD*%
D22*
%TO.C,J7*%
X103110000Y-53975000D03*
%TD*%
D11*
%TO.C,R29*%
X134620000Y-45085000D03*
D12*
X144780000Y-45085000D03*
%TD*%
D23*
%TO.C,C7*%
X113230000Y-61595000D03*
X108230000Y-61595000D03*
%TD*%
D16*
%TO.C,D12*%
X104380000Y-104775000D03*
D17*
X104380000Y-97155000D03*
%TD*%
D15*
%TO.C,C13*%
X165100000Y-42027349D03*
D11*
X165100000Y-44527349D03*
%TD*%
D24*
%TO.C,C5*%
X159385000Y-128270000D03*
X159385000Y-67310000D03*
X182245000Y-67310000D03*
X182245000Y-128270000D03*
%TD*%
D19*
%TO.C,J2*%
X149955000Y-139065000D03*
%TD*%
D18*
%TO.C,H6*%
X148590000Y-118745000D03*
%TD*%
D19*
%TO.C,J10*%
X183515000Y-49530000D03*
%TD*%
D22*
%TO.C,J9*%
X98425000Y-49657000D03*
%TD*%
D11*
%TO.C,R15*%
X152640000Y-53975000D03*
D12*
X142480000Y-53975000D03*
%TD*%
D25*
%TO.C,J5*%
X142240000Y-65405000D03*
D26*
X144780000Y-65405000D03*
X142240000Y-67945000D03*
X144780000Y-67945000D03*
X142240000Y-70485000D03*
X144780000Y-70485000D03*
X142240000Y-73025000D03*
X144780000Y-73025000D03*
X142240000Y-75565000D03*
X144780000Y-75565000D03*
X142240000Y-78105000D03*
X144780000Y-78105000D03*
X142240000Y-80645000D03*
X144780000Y-80645000D03*
X142240000Y-83185000D03*
X144780000Y-83185000D03*
X142240000Y-85725000D03*
X144780000Y-85725000D03*
X142240000Y-88265000D03*
X144780000Y-88265000D03*
X142240000Y-90805000D03*
X144780000Y-90805000D03*
X142240000Y-93345000D03*
X144780000Y-93345000D03*
X142240000Y-95885000D03*
X144780000Y-95885000D03*
X142240000Y-98425000D03*
X144780000Y-98425000D03*
X142240000Y-100965000D03*
X144780000Y-100965000D03*
X142240000Y-103505000D03*
X144780000Y-103505000D03*
X142240000Y-106045000D03*
X144780000Y-106045000D03*
X142240000Y-108585000D03*
X144780000Y-108585000D03*
X142240000Y-111125000D03*
X144780000Y-111125000D03*
X142240000Y-113665000D03*
X144780000Y-113665000D03*
%TD*%
D22*
%TO.C,J6*%
X98425000Y-53975000D03*
%TD*%
D23*
%TO.C,C6*%
X101840000Y-71715000D03*
X101840000Y-66715000D03*
%TD*%
D24*
%TO.C,C2*%
X132604000Y-137795000D03*
X132604000Y-135255000D03*
%TD*%
D19*
%TO.C,J1*%
X141845000Y-139065000D03*
%TD*%
D23*
%TO.C,C11*%
X130455000Y-52070000D03*
X135455000Y-52070000D03*
%TD*%
D11*
%TO.C,R24*%
X110095000Y-65405000D03*
D12*
X110095000Y-75565000D03*
%TD*%
D11*
%TO.C,R7*%
X120890000Y-108585000D03*
D12*
X120890000Y-118745000D03*
%TD*%
D11*
%TO.C,C12*%
X130415000Y-44450000D03*
X130415000Y-46950000D03*
%TD*%
D18*
%TO.C,H4*%
X148590000Y-60325000D03*
%TD*%
D11*
%TO.C,R16*%
X110730000Y-123825000D03*
D12*
X110730000Y-113665000D03*
%TD*%
D16*
%TO.C,D10*%
X137400000Y-83185000D03*
D17*
X137400000Y-90805000D03*
%TD*%
D27*
%TO.C,J8*%
X103110000Y-49530000D03*
%TD*%
D18*
%TO.C,H8*%
X181610000Y-137795000D03*
%TD*%
D11*
%TO.C,R26*%
X119620000Y-83820000D03*
D12*
X109460000Y-83820000D03*
%TD*%
D11*
%TO.C,R18*%
X117080000Y-97155000D03*
D12*
X127240000Y-97155000D03*
%TD*%
D18*
%TO.C,H3*%
X100330000Y-60325000D03*
%TD*%
D16*
%TO.C,D5*%
X106285000Y-131445000D03*
D17*
X98665000Y-131445000D03*
%TD*%
D11*
%TO.C,R4*%
X131050000Y-128905000D03*
D12*
X120890000Y-128905000D03*
%TD*%
D16*
%TO.C,D11*%
X115175000Y-65405000D03*
D17*
X115175000Y-73025000D03*
%TD*%
D11*
%TO.C,R9*%
X136130000Y-67945000D03*
D12*
X136130000Y-78105000D03*
%TD*%
D25*
%TO.C,J4*%
X147320000Y-65410000D03*
D26*
X149860000Y-65410000D03*
X147320000Y-67950000D03*
X149860000Y-67950000D03*
X147320000Y-70490000D03*
X149860000Y-70490000D03*
X147320000Y-73030000D03*
X149860000Y-73030000D03*
X147320000Y-75570000D03*
X149860000Y-75570000D03*
X147320000Y-78110000D03*
X149860000Y-78110000D03*
X147320000Y-80650000D03*
X149860000Y-80650000D03*
X147320000Y-83190000D03*
X149860000Y-83190000D03*
X147320000Y-85730000D03*
X149860000Y-85730000D03*
X147320000Y-88270000D03*
X149860000Y-88270000D03*
X147320000Y-90810000D03*
X149860000Y-90810000D03*
X147320000Y-93350000D03*
X149860000Y-93350000D03*
X147320000Y-95890000D03*
X149860000Y-95890000D03*
X147320000Y-98430000D03*
X149860000Y-98430000D03*
X147320000Y-100970000D03*
X149860000Y-100970000D03*
X147320000Y-103510000D03*
X149860000Y-103510000D03*
X147320000Y-106050000D03*
X149860000Y-106050000D03*
X147320000Y-108590000D03*
X149860000Y-108590000D03*
X147320000Y-111130000D03*
X149860000Y-111130000D03*
X147320000Y-113670000D03*
X149860000Y-113670000D03*
%TD*%
D11*
%TO.C,R10*%
X99300000Y-92710000D03*
D12*
X109460000Y-92710000D03*
%TD*%
D11*
%TO.C,R12*%
X146290000Y-125095000D03*
D12*
X156450000Y-125095000D03*
%TD*%
D16*
%TO.C,D3*%
X141845000Y-131445000D03*
D17*
X149465000Y-131445000D03*
%TD*%
M02*
