M48
; DRILL file {KiCad 6.0.8} date Wed 27 Mar 2024 11:51:25 AM
; FORMAT={-:-/ absolute / metric / decimal}
; #@! TF.CreationDate,2024-03-27T11:51:25-07:00
; #@! TF.GenerationSoftware,Kicad,Pcbnew,6.0.8
; #@! TF.FileFunction,Plated,1,2,PTH
FMAT,2
METRIC
; #@! TA.AperFunction,Plated,PTH,ViaDrill
T1C0.400
; #@! TA.AperFunction,Plated,PTH,ViaDrill
T2C0.600
; #@! TA.AperFunction,Plated,PTH,ComponentDrill
T3C0.762
; #@! TA.AperFunction,Plated,PTH,ComponentDrill
T4C0.800
; #@! TA.AperFunction,Plated,PTH,ComponentDrill
T5C0.900
; #@! TA.AperFunction,Plated,PTH,ComponentDrill
T6C1.000
; #@! TA.AperFunction,Plated,PTH,ComponentDrill
T7C1.100
; #@! TA.AperFunction,Plated,PTH,ComponentDrill
T8C1.600
; #@! TA.AperFunction,Plated,PTH,ComponentDrill
T9C2.750
%
G90
G05
T1
X106.447Y-109.928
X107.717Y-103.578
T2
X133.59Y-97.409
T3
X66.793Y-94.688
X66.793Y-97.228
X76.127Y-161.831
X81.047Y-161.998
X117.877Y-83.258
X118.35Y-87.503
X118.35Y-90.043
X122.957Y-83.258
X138.197Y-93.418
X138.197Y-154.378
X152.29Y-93.42
X152.29Y-150.42
X156.79Y-93.42
X156.79Y-150.42
X161.057Y-93.418
X161.057Y-154.378
T4
X66.997Y-123.648
X67.077Y-127.708
X67.157Y-131.768
X67.204Y-135.582
X70.807Y-154.128
X72.237Y-119.068
X74.312Y-102.228
X74.312Y-112.388
X77.157Y-123.648
X77.237Y-127.708
X77.317Y-131.768
X77.364Y-135.582
X77.792Y-113.738
X78.427Y-108.408
X79.697Y-103.328
X80.797Y-139.218
X80.797Y-149.378
X80.967Y-154.128
X82.357Y-125.168
X82.397Y-119.068
X84.777Y-154.128
X84.857Y-125.168
X84.937Y-159.708
X85.107Y-139.058
X85.107Y-149.218
X87.317Y-118.568
X87.952Y-113.738
X88.587Y-108.408
X88.917Y-139.058
X88.917Y-149.218
X89.857Y-103.328
X92.227Y-123.978
X92.227Y-134.138
X92.727Y-139.058
X92.727Y-149.218
X94.937Y-154.128
X95.097Y-159.708
X95.402Y-92.863
X95.402Y-103.023
X95.572Y-105.868
X97.477Y-118.568
X97.807Y-136.518
X97.807Y-146.678
X100.017Y-102.058
X100.017Y-161.748
X102.557Y-83.008
X102.637Y-144.258
X102.637Y-146.758
X102.637Y-152.473
X102.637Y-154.973
X105.427Y-114.928
X105.427Y-125.088
X105.427Y-128.898
X105.427Y-139.058
X105.732Y-105.868
X106.697Y-88.258
X106.697Y-98.418
X110.177Y-102.058
X110.177Y-161.748
X112.717Y-83.008
X112.762Y-87.703
X115.262Y-87.703
X121.398Y-102.489
X124.147Y-155.398
X131.558Y-102.489
X134.307Y-155.398
X137.4Y-102.235
X137.4Y-104.735
X139.305Y-130.81
X139.428Y-134.921
X139.428Y-145.081
X149.465Y-130.81
T5
X67.047Y-140.558
X67.047Y-145.638
X68.197Y-108.628
X68.197Y-116.248
X74.667Y-140.558
X74.667Y-145.638
X74.847Y-82.018
X74.847Y-89.638
X81.017Y-83.408
X81.017Y-88.742
X83.557Y-98.648
X83.617Y-93.268
X88.637Y-83.408
X88.637Y-88.742
X91.177Y-98.648
X91.237Y-93.268
X92.447Y-88.488
X97.407Y-124.503
X97.407Y-132.123
X100.067Y-88.488
X110.862Y-93.568
X118.482Y-93.568
T6
X92.517Y-83.258
X97.517Y-83.258
X101.367Y-92.823
X101.367Y-97.823
X107.082Y-143.329
X107.082Y-145.869
X107.082Y-149.298
X107.082Y-152.473
X110.384Y-107.769
X110.384Y-110.309
X110.384Y-112.849
X110.384Y-115.389
X110.384Y-117.929
X110.384Y-120.469
X110.384Y-123.009
X110.384Y-125.549
X110.384Y-128.089
X110.384Y-130.629
X110.384Y-133.169
X110.384Y-135.709
X110.384Y-138.249
X110.384Y-140.789
X110.384Y-143.329
X110.384Y-145.869
X110.384Y-148.409
X110.384Y-150.949
X110.384Y-153.489
X110.384Y-156.029
X112.924Y-107.769
X112.924Y-110.309
X112.924Y-112.849
X112.924Y-115.389
X112.924Y-117.929
X112.924Y-120.469
X112.924Y-123.009
X112.924Y-125.549
X112.924Y-128.089
X112.924Y-130.629
X112.924Y-133.169
X112.924Y-135.709
X112.924Y-138.249
X112.924Y-140.789
X112.924Y-143.329
X112.924Y-145.869
X112.924Y-148.409
X112.924Y-150.949
X112.924Y-153.489
X112.924Y-156.029
X115.464Y-107.774
X115.464Y-110.314
X115.464Y-112.854
X115.464Y-115.394
X115.464Y-117.934
X115.464Y-120.474
X115.464Y-123.014
X115.464Y-125.554
X115.464Y-128.094
X115.464Y-130.634
X115.464Y-133.174
X115.464Y-135.714
X115.464Y-138.254
X115.464Y-140.794
X115.464Y-143.334
X115.464Y-145.874
X115.464Y-148.414
X115.464Y-150.954
X115.464Y-153.494
X115.464Y-156.034
X118.004Y-107.774
X118.004Y-110.314
X118.004Y-112.854
X118.004Y-115.394
X118.004Y-117.934
X118.004Y-120.474
X118.004Y-123.014
X118.004Y-125.554
X118.004Y-128.094
X118.004Y-130.634
X118.004Y-133.174
X118.004Y-135.714
X118.004Y-138.254
X118.004Y-140.794
X118.004Y-143.334
X118.004Y-145.874
X118.004Y-148.414
X118.004Y-150.954
X118.004Y-153.494
X118.004Y-156.034
X137.654Y-121.325
X137.654Y-126.325
T7
X124.065Y-125.435
X124.065Y-149.565
X126.605Y-125.435
X126.605Y-149.565
X129.145Y-125.435
X129.145Y-149.565
T8
X126.767Y-161.998
X133.117Y-83.258
X136.292Y-161.998
X140.737Y-83.258
X145.817Y-161.998
X150.897Y-83.258
T9
X68.347Y-83.258
X68.474Y-102.689
X68.474Y-161.109
X116.734Y-102.689
X116.734Y-161.109
X159.625Y-83.185
X159.787Y-160.728
T0
M30
