%TF.GenerationSoftware,KiCad,Pcbnew,6.0.8*%
%TF.CreationDate,2024-03-27T11:51:23-07:00*%
%TF.ProjectId,GracefulPSU,47726163-6566-4756-9c50-53552e6b6963,rev?*%
%TF.SameCoordinates,Original*%
%TF.FileFunction,Drillmap*%
%TF.FilePolarity,Positive*%
%FSLAX45Y45*%
G04 Gerber Fmt 4.5, Leading zero omitted, Abs format (unit mm)*
G04 Created by KiCad (PCBNEW 6.0.8) date 2024-03-27 11:51:23*
%MOMM*%
%LPD*%
G01*
G04 APERTURE LIST*
%ADD10C,0.100000*%
%ADD11C,0.200000*%
%ADD12C,0.040000*%
%ADD13C,0.060000*%
%ADD14C,0.076200*%
%ADD15C,0.080000*%
%ADD16C,0.090000*%
%ADD17C,0.110000*%
%ADD18C,0.160000*%
%ADD19C,0.275000*%
G04 APERTURE END LIST*
D10*
X16410500Y-7919400D02*
X6426900Y-7919400D01*
X6426900Y-7919400D02*
X6426900Y-16580800D01*
X6426900Y-16580800D02*
X16410500Y-16580800D01*
X16410500Y-16580800D02*
X16410500Y-7919400D01*
D11*
D12*
X10624700Y-10972800D02*
X10664700Y-11012800D01*
X10664700Y-10972800D02*
X10624700Y-11012800D01*
X10751700Y-10337800D02*
X10791700Y-10377800D01*
X10791700Y-10337800D02*
X10751700Y-10377800D01*
D13*
X13389000Y-9740900D02*
G75*
G03*
X13389000Y-9740900I-30000J0D01*
G01*
D14*
X6679300Y-9430700D02*
X6679300Y-9506900D01*
X6641200Y-9468800D02*
X6717400Y-9468800D01*
X6679300Y-9684700D02*
X6679300Y-9760900D01*
X6641200Y-9722800D02*
X6717400Y-9722800D01*
X7612700Y-16145000D02*
X7612700Y-16221200D01*
X7574600Y-16183100D02*
X7650800Y-16183100D01*
X8104700Y-16161700D02*
X8104700Y-16237900D01*
X8066600Y-16199800D02*
X8142800Y-16199800D01*
X11787700Y-8287700D02*
X11787700Y-8363900D01*
X11749600Y-8325800D02*
X11825800Y-8325800D01*
X11835000Y-8712200D02*
X11835000Y-8788400D01*
X11796900Y-8750300D02*
X11873100Y-8750300D01*
X11835000Y-8966200D02*
X11835000Y-9042400D01*
X11796900Y-9004300D02*
X11873100Y-9004300D01*
X12295700Y-8287700D02*
X12295700Y-8363900D01*
X12257600Y-8325800D02*
X12333800Y-8325800D01*
X13819700Y-9303700D02*
X13819700Y-9379900D01*
X13781600Y-9341800D02*
X13857800Y-9341800D01*
X13819700Y-15399700D02*
X13819700Y-15475900D01*
X13781600Y-15437800D02*
X13857800Y-15437800D01*
X15229000Y-9303900D02*
X15229000Y-9380100D01*
X15190900Y-9342000D02*
X15267100Y-9342000D01*
X15229000Y-15003900D02*
X15229000Y-15080100D01*
X15190900Y-15042000D02*
X15267100Y-15042000D01*
X15679000Y-9303900D02*
X15679000Y-9380100D01*
X15640900Y-9342000D02*
X15717100Y-9342000D01*
X15679000Y-15003900D02*
X15679000Y-15080100D01*
X15640900Y-15042000D02*
X15717100Y-15042000D01*
X16105700Y-9303700D02*
X16105700Y-9379900D01*
X16067600Y-9341800D02*
X16143800Y-9341800D01*
X16105700Y-15399700D02*
X16105700Y-15475900D01*
X16067600Y-15437800D02*
X16143800Y-15437800D01*
D15*
X6727984Y-12393084D02*
X6727984Y-12336515D01*
X6671415Y-12336515D01*
X6671415Y-12393084D01*
X6727984Y-12393084D01*
X6735984Y-12799084D02*
X6735984Y-12742515D01*
X6679415Y-12742515D01*
X6679415Y-12799084D01*
X6735984Y-12799084D01*
X6743984Y-13205084D02*
X6743984Y-13148515D01*
X6687415Y-13148515D01*
X6687415Y-13205084D01*
X6743984Y-13205084D01*
X6748684Y-13586484D02*
X6748684Y-13529915D01*
X6692115Y-13529915D01*
X6692115Y-13586484D01*
X6748684Y-13586484D01*
X7108984Y-15441084D02*
X7108984Y-15384515D01*
X7052415Y-15384515D01*
X7052415Y-15441084D01*
X7108984Y-15441084D01*
X7251984Y-11935084D02*
X7251984Y-11878515D01*
X7195415Y-11878515D01*
X7195415Y-11935084D01*
X7251984Y-11935084D01*
X7459484Y-10251085D02*
X7459484Y-10194516D01*
X7402915Y-10194516D01*
X7402915Y-10251085D01*
X7459484Y-10251085D01*
X7459484Y-11267084D02*
X7459484Y-11210515D01*
X7402915Y-11210515D01*
X7402915Y-11267084D01*
X7459484Y-11267084D01*
X7743984Y-12393084D02*
X7743984Y-12336515D01*
X7687415Y-12336515D01*
X7687415Y-12393084D01*
X7743984Y-12393084D01*
X7751984Y-12799084D02*
X7751984Y-12742515D01*
X7695415Y-12742515D01*
X7695415Y-12799084D01*
X7751984Y-12799084D01*
X7759984Y-13205084D02*
X7759984Y-13148515D01*
X7703415Y-13148515D01*
X7703415Y-13205084D01*
X7759984Y-13205084D01*
X7764684Y-13586484D02*
X7764684Y-13529915D01*
X7708115Y-13529915D01*
X7708115Y-13586484D01*
X7764684Y-13586484D01*
X7807484Y-11402084D02*
X7807484Y-11345515D01*
X7750915Y-11345515D01*
X7750915Y-11402084D01*
X7807484Y-11402084D01*
X7870984Y-10869085D02*
X7870984Y-10812516D01*
X7814415Y-10812516D01*
X7814415Y-10869085D01*
X7870984Y-10869085D01*
X7997984Y-10361085D02*
X7997984Y-10304516D01*
X7941415Y-10304516D01*
X7941415Y-10361085D01*
X7997984Y-10361085D01*
X8107984Y-13950084D02*
X8107984Y-13893515D01*
X8051415Y-13893515D01*
X8051415Y-13950084D01*
X8107984Y-13950084D01*
X8107984Y-14966084D02*
X8107984Y-14909515D01*
X8051415Y-14909515D01*
X8051415Y-14966084D01*
X8107984Y-14966084D01*
X8124984Y-15441084D02*
X8124984Y-15384515D01*
X8068415Y-15384515D01*
X8068415Y-15441084D01*
X8124984Y-15441084D01*
X8263984Y-12545084D02*
X8263984Y-12488515D01*
X8207415Y-12488515D01*
X8207415Y-12545084D01*
X8263984Y-12545084D01*
X8267984Y-11935084D02*
X8267984Y-11878515D01*
X8211415Y-11878515D01*
X8211415Y-11935084D01*
X8267984Y-11935084D01*
X8505985Y-15441084D02*
X8505985Y-15384515D01*
X8449416Y-15384515D01*
X8449416Y-15441084D01*
X8505985Y-15441084D01*
X8513985Y-12545084D02*
X8513985Y-12488515D01*
X8457416Y-12488515D01*
X8457416Y-12545084D01*
X8513985Y-12545084D01*
X8521985Y-15999084D02*
X8521985Y-15942515D01*
X8465416Y-15942515D01*
X8465416Y-15999084D01*
X8521985Y-15999084D01*
X8538985Y-13934084D02*
X8538985Y-13877515D01*
X8482416Y-13877515D01*
X8482416Y-13934084D01*
X8538985Y-13934084D01*
X8538985Y-14950084D02*
X8538985Y-14893515D01*
X8482416Y-14893515D01*
X8482416Y-14950084D01*
X8538985Y-14950084D01*
X8759985Y-11885084D02*
X8759985Y-11828515D01*
X8703416Y-11828515D01*
X8703416Y-11885084D01*
X8759985Y-11885084D01*
X8823485Y-11402084D02*
X8823485Y-11345515D01*
X8766916Y-11345515D01*
X8766916Y-11402084D01*
X8823485Y-11402084D01*
X8886985Y-10869085D02*
X8886985Y-10812516D01*
X8830416Y-10812516D01*
X8830416Y-10869085D01*
X8886985Y-10869085D01*
X8919985Y-13934084D02*
X8919985Y-13877515D01*
X8863416Y-13877515D01*
X8863416Y-13934084D01*
X8919985Y-13934084D01*
X8919985Y-14950084D02*
X8919985Y-14893515D01*
X8863416Y-14893515D01*
X8863416Y-14950084D01*
X8919985Y-14950084D01*
X9013985Y-10361085D02*
X9013985Y-10304516D01*
X8957416Y-10304516D01*
X8957416Y-10361085D01*
X9013985Y-10361085D01*
X9250985Y-12426084D02*
X9250985Y-12369515D01*
X9194416Y-12369515D01*
X9194416Y-12426084D01*
X9250985Y-12426084D01*
X9250985Y-13442084D02*
X9250985Y-13385515D01*
X9194416Y-13385515D01*
X9194416Y-13442084D01*
X9250985Y-13442084D01*
X9300985Y-13934084D02*
X9300985Y-13877515D01*
X9244416Y-13877515D01*
X9244416Y-13934084D01*
X9300985Y-13934084D01*
X9300985Y-14950084D02*
X9300985Y-14893515D01*
X9244416Y-14893515D01*
X9244416Y-14950084D01*
X9300985Y-14950084D01*
X9521985Y-15441084D02*
X9521985Y-15384515D01*
X9465416Y-15384515D01*
X9465416Y-15441084D01*
X9521985Y-15441084D01*
X9537985Y-15999084D02*
X9537985Y-15942515D01*
X9481416Y-15942515D01*
X9481416Y-15999084D01*
X9537985Y-15999084D01*
X9568485Y-9314585D02*
X9568485Y-9258016D01*
X9511916Y-9258016D01*
X9511916Y-9314585D01*
X9568485Y-9314585D01*
X9568485Y-10330585D02*
X9568485Y-10274016D01*
X9511916Y-10274016D01*
X9511916Y-10330585D01*
X9568485Y-10330585D01*
X9585485Y-10615085D02*
X9585485Y-10558516D01*
X9528916Y-10558516D01*
X9528916Y-10615085D01*
X9585485Y-10615085D01*
X9775985Y-11885084D02*
X9775985Y-11828515D01*
X9719416Y-11828515D01*
X9719416Y-11885084D01*
X9775985Y-11885084D01*
X9808985Y-13680084D02*
X9808985Y-13623515D01*
X9752416Y-13623515D01*
X9752416Y-13680084D01*
X9808985Y-13680084D01*
X9808985Y-14696084D02*
X9808985Y-14639515D01*
X9752416Y-14639515D01*
X9752416Y-14696084D01*
X9808985Y-14696084D01*
X10029985Y-10234085D02*
X10029985Y-10177516D01*
X9973416Y-10177516D01*
X9973416Y-10234085D01*
X10029985Y-10234085D01*
X10029985Y-16203084D02*
X10029985Y-16146515D01*
X9973416Y-16146515D01*
X9973416Y-16203084D01*
X10029985Y-16203084D01*
X10283985Y-8329084D02*
X10283985Y-8272515D01*
X10227416Y-8272515D01*
X10227416Y-8329084D01*
X10283985Y-8329084D01*
X10291985Y-14454084D02*
X10291985Y-14397515D01*
X10235416Y-14397515D01*
X10235416Y-14454084D01*
X10291985Y-14454084D01*
X10291985Y-14704084D02*
X10291985Y-14647515D01*
X10235416Y-14647515D01*
X10235416Y-14704084D01*
X10291985Y-14704084D01*
X10291985Y-15275584D02*
X10291985Y-15219015D01*
X10235416Y-15219015D01*
X10235416Y-15275584D01*
X10291985Y-15275584D01*
X10291985Y-15525584D02*
X10291985Y-15469015D01*
X10235416Y-15469015D01*
X10235416Y-15525584D01*
X10291985Y-15525584D01*
X10570985Y-11521084D02*
X10570985Y-11464515D01*
X10514416Y-11464515D01*
X10514416Y-11521084D01*
X10570985Y-11521084D01*
X10570985Y-12537084D02*
X10570985Y-12480515D01*
X10514416Y-12480515D01*
X10514416Y-12537084D01*
X10570985Y-12537084D01*
X10570985Y-12918084D02*
X10570985Y-12861515D01*
X10514416Y-12861515D01*
X10514416Y-12918084D01*
X10570985Y-12918084D01*
X10570985Y-13934084D02*
X10570985Y-13877515D01*
X10514416Y-13877515D01*
X10514416Y-13934084D01*
X10570985Y-13934084D01*
X10601485Y-10615085D02*
X10601485Y-10558516D01*
X10544916Y-10558516D01*
X10544916Y-10615085D01*
X10601485Y-10615085D01*
X10697985Y-8854085D02*
X10697985Y-8797516D01*
X10641416Y-8797516D01*
X10641416Y-8854085D01*
X10697985Y-8854085D01*
X10697985Y-9870085D02*
X10697985Y-9813516D01*
X10641416Y-9813516D01*
X10641416Y-9870085D01*
X10697985Y-9870085D01*
X11045985Y-10234085D02*
X11045985Y-10177516D01*
X10989416Y-10177516D01*
X10989416Y-10234085D01*
X11045985Y-10234085D01*
X11045985Y-16203084D02*
X11045985Y-16146515D01*
X10989416Y-16146515D01*
X10989416Y-16203084D01*
X11045985Y-16203084D01*
X11299984Y-8329084D02*
X11299984Y-8272515D01*
X11243415Y-8272515D01*
X11243415Y-8329084D01*
X11299984Y-8329084D01*
X11304484Y-8798585D02*
X11304484Y-8742016D01*
X11247915Y-8742016D01*
X11247915Y-8798585D01*
X11304484Y-8798585D01*
X11554484Y-8798585D02*
X11554484Y-8742016D01*
X11497915Y-8742016D01*
X11497915Y-8798585D01*
X11554484Y-8798585D01*
X12168084Y-10277185D02*
X12168084Y-10220616D01*
X12111515Y-10220616D01*
X12111515Y-10277185D01*
X12168084Y-10277185D01*
X12442984Y-15568084D02*
X12442984Y-15511515D01*
X12386415Y-15511515D01*
X12386415Y-15568084D01*
X12442984Y-15568084D01*
X13184084Y-10277185D02*
X13184084Y-10220616D01*
X13127515Y-10220616D01*
X13127515Y-10277185D01*
X13184084Y-10277185D01*
X13458984Y-15568084D02*
X13458984Y-15511515D01*
X13402415Y-15511515D01*
X13402415Y-15568084D01*
X13458984Y-15568084D01*
X13768284Y-10251785D02*
X13768284Y-10195216D01*
X13711715Y-10195216D01*
X13711715Y-10251785D01*
X13768284Y-10251785D01*
X13768284Y-10501785D02*
X13768284Y-10445216D01*
X13711715Y-10445216D01*
X13711715Y-10501785D01*
X13768284Y-10501785D01*
X13958784Y-13109284D02*
X13958784Y-13052715D01*
X13902215Y-13052715D01*
X13902215Y-13109284D01*
X13958784Y-13109284D01*
X13971084Y-13520384D02*
X13971084Y-13463815D01*
X13914515Y-13463815D01*
X13914515Y-13520384D01*
X13971084Y-13520384D01*
X13971084Y-14536384D02*
X13971084Y-14479815D01*
X13914515Y-14479815D01*
X13914515Y-14536384D01*
X13971084Y-14536384D01*
X14974784Y-13109284D02*
X14974784Y-13052715D01*
X14918215Y-13052715D01*
X14918215Y-13109284D01*
X14974784Y-13109284D01*
D16*
X6704700Y-14100800D02*
X6749700Y-14055800D01*
X6704700Y-14010800D01*
X6659700Y-14055800D01*
X6704700Y-14100800D01*
X6704700Y-14608800D02*
X6749700Y-14563800D01*
X6704700Y-14518800D01*
X6659700Y-14563800D01*
X6704700Y-14608800D01*
X6819700Y-10907800D02*
X6864700Y-10862800D01*
X6819700Y-10817800D01*
X6774700Y-10862800D01*
X6819700Y-10907800D01*
X6819700Y-11669800D02*
X6864700Y-11624800D01*
X6819700Y-11579800D01*
X6774700Y-11624800D01*
X6819700Y-11669800D01*
X7466700Y-14100800D02*
X7511700Y-14055800D01*
X7466700Y-14010800D01*
X7421700Y-14055800D01*
X7466700Y-14100800D01*
X7466700Y-14608800D02*
X7511700Y-14563800D01*
X7466700Y-14518800D01*
X7421700Y-14563800D01*
X7466700Y-14608800D01*
X7484700Y-8246800D02*
X7529700Y-8201800D01*
X7484700Y-8156800D01*
X7439700Y-8201800D01*
X7484700Y-8246800D01*
X7484700Y-9008800D02*
X7529700Y-8963800D01*
X7484700Y-8918800D01*
X7439700Y-8963800D01*
X7484700Y-9008800D01*
X8101700Y-8385800D02*
X8146700Y-8340800D01*
X8101700Y-8295800D01*
X8056700Y-8340800D01*
X8101700Y-8385800D01*
X8101700Y-8919200D02*
X8146700Y-8874200D01*
X8101700Y-8829200D01*
X8056700Y-8874200D01*
X8101700Y-8919200D01*
X8355700Y-9909800D02*
X8400700Y-9864800D01*
X8355700Y-9819800D01*
X8310700Y-9864800D01*
X8355700Y-9909800D01*
X8361700Y-9371800D02*
X8406700Y-9326800D01*
X8361700Y-9281800D01*
X8316700Y-9326800D01*
X8361700Y-9371800D01*
X8863700Y-8385800D02*
X8908700Y-8340800D01*
X8863700Y-8295800D01*
X8818700Y-8340800D01*
X8863700Y-8385800D01*
X8863700Y-8919200D02*
X8908700Y-8874200D01*
X8863700Y-8829200D01*
X8818700Y-8874200D01*
X8863700Y-8919200D01*
X9117700Y-9909800D02*
X9162700Y-9864800D01*
X9117700Y-9819800D01*
X9072700Y-9864800D01*
X9117700Y-9909800D01*
X9123700Y-9371800D02*
X9168700Y-9326800D01*
X9123700Y-9281800D01*
X9078700Y-9326800D01*
X9123700Y-9371800D01*
X9244700Y-8893800D02*
X9289700Y-8848800D01*
X9244700Y-8803800D01*
X9199700Y-8848800D01*
X9244700Y-8893800D01*
X9740700Y-12495300D02*
X9785700Y-12450300D01*
X9740700Y-12405300D01*
X9695700Y-12450300D01*
X9740700Y-12495300D01*
X9740700Y-13257300D02*
X9785700Y-13212300D01*
X9740700Y-13167300D01*
X9695700Y-13212300D01*
X9740700Y-13257300D01*
X10006700Y-8893800D02*
X10051700Y-8848800D01*
X10006700Y-8803800D01*
X9961700Y-8848800D01*
X10006700Y-8893800D01*
X11086200Y-9401800D02*
X11131200Y-9356800D01*
X11086200Y-9311800D01*
X11041200Y-9356800D01*
X11086200Y-9401800D01*
X11848200Y-9401800D02*
X11893200Y-9356800D01*
X11848200Y-9311800D01*
X11803200Y-9356800D01*
X11848200Y-9401800D01*
D10*
X9201700Y-8275800D02*
X9301700Y-8375800D01*
X9301700Y-8275800D02*
X9201700Y-8375800D01*
X9301700Y-8325800D02*
G75*
G03*
X9301700Y-8325800I-50000J0D01*
G01*
X9701700Y-8275800D02*
X9801700Y-8375800D01*
X9801700Y-8275800D02*
X9701700Y-8375800D01*
X9801700Y-8325800D02*
G75*
G03*
X9801700Y-8325800I-50000J0D01*
G01*
X10086700Y-9232300D02*
X10186700Y-9332300D01*
X10186700Y-9232300D02*
X10086700Y-9332300D01*
X10186700Y-9282300D02*
G75*
G03*
X10186700Y-9282300I-50000J0D01*
G01*
X10086700Y-9732300D02*
X10186700Y-9832300D01*
X10186700Y-9732300D02*
X10086700Y-9832300D01*
X10186700Y-9782300D02*
G75*
G03*
X10186700Y-9782300I-50000J0D01*
G01*
X10658200Y-14282900D02*
X10758200Y-14382900D01*
X10758200Y-14282900D02*
X10658200Y-14382900D01*
X10758200Y-14332900D02*
G75*
G03*
X10758200Y-14332900I-50000J0D01*
G01*
X10658200Y-14536900D02*
X10758200Y-14636900D01*
X10758200Y-14536900D02*
X10658200Y-14636900D01*
X10758200Y-14586900D02*
G75*
G03*
X10758200Y-14586900I-50000J0D01*
G01*
X10658200Y-14879800D02*
X10758200Y-14979800D01*
X10758200Y-14879800D02*
X10658200Y-14979800D01*
X10758200Y-14929800D02*
G75*
G03*
X10758200Y-14929800I-50000J0D01*
G01*
X10658200Y-15197300D02*
X10758200Y-15297300D01*
X10758200Y-15197300D02*
X10658200Y-15297300D01*
X10758200Y-15247300D02*
G75*
G03*
X10758200Y-15247300I-50000J0D01*
G01*
X10988400Y-10726900D02*
X11088400Y-10826900D01*
X11088400Y-10726900D02*
X10988400Y-10826900D01*
X11088400Y-10776900D02*
G75*
G03*
X11088400Y-10776900I-50000J0D01*
G01*
X10988400Y-10980900D02*
X11088400Y-11080900D01*
X11088400Y-10980900D02*
X10988400Y-11080900D01*
X11088400Y-11030900D02*
G75*
G03*
X11088400Y-11030900I-50000J0D01*
G01*
X10988400Y-11234900D02*
X11088400Y-11334900D01*
X11088400Y-11234900D02*
X10988400Y-11334900D01*
X11088400Y-11284900D02*
G75*
G03*
X11088400Y-11284900I-50000J0D01*
G01*
X10988400Y-11488900D02*
X11088400Y-11588900D01*
X11088400Y-11488900D02*
X10988400Y-11588900D01*
X11088400Y-11538900D02*
G75*
G03*
X11088400Y-11538900I-50000J0D01*
G01*
X10988400Y-11742900D02*
X11088400Y-11842900D01*
X11088400Y-11742900D02*
X10988400Y-11842900D01*
X11088400Y-11792900D02*
G75*
G03*
X11088400Y-11792900I-50000J0D01*
G01*
X10988400Y-11996900D02*
X11088400Y-12096900D01*
X11088400Y-11996900D02*
X10988400Y-12096900D01*
X11088400Y-12046900D02*
G75*
G03*
X11088400Y-12046900I-50000J0D01*
G01*
X10988400Y-12250900D02*
X11088400Y-12350900D01*
X11088400Y-12250900D02*
X10988400Y-12350900D01*
X11088400Y-12300900D02*
G75*
G03*
X11088400Y-12300900I-50000J0D01*
G01*
X10988400Y-12504900D02*
X11088400Y-12604900D01*
X11088400Y-12504900D02*
X10988400Y-12604900D01*
X11088400Y-12554900D02*
G75*
G03*
X11088400Y-12554900I-50000J0D01*
G01*
X10988400Y-12758900D02*
X11088400Y-12858900D01*
X11088400Y-12758900D02*
X10988400Y-12858900D01*
X11088400Y-12808900D02*
G75*
G03*
X11088400Y-12808900I-50000J0D01*
G01*
X10988400Y-13012900D02*
X11088400Y-13112900D01*
X11088400Y-13012900D02*
X10988400Y-13112900D01*
X11088400Y-13062900D02*
G75*
G03*
X11088400Y-13062900I-50000J0D01*
G01*
X10988400Y-13266900D02*
X11088400Y-13366900D01*
X11088400Y-13266900D02*
X10988400Y-13366900D01*
X11088400Y-13316900D02*
G75*
G03*
X11088400Y-13316900I-50000J0D01*
G01*
X10988400Y-13520900D02*
X11088400Y-13620900D01*
X11088400Y-13520900D02*
X10988400Y-13620900D01*
X11088400Y-13570900D02*
G75*
G03*
X11088400Y-13570900I-50000J0D01*
G01*
X10988400Y-13774900D02*
X11088400Y-13874900D01*
X11088400Y-13774900D02*
X10988400Y-13874900D01*
X11088400Y-13824900D02*
G75*
G03*
X11088400Y-13824900I-50000J0D01*
G01*
X10988400Y-14028900D02*
X11088400Y-14128900D01*
X11088400Y-14028900D02*
X10988400Y-14128900D01*
X11088400Y-14078900D02*
G75*
G03*
X11088400Y-14078900I-50000J0D01*
G01*
X10988400Y-14282900D02*
X11088400Y-14382900D01*
X11088400Y-14282900D02*
X10988400Y-14382900D01*
X11088400Y-14332900D02*
G75*
G03*
X11088400Y-14332900I-50000J0D01*
G01*
X10988400Y-14536900D02*
X11088400Y-14636900D01*
X11088400Y-14536900D02*
X10988400Y-14636900D01*
X11088400Y-14586900D02*
G75*
G03*
X11088400Y-14586900I-50000J0D01*
G01*
X10988400Y-14790900D02*
X11088400Y-14890900D01*
X11088400Y-14790900D02*
X10988400Y-14890900D01*
X11088400Y-14840900D02*
G75*
G03*
X11088400Y-14840900I-50000J0D01*
G01*
X10988400Y-15044900D02*
X11088400Y-15144900D01*
X11088400Y-15044900D02*
X10988400Y-15144900D01*
X11088400Y-15094900D02*
G75*
G03*
X11088400Y-15094900I-50000J0D01*
G01*
X10988400Y-15298900D02*
X11088400Y-15398900D01*
X11088400Y-15298900D02*
X10988400Y-15398900D01*
X11088400Y-15348900D02*
G75*
G03*
X11088400Y-15348900I-50000J0D01*
G01*
X10988400Y-15552900D02*
X11088400Y-15652900D01*
X11088400Y-15552900D02*
X10988400Y-15652900D01*
X11088400Y-15602900D02*
G75*
G03*
X11088400Y-15602900I-50000J0D01*
G01*
X11242400Y-10726900D02*
X11342400Y-10826900D01*
X11342400Y-10726900D02*
X11242400Y-10826900D01*
X11342400Y-10776900D02*
G75*
G03*
X11342400Y-10776900I-50000J0D01*
G01*
X11242400Y-10980900D02*
X11342400Y-11080900D01*
X11342400Y-10980900D02*
X11242400Y-11080900D01*
X11342400Y-11030900D02*
G75*
G03*
X11342400Y-11030900I-50000J0D01*
G01*
X11242400Y-11234900D02*
X11342400Y-11334900D01*
X11342400Y-11234900D02*
X11242400Y-11334900D01*
X11342400Y-11284900D02*
G75*
G03*
X11342400Y-11284900I-50000J0D01*
G01*
X11242400Y-11488900D02*
X11342400Y-11588900D01*
X11342400Y-11488900D02*
X11242400Y-11588900D01*
X11342400Y-11538900D02*
G75*
G03*
X11342400Y-11538900I-50000J0D01*
G01*
X11242400Y-11742900D02*
X11342400Y-11842900D01*
X11342400Y-11742900D02*
X11242400Y-11842900D01*
X11342400Y-11792900D02*
G75*
G03*
X11342400Y-11792900I-50000J0D01*
G01*
X11242400Y-11996900D02*
X11342400Y-12096900D01*
X11342400Y-11996900D02*
X11242400Y-12096900D01*
X11342400Y-12046900D02*
G75*
G03*
X11342400Y-12046900I-50000J0D01*
G01*
X11242400Y-12250900D02*
X11342400Y-12350900D01*
X11342400Y-12250900D02*
X11242400Y-12350900D01*
X11342400Y-12300900D02*
G75*
G03*
X11342400Y-12300900I-50000J0D01*
G01*
X11242400Y-12504900D02*
X11342400Y-12604900D01*
X11342400Y-12504900D02*
X11242400Y-12604900D01*
X11342400Y-12554900D02*
G75*
G03*
X11342400Y-12554900I-50000J0D01*
G01*
X11242400Y-12758900D02*
X11342400Y-12858900D01*
X11342400Y-12758900D02*
X11242400Y-12858900D01*
X11342400Y-12808900D02*
G75*
G03*
X11342400Y-12808900I-50000J0D01*
G01*
X11242400Y-13012900D02*
X11342400Y-13112900D01*
X11342400Y-13012900D02*
X11242400Y-13112900D01*
X11342400Y-13062900D02*
G75*
G03*
X11342400Y-13062900I-50000J0D01*
G01*
X11242400Y-13266900D02*
X11342400Y-13366900D01*
X11342400Y-13266900D02*
X11242400Y-13366900D01*
X11342400Y-13316900D02*
G75*
G03*
X11342400Y-13316900I-50000J0D01*
G01*
X11242400Y-13520900D02*
X11342400Y-13620900D01*
X11342400Y-13520900D02*
X11242400Y-13620900D01*
X11342400Y-13570900D02*
G75*
G03*
X11342400Y-13570900I-50000J0D01*
G01*
X11242400Y-13774900D02*
X11342400Y-13874900D01*
X11342400Y-13774900D02*
X11242400Y-13874900D01*
X11342400Y-13824900D02*
G75*
G03*
X11342400Y-13824900I-50000J0D01*
G01*
X11242400Y-14028900D02*
X11342400Y-14128900D01*
X11342400Y-14028900D02*
X11242400Y-14128900D01*
X11342400Y-14078900D02*
G75*
G03*
X11342400Y-14078900I-50000J0D01*
G01*
X11242400Y-14282900D02*
X11342400Y-14382900D01*
X11342400Y-14282900D02*
X11242400Y-14382900D01*
X11342400Y-14332900D02*
G75*
G03*
X11342400Y-14332900I-50000J0D01*
G01*
X11242400Y-14536900D02*
X11342400Y-14636900D01*
X11342400Y-14536900D02*
X11242400Y-14636900D01*
X11342400Y-14586900D02*
G75*
G03*
X11342400Y-14586900I-50000J0D01*
G01*
X11242400Y-14790900D02*
X11342400Y-14890900D01*
X11342400Y-14790900D02*
X11242400Y-14890900D01*
X11342400Y-14840900D02*
G75*
G03*
X11342400Y-14840900I-50000J0D01*
G01*
X11242400Y-15044900D02*
X11342400Y-15144900D01*
X11342400Y-15044900D02*
X11242400Y-15144900D01*
X11342400Y-15094900D02*
G75*
G03*
X11342400Y-15094900I-50000J0D01*
G01*
X11242400Y-15298900D02*
X11342400Y-15398900D01*
X11342400Y-15298900D02*
X11242400Y-15398900D01*
X11342400Y-15348900D02*
G75*
G03*
X11342400Y-15348900I-50000J0D01*
G01*
X11242400Y-15552900D02*
X11342400Y-15652900D01*
X11342400Y-15552900D02*
X11242400Y-15652900D01*
X11342400Y-15602900D02*
G75*
G03*
X11342400Y-15602900I-50000J0D01*
G01*
X11496400Y-10727400D02*
X11596400Y-10827400D01*
X11596400Y-10727400D02*
X11496400Y-10827400D01*
X11596400Y-10777400D02*
G75*
G03*
X11596400Y-10777400I-50000J0D01*
G01*
X11496400Y-10981400D02*
X11596400Y-11081400D01*
X11596400Y-10981400D02*
X11496400Y-11081400D01*
X11596400Y-11031400D02*
G75*
G03*
X11596400Y-11031400I-50000J0D01*
G01*
X11496400Y-11235400D02*
X11596400Y-11335400D01*
X11596400Y-11235400D02*
X11496400Y-11335400D01*
X11596400Y-11285400D02*
G75*
G03*
X11596400Y-11285400I-50000J0D01*
G01*
X11496400Y-11489400D02*
X11596400Y-11589400D01*
X11596400Y-11489400D02*
X11496400Y-11589400D01*
X11596400Y-11539400D02*
G75*
G03*
X11596400Y-11539400I-50000J0D01*
G01*
X11496400Y-11743400D02*
X11596400Y-11843400D01*
X11596400Y-11743400D02*
X11496400Y-11843400D01*
X11596400Y-11793400D02*
G75*
G03*
X11596400Y-11793400I-50000J0D01*
G01*
X11496400Y-11997400D02*
X11596400Y-12097400D01*
X11596400Y-11997400D02*
X11496400Y-12097400D01*
X11596400Y-12047400D02*
G75*
G03*
X11596400Y-12047400I-50000J0D01*
G01*
X11496400Y-12251400D02*
X11596400Y-12351400D01*
X11596400Y-12251400D02*
X11496400Y-12351400D01*
X11596400Y-12301400D02*
G75*
G03*
X11596400Y-12301400I-50000J0D01*
G01*
X11496400Y-12505400D02*
X11596400Y-12605400D01*
X11596400Y-12505400D02*
X11496400Y-12605400D01*
X11596400Y-12555400D02*
G75*
G03*
X11596400Y-12555400I-50000J0D01*
G01*
X11496400Y-12759400D02*
X11596400Y-12859400D01*
X11596400Y-12759400D02*
X11496400Y-12859400D01*
X11596400Y-12809400D02*
G75*
G03*
X11596400Y-12809400I-50000J0D01*
G01*
X11496400Y-13013400D02*
X11596400Y-13113400D01*
X11596400Y-13013400D02*
X11496400Y-13113400D01*
X11596400Y-13063400D02*
G75*
G03*
X11596400Y-13063400I-50000J0D01*
G01*
X11496400Y-13267400D02*
X11596400Y-13367400D01*
X11596400Y-13267400D02*
X11496400Y-13367400D01*
X11596400Y-13317400D02*
G75*
G03*
X11596400Y-13317400I-50000J0D01*
G01*
X11496400Y-13521400D02*
X11596400Y-13621400D01*
X11596400Y-13521400D02*
X11496400Y-13621400D01*
X11596400Y-13571400D02*
G75*
G03*
X11596400Y-13571400I-50000J0D01*
G01*
X11496400Y-13775400D02*
X11596400Y-13875400D01*
X11596400Y-13775400D02*
X11496400Y-13875400D01*
X11596400Y-13825400D02*
G75*
G03*
X11596400Y-13825400I-50000J0D01*
G01*
X11496400Y-14029400D02*
X11596400Y-14129400D01*
X11596400Y-14029400D02*
X11496400Y-14129400D01*
X11596400Y-14079400D02*
G75*
G03*
X11596400Y-14079400I-50000J0D01*
G01*
X11496400Y-14283400D02*
X11596400Y-14383400D01*
X11596400Y-14283400D02*
X11496400Y-14383400D01*
X11596400Y-14333400D02*
G75*
G03*
X11596400Y-14333400I-50000J0D01*
G01*
X11496400Y-14537400D02*
X11596400Y-14637400D01*
X11596400Y-14537400D02*
X11496400Y-14637400D01*
X11596400Y-14587400D02*
G75*
G03*
X11596400Y-14587400I-50000J0D01*
G01*
X11496400Y-14791400D02*
X11596400Y-14891400D01*
X11596400Y-14791400D02*
X11496400Y-14891400D01*
X11596400Y-14841400D02*
G75*
G03*
X11596400Y-14841400I-50000J0D01*
G01*
X11496400Y-15045400D02*
X11596400Y-15145400D01*
X11596400Y-15045400D02*
X11496400Y-15145400D01*
X11596400Y-15095400D02*
G75*
G03*
X11596400Y-15095400I-50000J0D01*
G01*
X11496400Y-15299400D02*
X11596400Y-15399400D01*
X11596400Y-15299400D02*
X11496400Y-15399400D01*
X11596400Y-15349400D02*
G75*
G03*
X11596400Y-15349400I-50000J0D01*
G01*
X11496400Y-15553400D02*
X11596400Y-15653400D01*
X11596400Y-15553400D02*
X11496400Y-15653400D01*
X11596400Y-15603400D02*
G75*
G03*
X11596400Y-15603400I-50000J0D01*
G01*
X11750400Y-10727400D02*
X11850400Y-10827400D01*
X11850400Y-10727400D02*
X11750400Y-10827400D01*
X11850400Y-10777400D02*
G75*
G03*
X11850400Y-10777400I-50000J0D01*
G01*
X11750400Y-10981400D02*
X11850400Y-11081400D01*
X11850400Y-10981400D02*
X11750400Y-11081400D01*
X11850400Y-11031400D02*
G75*
G03*
X11850400Y-11031400I-50000J0D01*
G01*
X11750400Y-11235400D02*
X11850400Y-11335400D01*
X11850400Y-11235400D02*
X11750400Y-11335400D01*
X11850400Y-11285400D02*
G75*
G03*
X11850400Y-11285400I-50000J0D01*
G01*
X11750400Y-11489400D02*
X11850400Y-11589400D01*
X11850400Y-11489400D02*
X11750400Y-11589400D01*
X11850400Y-11539400D02*
G75*
G03*
X11850400Y-11539400I-50000J0D01*
G01*
X11750400Y-11743400D02*
X11850400Y-11843400D01*
X11850400Y-11743400D02*
X11750400Y-11843400D01*
X11850400Y-11793400D02*
G75*
G03*
X11850400Y-11793400I-50000J0D01*
G01*
X11750400Y-11997400D02*
X11850400Y-12097400D01*
X11850400Y-11997400D02*
X11750400Y-12097400D01*
X11850400Y-12047400D02*
G75*
G03*
X11850400Y-12047400I-50000J0D01*
G01*
X11750400Y-12251400D02*
X11850400Y-12351400D01*
X11850400Y-12251400D02*
X11750400Y-12351400D01*
X11850400Y-12301400D02*
G75*
G03*
X11850400Y-12301400I-50000J0D01*
G01*
X11750400Y-12505400D02*
X11850400Y-12605400D01*
X11850400Y-12505400D02*
X11750400Y-12605400D01*
X11850400Y-12555400D02*
G75*
G03*
X11850400Y-12555400I-50000J0D01*
G01*
X11750400Y-12759400D02*
X11850400Y-12859400D01*
X11850400Y-12759400D02*
X11750400Y-12859400D01*
X11850400Y-12809400D02*
G75*
G03*
X11850400Y-12809400I-50000J0D01*
G01*
X11750400Y-13013400D02*
X11850400Y-13113400D01*
X11850400Y-13013400D02*
X11750400Y-13113400D01*
X11850400Y-13063400D02*
G75*
G03*
X11850400Y-13063400I-50000J0D01*
G01*
X11750400Y-13267400D02*
X11850400Y-13367400D01*
X11850400Y-13267400D02*
X11750400Y-13367400D01*
X11850400Y-13317400D02*
G75*
G03*
X11850400Y-13317400I-50000J0D01*
G01*
X11750400Y-13521400D02*
X11850400Y-13621400D01*
X11850400Y-13521400D02*
X11750400Y-13621400D01*
X11850400Y-13571400D02*
G75*
G03*
X11850400Y-13571400I-50000J0D01*
G01*
X11750400Y-13775400D02*
X11850400Y-13875400D01*
X11850400Y-13775400D02*
X11750400Y-13875400D01*
X11850400Y-13825400D02*
G75*
G03*
X11850400Y-13825400I-50000J0D01*
G01*
X11750400Y-14029400D02*
X11850400Y-14129400D01*
X11850400Y-14029400D02*
X11750400Y-14129400D01*
X11850400Y-14079400D02*
G75*
G03*
X11850400Y-14079400I-50000J0D01*
G01*
X11750400Y-14283400D02*
X11850400Y-14383400D01*
X11850400Y-14283400D02*
X11750400Y-14383400D01*
X11850400Y-14333400D02*
G75*
G03*
X11850400Y-14333400I-50000J0D01*
G01*
X11750400Y-14537400D02*
X11850400Y-14637400D01*
X11850400Y-14537400D02*
X11750400Y-14637400D01*
X11850400Y-14587400D02*
G75*
G03*
X11850400Y-14587400I-50000J0D01*
G01*
X11750400Y-14791400D02*
X11850400Y-14891400D01*
X11850400Y-14791400D02*
X11750400Y-14891400D01*
X11850400Y-14841400D02*
G75*
G03*
X11850400Y-14841400I-50000J0D01*
G01*
X11750400Y-15045400D02*
X11850400Y-15145400D01*
X11850400Y-15045400D02*
X11750400Y-15145400D01*
X11850400Y-15095400D02*
G75*
G03*
X11850400Y-15095400I-50000J0D01*
G01*
X11750400Y-15299400D02*
X11850400Y-15399400D01*
X11850400Y-15299400D02*
X11750400Y-15399400D01*
X11850400Y-15349400D02*
G75*
G03*
X11850400Y-15349400I-50000J0D01*
G01*
X11750400Y-15553400D02*
X11850400Y-15653400D01*
X11850400Y-15553400D02*
X11750400Y-15653400D01*
X11850400Y-15603400D02*
G75*
G03*
X11850400Y-15603400I-50000J0D01*
G01*
X13715400Y-12082500D02*
X13815400Y-12182500D01*
X13815400Y-12082500D02*
X13715400Y-12182500D01*
X13815400Y-12132500D02*
G75*
G03*
X13815400Y-12132500I-50000J0D01*
G01*
X13715400Y-12582500D02*
X13815400Y-12682500D01*
X13815400Y-12582500D02*
X13715400Y-12682500D01*
X13815400Y-12632500D02*
G75*
G03*
X13815400Y-12632500I-50000J0D01*
G01*
D17*
X12351500Y-12488500D02*
X12461500Y-12598500D01*
X12461500Y-12488500D02*
X12351500Y-12598500D01*
X12406500Y-12488500D02*
X12406500Y-12598500D01*
X12351500Y-12543500D02*
X12461500Y-12543500D01*
X12351500Y-14901500D02*
X12461500Y-15011500D01*
X12461500Y-14901500D02*
X12351500Y-15011500D01*
X12406500Y-14901500D02*
X12406500Y-15011500D01*
X12351500Y-14956500D02*
X12461500Y-14956500D01*
X12605500Y-12488500D02*
X12715500Y-12598500D01*
X12715500Y-12488500D02*
X12605500Y-12598500D01*
X12660500Y-12488500D02*
X12660500Y-12598500D01*
X12605500Y-12543500D02*
X12715500Y-12543500D01*
X12605500Y-14901500D02*
X12715500Y-15011500D01*
X12715500Y-14901500D02*
X12605500Y-15011500D01*
X12660500Y-14901500D02*
X12660500Y-15011500D01*
X12605500Y-14956500D02*
X12715500Y-14956500D01*
X12859500Y-12488500D02*
X12969500Y-12598500D01*
X12969500Y-12488500D02*
X12859500Y-12598500D01*
X12914500Y-12488500D02*
X12914500Y-12598500D01*
X12859500Y-12543500D02*
X12969500Y-12543500D01*
X12859500Y-14901500D02*
X12969500Y-15011500D01*
X12969500Y-14901500D02*
X12859500Y-15011500D01*
X12914500Y-14901500D02*
X12914500Y-15011500D01*
X12859500Y-14956500D02*
X12969500Y-14956500D01*
D18*
X12596700Y-16119800D02*
X12756700Y-16279800D01*
X12756700Y-16119800D02*
X12596700Y-16279800D01*
X12733269Y-16256369D02*
X12733269Y-16143231D01*
X12620131Y-16143231D01*
X12620131Y-16256369D01*
X12733269Y-16256369D01*
X13231700Y-8245800D02*
X13391700Y-8405800D01*
X13391700Y-8245800D02*
X13231700Y-8405800D01*
X13368269Y-8382369D02*
X13368269Y-8269231D01*
X13255131Y-8269231D01*
X13255131Y-8382369D01*
X13368269Y-8382369D01*
X13549200Y-16119800D02*
X13709200Y-16279800D01*
X13709200Y-16119800D02*
X13549200Y-16279800D01*
X13685769Y-16256369D02*
X13685769Y-16143231D01*
X13572631Y-16143231D01*
X13572631Y-16256369D01*
X13685769Y-16256369D01*
X13993700Y-8245800D02*
X14153700Y-8405800D01*
X14153700Y-8245800D02*
X13993700Y-8405800D01*
X14130269Y-8382369D02*
X14130269Y-8269231D01*
X14017131Y-8269231D01*
X14017131Y-8382369D01*
X14130269Y-8382369D01*
X14501700Y-16119800D02*
X14661700Y-16279800D01*
X14661700Y-16119800D02*
X14501700Y-16279800D01*
X14638269Y-16256369D02*
X14638269Y-16143231D01*
X14525131Y-16143231D01*
X14525131Y-16256369D01*
X14638269Y-16256369D01*
X15009700Y-8245800D02*
X15169700Y-8405800D01*
X15169700Y-8245800D02*
X15009700Y-8405800D01*
X15146269Y-8382369D02*
X15146269Y-8269231D01*
X15033131Y-8269231D01*
X15033131Y-8382369D01*
X15146269Y-8382369D01*
D19*
X6697200Y-8188300D02*
X6972200Y-8463300D01*
X6972200Y-8188300D02*
X6697200Y-8463300D01*
X6834700Y-8463300D02*
X6972200Y-8325800D01*
X6834700Y-8188300D01*
X6697200Y-8325800D01*
X6834700Y-8463300D01*
X6709900Y-10131400D02*
X6984900Y-10406400D01*
X6984900Y-10131400D02*
X6709900Y-10406400D01*
X6847400Y-10406400D02*
X6984900Y-10268900D01*
X6847400Y-10131400D01*
X6709900Y-10268900D01*
X6847400Y-10406400D01*
X6709900Y-15973400D02*
X6984900Y-16248400D01*
X6984900Y-15973400D02*
X6709900Y-16248400D01*
X6847400Y-16248400D02*
X6984900Y-16110900D01*
X6847400Y-15973400D01*
X6709900Y-16110900D01*
X6847400Y-16248400D01*
X11535900Y-10131400D02*
X11810900Y-10406400D01*
X11810900Y-10131400D02*
X11535900Y-10406400D01*
X11673400Y-10406400D02*
X11810900Y-10268900D01*
X11673400Y-10131400D01*
X11535900Y-10268900D01*
X11673400Y-10406400D01*
X11535900Y-15973400D02*
X11810900Y-16248400D01*
X11810900Y-15973400D02*
X11535900Y-16248400D01*
X11673400Y-16248400D02*
X11810900Y-16110900D01*
X11673400Y-15973400D01*
X11535900Y-16110900D01*
X11673400Y-16248400D01*
X15825000Y-8181000D02*
X16100000Y-8456000D01*
X16100000Y-8181000D02*
X15825000Y-8456000D01*
X15962500Y-8456000D02*
X16100000Y-8318500D01*
X15962500Y-8181000D01*
X15825000Y-8318500D01*
X15962500Y-8456000D01*
X15841200Y-15935300D02*
X16116200Y-16210300D01*
X16116200Y-15935300D02*
X15841200Y-16210300D01*
X15978700Y-16210300D02*
X16116200Y-16072800D01*
X15978700Y-15935300D01*
X15841200Y-16072800D01*
X15978700Y-16210300D01*
D11*
X6679519Y-16896276D02*
X6679519Y-16696276D01*
X6727138Y-16696276D01*
X6755709Y-16705800D01*
X6774757Y-16724848D01*
X6784281Y-16743895D01*
X6793805Y-16781990D01*
X6793805Y-16810562D01*
X6784281Y-16848657D01*
X6774757Y-16867705D01*
X6755709Y-16886752D01*
X6727138Y-16896276D01*
X6679519Y-16896276D01*
X6879519Y-16896276D02*
X6879519Y-16762943D01*
X6879519Y-16801038D02*
X6889043Y-16781990D01*
X6898567Y-16772467D01*
X6917614Y-16762943D01*
X6936662Y-16762943D01*
X7003328Y-16896276D02*
X7003328Y-16762943D01*
X7003328Y-16696276D02*
X6993805Y-16705800D01*
X7003328Y-16715324D01*
X7012852Y-16705800D01*
X7003328Y-16696276D01*
X7003328Y-16715324D01*
X7127138Y-16896276D02*
X7108090Y-16886752D01*
X7098567Y-16867705D01*
X7098567Y-16696276D01*
X7231900Y-16896276D02*
X7212852Y-16886752D01*
X7203328Y-16867705D01*
X7203328Y-16696276D01*
X7460471Y-16896276D02*
X7460471Y-16696276D01*
X7527138Y-16839133D01*
X7593805Y-16696276D01*
X7593805Y-16896276D01*
X7774757Y-16896276D02*
X7774757Y-16791514D01*
X7765233Y-16772467D01*
X7746186Y-16762943D01*
X7708090Y-16762943D01*
X7689043Y-16772467D01*
X7774757Y-16886752D02*
X7755709Y-16896276D01*
X7708090Y-16896276D01*
X7689043Y-16886752D01*
X7679519Y-16867705D01*
X7679519Y-16848657D01*
X7689043Y-16829610D01*
X7708090Y-16820086D01*
X7755709Y-16820086D01*
X7774757Y-16810562D01*
X7869995Y-16762943D02*
X7869995Y-16962943D01*
X7869995Y-16772467D02*
X7889043Y-16762943D01*
X7927138Y-16762943D01*
X7946186Y-16772467D01*
X7955709Y-16781990D01*
X7965233Y-16801038D01*
X7965233Y-16858181D01*
X7955709Y-16877229D01*
X7946186Y-16886752D01*
X7927138Y-16896276D01*
X7889043Y-16896276D01*
X7869995Y-16886752D01*
X8050948Y-16877229D02*
X8060471Y-16886752D01*
X8050948Y-16896276D01*
X8041424Y-16886752D01*
X8050948Y-16877229D01*
X8050948Y-16896276D01*
X8050948Y-16772467D02*
X8060471Y-16781990D01*
X8050948Y-16791514D01*
X8041424Y-16781990D01*
X8050948Y-16772467D01*
X8050948Y-16791514D01*
D12*
X6381900Y-17205800D02*
X6421900Y-17245800D01*
X6421900Y-17205800D02*
X6381900Y-17245800D01*
D11*
X6717614Y-17116276D02*
X6736662Y-17116276D01*
X6755709Y-17125800D01*
X6765233Y-17135324D01*
X6774757Y-17154371D01*
X6784281Y-17192467D01*
X6784281Y-17240086D01*
X6774757Y-17278181D01*
X6765233Y-17297229D01*
X6755709Y-17306752D01*
X6736662Y-17316276D01*
X6717614Y-17316276D01*
X6698567Y-17306752D01*
X6689043Y-17297229D01*
X6679519Y-17278181D01*
X6669995Y-17240086D01*
X6669995Y-17192467D01*
X6679519Y-17154371D01*
X6689043Y-17135324D01*
X6698567Y-17125800D01*
X6717614Y-17116276D01*
X6869995Y-17297229D02*
X6879519Y-17306752D01*
X6869995Y-17316276D01*
X6860471Y-17306752D01*
X6869995Y-17297229D01*
X6869995Y-17316276D01*
X7050948Y-17182943D02*
X7050948Y-17316276D01*
X7003328Y-17106752D02*
X6955709Y-17249610D01*
X7079519Y-17249610D01*
X7193805Y-17116276D02*
X7212852Y-17116276D01*
X7231900Y-17125800D01*
X7241424Y-17135324D01*
X7250948Y-17154371D01*
X7260471Y-17192467D01*
X7260471Y-17240086D01*
X7250948Y-17278181D01*
X7241424Y-17297229D01*
X7231900Y-17306752D01*
X7212852Y-17316276D01*
X7193805Y-17316276D01*
X7174757Y-17306752D01*
X7165233Y-17297229D01*
X7155709Y-17278181D01*
X7146186Y-17240086D01*
X7146186Y-17192467D01*
X7155709Y-17154371D01*
X7165233Y-17135324D01*
X7174757Y-17125800D01*
X7193805Y-17116276D01*
X7384281Y-17116276D02*
X7403328Y-17116276D01*
X7422376Y-17125800D01*
X7431900Y-17135324D01*
X7441424Y-17154371D01*
X7450948Y-17192467D01*
X7450948Y-17240086D01*
X7441424Y-17278181D01*
X7431900Y-17297229D01*
X7422376Y-17306752D01*
X7403328Y-17316276D01*
X7384281Y-17316276D01*
X7365233Y-17306752D01*
X7355709Y-17297229D01*
X7346186Y-17278181D01*
X7336662Y-17240086D01*
X7336662Y-17192467D01*
X7346186Y-17154371D01*
X7355709Y-17135324D01*
X7365233Y-17125800D01*
X7384281Y-17116276D01*
X7536662Y-17316276D02*
X7536662Y-17182943D01*
X7536662Y-17201990D02*
X7546186Y-17192467D01*
X7565233Y-17182943D01*
X7593805Y-17182943D01*
X7612852Y-17192467D01*
X7622376Y-17211514D01*
X7622376Y-17316276D01*
X7622376Y-17211514D02*
X7631900Y-17192467D01*
X7650948Y-17182943D01*
X7679519Y-17182943D01*
X7698567Y-17192467D01*
X7708090Y-17211514D01*
X7708090Y-17316276D01*
X7803328Y-17316276D02*
X7803328Y-17182943D01*
X7803328Y-17201990D02*
X7812852Y-17192467D01*
X7831900Y-17182943D01*
X7860471Y-17182943D01*
X7879519Y-17192467D01*
X7889043Y-17211514D01*
X7889043Y-17316276D01*
X7889043Y-17211514D02*
X7898567Y-17192467D01*
X7917614Y-17182943D01*
X7946186Y-17182943D01*
X7965233Y-17192467D01*
X7974757Y-17211514D01*
X7974757Y-17316276D01*
X8365233Y-17106752D02*
X8193805Y-17363895D01*
X8622376Y-17116276D02*
X8641424Y-17116276D01*
X8660471Y-17125800D01*
X8669995Y-17135324D01*
X8679519Y-17154371D01*
X8689043Y-17192467D01*
X8689043Y-17240086D01*
X8679519Y-17278181D01*
X8669995Y-17297229D01*
X8660471Y-17306752D01*
X8641424Y-17316276D01*
X8622376Y-17316276D01*
X8603329Y-17306752D01*
X8593805Y-17297229D01*
X8584281Y-17278181D01*
X8574757Y-17240086D01*
X8574757Y-17192467D01*
X8584281Y-17154371D01*
X8593805Y-17135324D01*
X8603329Y-17125800D01*
X8622376Y-17116276D01*
X8774757Y-17297229D02*
X8784281Y-17306752D01*
X8774757Y-17316276D01*
X8765233Y-17306752D01*
X8774757Y-17297229D01*
X8774757Y-17316276D01*
X8908090Y-17116276D02*
X8927138Y-17116276D01*
X8946186Y-17125800D01*
X8955710Y-17135324D01*
X8965233Y-17154371D01*
X8974757Y-17192467D01*
X8974757Y-17240086D01*
X8965233Y-17278181D01*
X8955710Y-17297229D01*
X8946186Y-17306752D01*
X8927138Y-17316276D01*
X8908090Y-17316276D01*
X8889043Y-17306752D01*
X8879519Y-17297229D01*
X8869995Y-17278181D01*
X8860471Y-17240086D01*
X8860471Y-17192467D01*
X8869995Y-17154371D01*
X8879519Y-17135324D01*
X8889043Y-17125800D01*
X8908090Y-17116276D01*
X9165233Y-17316276D02*
X9050948Y-17316276D01*
X9108090Y-17316276D02*
X9108090Y-17116276D01*
X9089043Y-17144848D01*
X9069995Y-17163895D01*
X9050948Y-17173419D01*
X9346186Y-17116276D02*
X9250948Y-17116276D01*
X9241424Y-17211514D01*
X9250948Y-17201990D01*
X9269995Y-17192467D01*
X9317614Y-17192467D01*
X9336662Y-17201990D01*
X9346186Y-17211514D01*
X9355710Y-17230562D01*
X9355710Y-17278181D01*
X9346186Y-17297229D01*
X9336662Y-17306752D01*
X9317614Y-17316276D01*
X9269995Y-17316276D01*
X9250948Y-17306752D01*
X9241424Y-17297229D01*
X9422376Y-17116276D02*
X9555710Y-17116276D01*
X9469995Y-17316276D01*
X9622376Y-17116276D02*
X9622376Y-17154371D01*
X9698567Y-17116276D02*
X9698567Y-17154371D01*
X9993805Y-17392467D02*
X9984281Y-17382943D01*
X9965233Y-17354371D01*
X9955710Y-17335324D01*
X9946186Y-17306752D01*
X9936662Y-17259133D01*
X9936662Y-17221038D01*
X9946186Y-17173419D01*
X9955710Y-17144848D01*
X9965233Y-17125800D01*
X9984281Y-17097229D01*
X9993805Y-17087705D01*
X10060471Y-17135324D02*
X10069995Y-17125800D01*
X10089043Y-17116276D01*
X10136662Y-17116276D01*
X10155710Y-17125800D01*
X10165233Y-17135324D01*
X10174757Y-17154371D01*
X10174757Y-17173419D01*
X10165233Y-17201990D01*
X10050948Y-17316276D01*
X10174757Y-17316276D01*
X10412852Y-17316276D02*
X10412852Y-17116276D01*
X10498567Y-17316276D02*
X10498567Y-17211514D01*
X10489043Y-17192467D01*
X10469995Y-17182943D01*
X10441424Y-17182943D01*
X10422376Y-17192467D01*
X10412852Y-17201990D01*
X10622376Y-17316276D02*
X10603329Y-17306752D01*
X10593805Y-17297229D01*
X10584281Y-17278181D01*
X10584281Y-17221038D01*
X10593805Y-17201990D01*
X10603329Y-17192467D01*
X10622376Y-17182943D01*
X10650948Y-17182943D01*
X10669995Y-17192467D01*
X10679519Y-17201990D01*
X10689043Y-17221038D01*
X10689043Y-17278181D01*
X10679519Y-17297229D01*
X10669995Y-17306752D01*
X10650948Y-17316276D01*
X10622376Y-17316276D01*
X10803329Y-17316276D02*
X10784281Y-17306752D01*
X10774757Y-17287705D01*
X10774757Y-17116276D01*
X10955710Y-17306752D02*
X10936662Y-17316276D01*
X10898567Y-17316276D01*
X10879519Y-17306752D01*
X10869995Y-17287705D01*
X10869995Y-17211514D01*
X10879519Y-17192467D01*
X10898567Y-17182943D01*
X10936662Y-17182943D01*
X10955710Y-17192467D01*
X10965233Y-17211514D01*
X10965233Y-17230562D01*
X10869995Y-17249610D01*
X11041424Y-17306752D02*
X11060471Y-17316276D01*
X11098567Y-17316276D01*
X11117614Y-17306752D01*
X11127138Y-17287705D01*
X11127138Y-17278181D01*
X11117614Y-17259133D01*
X11098567Y-17249610D01*
X11069995Y-17249610D01*
X11050948Y-17240086D01*
X11041424Y-17221038D01*
X11041424Y-17211514D01*
X11050948Y-17192467D01*
X11069995Y-17182943D01*
X11098567Y-17182943D01*
X11117614Y-17192467D01*
X11193805Y-17392467D02*
X11203328Y-17382943D01*
X11222376Y-17354371D01*
X11231900Y-17335324D01*
X11241424Y-17306752D01*
X11250948Y-17259133D01*
X11250948Y-17221038D01*
X11241424Y-17173419D01*
X11231900Y-17144848D01*
X11222376Y-17125800D01*
X11203328Y-17097229D01*
X11193805Y-17087705D01*
D13*
X6421900Y-17489800D02*
G75*
G03*
X6421900Y-17489800I-30000J0D01*
G01*
D11*
X6717614Y-17380276D02*
X6736662Y-17380276D01*
X6755709Y-17389800D01*
X6765233Y-17399324D01*
X6774757Y-17418371D01*
X6784281Y-17456467D01*
X6784281Y-17504086D01*
X6774757Y-17542181D01*
X6765233Y-17561229D01*
X6755709Y-17570752D01*
X6736662Y-17580276D01*
X6717614Y-17580276D01*
X6698567Y-17570752D01*
X6689043Y-17561229D01*
X6679519Y-17542181D01*
X6669995Y-17504086D01*
X6669995Y-17456467D01*
X6679519Y-17418371D01*
X6689043Y-17399324D01*
X6698567Y-17389800D01*
X6717614Y-17380276D01*
X6869995Y-17561229D02*
X6879519Y-17570752D01*
X6869995Y-17580276D01*
X6860471Y-17570752D01*
X6869995Y-17561229D01*
X6869995Y-17580276D01*
X7050948Y-17380276D02*
X7012852Y-17380276D01*
X6993805Y-17389800D01*
X6984281Y-17399324D01*
X6965233Y-17427895D01*
X6955709Y-17465990D01*
X6955709Y-17542181D01*
X6965233Y-17561229D01*
X6974757Y-17570752D01*
X6993805Y-17580276D01*
X7031900Y-17580276D01*
X7050948Y-17570752D01*
X7060471Y-17561229D01*
X7069995Y-17542181D01*
X7069995Y-17494562D01*
X7060471Y-17475514D01*
X7050948Y-17465990D01*
X7031900Y-17456467D01*
X6993805Y-17456467D01*
X6974757Y-17465990D01*
X6965233Y-17475514D01*
X6955709Y-17494562D01*
X7193805Y-17380276D02*
X7212852Y-17380276D01*
X7231900Y-17389800D01*
X7241424Y-17399324D01*
X7250948Y-17418371D01*
X7260471Y-17456467D01*
X7260471Y-17504086D01*
X7250948Y-17542181D01*
X7241424Y-17561229D01*
X7231900Y-17570752D01*
X7212852Y-17580276D01*
X7193805Y-17580276D01*
X7174757Y-17570752D01*
X7165233Y-17561229D01*
X7155709Y-17542181D01*
X7146186Y-17504086D01*
X7146186Y-17456467D01*
X7155709Y-17418371D01*
X7165233Y-17399324D01*
X7174757Y-17389800D01*
X7193805Y-17380276D01*
X7384281Y-17380276D02*
X7403328Y-17380276D01*
X7422376Y-17389800D01*
X7431900Y-17399324D01*
X7441424Y-17418371D01*
X7450948Y-17456467D01*
X7450948Y-17504086D01*
X7441424Y-17542181D01*
X7431900Y-17561229D01*
X7422376Y-17570752D01*
X7403328Y-17580276D01*
X7384281Y-17580276D01*
X7365233Y-17570752D01*
X7355709Y-17561229D01*
X7346186Y-17542181D01*
X7336662Y-17504086D01*
X7336662Y-17456467D01*
X7346186Y-17418371D01*
X7355709Y-17399324D01*
X7365233Y-17389800D01*
X7384281Y-17380276D01*
X7536662Y-17580276D02*
X7536662Y-17446943D01*
X7536662Y-17465990D02*
X7546186Y-17456467D01*
X7565233Y-17446943D01*
X7593805Y-17446943D01*
X7612852Y-17456467D01*
X7622376Y-17475514D01*
X7622376Y-17580276D01*
X7622376Y-17475514D02*
X7631900Y-17456467D01*
X7650948Y-17446943D01*
X7679519Y-17446943D01*
X7698567Y-17456467D01*
X7708090Y-17475514D01*
X7708090Y-17580276D01*
X7803328Y-17580276D02*
X7803328Y-17446943D01*
X7803328Y-17465990D02*
X7812852Y-17456467D01*
X7831900Y-17446943D01*
X7860471Y-17446943D01*
X7879519Y-17456467D01*
X7889043Y-17475514D01*
X7889043Y-17580276D01*
X7889043Y-17475514D02*
X7898567Y-17456467D01*
X7917614Y-17446943D01*
X7946186Y-17446943D01*
X7965233Y-17456467D01*
X7974757Y-17475514D01*
X7974757Y-17580276D01*
X8365233Y-17370752D02*
X8193805Y-17627895D01*
X8622376Y-17380276D02*
X8641424Y-17380276D01*
X8660471Y-17389800D01*
X8669995Y-17399324D01*
X8679519Y-17418371D01*
X8689043Y-17456467D01*
X8689043Y-17504086D01*
X8679519Y-17542181D01*
X8669995Y-17561229D01*
X8660471Y-17570752D01*
X8641424Y-17580276D01*
X8622376Y-17580276D01*
X8603329Y-17570752D01*
X8593805Y-17561229D01*
X8584281Y-17542181D01*
X8574757Y-17504086D01*
X8574757Y-17456467D01*
X8584281Y-17418371D01*
X8593805Y-17399324D01*
X8603329Y-17389800D01*
X8622376Y-17380276D01*
X8774757Y-17561229D02*
X8784281Y-17570752D01*
X8774757Y-17580276D01*
X8765233Y-17570752D01*
X8774757Y-17561229D01*
X8774757Y-17580276D01*
X8908090Y-17380276D02*
X8927138Y-17380276D01*
X8946186Y-17389800D01*
X8955710Y-17399324D01*
X8965233Y-17418371D01*
X8974757Y-17456467D01*
X8974757Y-17504086D01*
X8965233Y-17542181D01*
X8955710Y-17561229D01*
X8946186Y-17570752D01*
X8927138Y-17580276D01*
X8908090Y-17580276D01*
X8889043Y-17570752D01*
X8879519Y-17561229D01*
X8869995Y-17542181D01*
X8860471Y-17504086D01*
X8860471Y-17456467D01*
X8869995Y-17418371D01*
X8879519Y-17399324D01*
X8889043Y-17389800D01*
X8908090Y-17380276D01*
X9050948Y-17399324D02*
X9060471Y-17389800D01*
X9079519Y-17380276D01*
X9127138Y-17380276D01*
X9146186Y-17389800D01*
X9155710Y-17399324D01*
X9165233Y-17418371D01*
X9165233Y-17437419D01*
X9155710Y-17465990D01*
X9041424Y-17580276D01*
X9165233Y-17580276D01*
X9231900Y-17380276D02*
X9355710Y-17380276D01*
X9289043Y-17456467D01*
X9317614Y-17456467D01*
X9336662Y-17465990D01*
X9346186Y-17475514D01*
X9355710Y-17494562D01*
X9355710Y-17542181D01*
X9346186Y-17561229D01*
X9336662Y-17570752D01*
X9317614Y-17580276D01*
X9260471Y-17580276D01*
X9241424Y-17570752D01*
X9231900Y-17561229D01*
X9527138Y-17380276D02*
X9489043Y-17380276D01*
X9469995Y-17389800D01*
X9460471Y-17399324D01*
X9441424Y-17427895D01*
X9431900Y-17465990D01*
X9431900Y-17542181D01*
X9441424Y-17561229D01*
X9450948Y-17570752D01*
X9469995Y-17580276D01*
X9508090Y-17580276D01*
X9527138Y-17570752D01*
X9536662Y-17561229D01*
X9546186Y-17542181D01*
X9546186Y-17494562D01*
X9536662Y-17475514D01*
X9527138Y-17465990D01*
X9508090Y-17456467D01*
X9469995Y-17456467D01*
X9450948Y-17465990D01*
X9441424Y-17475514D01*
X9431900Y-17494562D01*
X9622376Y-17380276D02*
X9622376Y-17418371D01*
X9698567Y-17380276D02*
X9698567Y-17418371D01*
X9993805Y-17656467D02*
X9984281Y-17646943D01*
X9965233Y-17618371D01*
X9955710Y-17599324D01*
X9946186Y-17570752D01*
X9936662Y-17523133D01*
X9936662Y-17485038D01*
X9946186Y-17437419D01*
X9955710Y-17408848D01*
X9965233Y-17389800D01*
X9984281Y-17361229D01*
X9993805Y-17351705D01*
X10174757Y-17580276D02*
X10060471Y-17580276D01*
X10117614Y-17580276D02*
X10117614Y-17380276D01*
X10098567Y-17408848D01*
X10079519Y-17427895D01*
X10060471Y-17437419D01*
X10412852Y-17580276D02*
X10412852Y-17380276D01*
X10498567Y-17580276D02*
X10498567Y-17475514D01*
X10489043Y-17456467D01*
X10469995Y-17446943D01*
X10441424Y-17446943D01*
X10422376Y-17456467D01*
X10412852Y-17465990D01*
X10622376Y-17580276D02*
X10603329Y-17570752D01*
X10593805Y-17561229D01*
X10584281Y-17542181D01*
X10584281Y-17485038D01*
X10593805Y-17465990D01*
X10603329Y-17456467D01*
X10622376Y-17446943D01*
X10650948Y-17446943D01*
X10669995Y-17456467D01*
X10679519Y-17465990D01*
X10689043Y-17485038D01*
X10689043Y-17542181D01*
X10679519Y-17561229D01*
X10669995Y-17570752D01*
X10650948Y-17580276D01*
X10622376Y-17580276D01*
X10803329Y-17580276D02*
X10784281Y-17570752D01*
X10774757Y-17551705D01*
X10774757Y-17380276D01*
X10955710Y-17570752D02*
X10936662Y-17580276D01*
X10898567Y-17580276D01*
X10879519Y-17570752D01*
X10869995Y-17551705D01*
X10869995Y-17475514D01*
X10879519Y-17456467D01*
X10898567Y-17446943D01*
X10936662Y-17446943D01*
X10955710Y-17456467D01*
X10965233Y-17475514D01*
X10965233Y-17494562D01*
X10869995Y-17513610D01*
X11031900Y-17656467D02*
X11041424Y-17646943D01*
X11060471Y-17618371D01*
X11069995Y-17599324D01*
X11079519Y-17570752D01*
X11089043Y-17523133D01*
X11089043Y-17485038D01*
X11079519Y-17437419D01*
X11069995Y-17408848D01*
X11060471Y-17389800D01*
X11041424Y-17361229D01*
X11031900Y-17351705D01*
D14*
X6383800Y-17715700D02*
X6383800Y-17791900D01*
X6345700Y-17753800D02*
X6421900Y-17753800D01*
D11*
X6717614Y-17644276D02*
X6736662Y-17644276D01*
X6755709Y-17653800D01*
X6765233Y-17663324D01*
X6774757Y-17682371D01*
X6784281Y-17720467D01*
X6784281Y-17768086D01*
X6774757Y-17806181D01*
X6765233Y-17825229D01*
X6755709Y-17834752D01*
X6736662Y-17844276D01*
X6717614Y-17844276D01*
X6698567Y-17834752D01*
X6689043Y-17825229D01*
X6679519Y-17806181D01*
X6669995Y-17768086D01*
X6669995Y-17720467D01*
X6679519Y-17682371D01*
X6689043Y-17663324D01*
X6698567Y-17653800D01*
X6717614Y-17644276D01*
X6869995Y-17825229D02*
X6879519Y-17834752D01*
X6869995Y-17844276D01*
X6860471Y-17834752D01*
X6869995Y-17825229D01*
X6869995Y-17844276D01*
X6946186Y-17644276D02*
X7079519Y-17644276D01*
X6993805Y-17844276D01*
X7241424Y-17644276D02*
X7203328Y-17644276D01*
X7184281Y-17653800D01*
X7174757Y-17663324D01*
X7155709Y-17691895D01*
X7146186Y-17729990D01*
X7146186Y-17806181D01*
X7155709Y-17825229D01*
X7165233Y-17834752D01*
X7184281Y-17844276D01*
X7222376Y-17844276D01*
X7241424Y-17834752D01*
X7250948Y-17825229D01*
X7260471Y-17806181D01*
X7260471Y-17758562D01*
X7250948Y-17739514D01*
X7241424Y-17729990D01*
X7222376Y-17720467D01*
X7184281Y-17720467D01*
X7165233Y-17729990D01*
X7155709Y-17739514D01*
X7146186Y-17758562D01*
X7336662Y-17663324D02*
X7346186Y-17653800D01*
X7365233Y-17644276D01*
X7412852Y-17644276D01*
X7431900Y-17653800D01*
X7441424Y-17663324D01*
X7450948Y-17682371D01*
X7450948Y-17701419D01*
X7441424Y-17729990D01*
X7327138Y-17844276D01*
X7450948Y-17844276D01*
X7536662Y-17844276D02*
X7536662Y-17710943D01*
X7536662Y-17729990D02*
X7546186Y-17720467D01*
X7565233Y-17710943D01*
X7593805Y-17710943D01*
X7612852Y-17720467D01*
X7622376Y-17739514D01*
X7622376Y-17844276D01*
X7622376Y-17739514D02*
X7631900Y-17720467D01*
X7650948Y-17710943D01*
X7679519Y-17710943D01*
X7698567Y-17720467D01*
X7708090Y-17739514D01*
X7708090Y-17844276D01*
X7803328Y-17844276D02*
X7803328Y-17710943D01*
X7803328Y-17729990D02*
X7812852Y-17720467D01*
X7831900Y-17710943D01*
X7860471Y-17710943D01*
X7879519Y-17720467D01*
X7889043Y-17739514D01*
X7889043Y-17844276D01*
X7889043Y-17739514D02*
X7898567Y-17720467D01*
X7917614Y-17710943D01*
X7946186Y-17710943D01*
X7965233Y-17720467D01*
X7974757Y-17739514D01*
X7974757Y-17844276D01*
X8365233Y-17634752D02*
X8193805Y-17891895D01*
X8622376Y-17644276D02*
X8641424Y-17644276D01*
X8660471Y-17653800D01*
X8669995Y-17663324D01*
X8679519Y-17682371D01*
X8689043Y-17720467D01*
X8689043Y-17768086D01*
X8679519Y-17806181D01*
X8669995Y-17825229D01*
X8660471Y-17834752D01*
X8641424Y-17844276D01*
X8622376Y-17844276D01*
X8603329Y-17834752D01*
X8593805Y-17825229D01*
X8584281Y-17806181D01*
X8574757Y-17768086D01*
X8574757Y-17720467D01*
X8584281Y-17682371D01*
X8593805Y-17663324D01*
X8603329Y-17653800D01*
X8622376Y-17644276D01*
X8774757Y-17825229D02*
X8784281Y-17834752D01*
X8774757Y-17844276D01*
X8765233Y-17834752D01*
X8774757Y-17825229D01*
X8774757Y-17844276D01*
X8908090Y-17644276D02*
X8927138Y-17644276D01*
X8946186Y-17653800D01*
X8955710Y-17663324D01*
X8965233Y-17682371D01*
X8974757Y-17720467D01*
X8974757Y-17768086D01*
X8965233Y-17806181D01*
X8955710Y-17825229D01*
X8946186Y-17834752D01*
X8927138Y-17844276D01*
X8908090Y-17844276D01*
X8889043Y-17834752D01*
X8879519Y-17825229D01*
X8869995Y-17806181D01*
X8860471Y-17768086D01*
X8860471Y-17720467D01*
X8869995Y-17682371D01*
X8879519Y-17663324D01*
X8889043Y-17653800D01*
X8908090Y-17644276D01*
X9041424Y-17644276D02*
X9165233Y-17644276D01*
X9098567Y-17720467D01*
X9127138Y-17720467D01*
X9146186Y-17729990D01*
X9155710Y-17739514D01*
X9165233Y-17758562D01*
X9165233Y-17806181D01*
X9155710Y-17825229D01*
X9146186Y-17834752D01*
X9127138Y-17844276D01*
X9069995Y-17844276D01*
X9050948Y-17834752D01*
X9041424Y-17825229D01*
X9289043Y-17644276D02*
X9308090Y-17644276D01*
X9327138Y-17653800D01*
X9336662Y-17663324D01*
X9346186Y-17682371D01*
X9355710Y-17720467D01*
X9355710Y-17768086D01*
X9346186Y-17806181D01*
X9336662Y-17825229D01*
X9327138Y-17834752D01*
X9308090Y-17844276D01*
X9289043Y-17844276D01*
X9269995Y-17834752D01*
X9260471Y-17825229D01*
X9250948Y-17806181D01*
X9241424Y-17768086D01*
X9241424Y-17720467D01*
X9250948Y-17682371D01*
X9260471Y-17663324D01*
X9269995Y-17653800D01*
X9289043Y-17644276D01*
X9479519Y-17644276D02*
X9498567Y-17644276D01*
X9517614Y-17653800D01*
X9527138Y-17663324D01*
X9536662Y-17682371D01*
X9546186Y-17720467D01*
X9546186Y-17768086D01*
X9536662Y-17806181D01*
X9527138Y-17825229D01*
X9517614Y-17834752D01*
X9498567Y-17844276D01*
X9479519Y-17844276D01*
X9460471Y-17834752D01*
X9450948Y-17825229D01*
X9441424Y-17806181D01*
X9431900Y-17768086D01*
X9431900Y-17720467D01*
X9441424Y-17682371D01*
X9450948Y-17663324D01*
X9460471Y-17653800D01*
X9479519Y-17644276D01*
X9622376Y-17644276D02*
X9622376Y-17682371D01*
X9698567Y-17644276D02*
X9698567Y-17682371D01*
X9993805Y-17920467D02*
X9984281Y-17910943D01*
X9965233Y-17882371D01*
X9955710Y-17863324D01*
X9946186Y-17834752D01*
X9936662Y-17787133D01*
X9936662Y-17749038D01*
X9946186Y-17701419D01*
X9955710Y-17672848D01*
X9965233Y-17653800D01*
X9984281Y-17625229D01*
X9993805Y-17615705D01*
X10174757Y-17844276D02*
X10060471Y-17844276D01*
X10117614Y-17844276D02*
X10117614Y-17644276D01*
X10098567Y-17672848D01*
X10079519Y-17691895D01*
X10060471Y-17701419D01*
X10346186Y-17644276D02*
X10308090Y-17644276D01*
X10289043Y-17653800D01*
X10279519Y-17663324D01*
X10260471Y-17691895D01*
X10250948Y-17729990D01*
X10250948Y-17806181D01*
X10260471Y-17825229D01*
X10269995Y-17834752D01*
X10289043Y-17844276D01*
X10327138Y-17844276D01*
X10346186Y-17834752D01*
X10355710Y-17825229D01*
X10365233Y-17806181D01*
X10365233Y-17758562D01*
X10355710Y-17739514D01*
X10346186Y-17729990D01*
X10327138Y-17720467D01*
X10289043Y-17720467D01*
X10269995Y-17729990D01*
X10260471Y-17739514D01*
X10250948Y-17758562D01*
X10603329Y-17844276D02*
X10603329Y-17644276D01*
X10689043Y-17844276D02*
X10689043Y-17739514D01*
X10679519Y-17720467D01*
X10660471Y-17710943D01*
X10631900Y-17710943D01*
X10612852Y-17720467D01*
X10603329Y-17729990D01*
X10812852Y-17844276D02*
X10793805Y-17834752D01*
X10784281Y-17825229D01*
X10774757Y-17806181D01*
X10774757Y-17749038D01*
X10784281Y-17729990D01*
X10793805Y-17720467D01*
X10812852Y-17710943D01*
X10841424Y-17710943D01*
X10860471Y-17720467D01*
X10869995Y-17729990D01*
X10879519Y-17749038D01*
X10879519Y-17806181D01*
X10869995Y-17825229D01*
X10860471Y-17834752D01*
X10841424Y-17844276D01*
X10812852Y-17844276D01*
X10993805Y-17844276D02*
X10974757Y-17834752D01*
X10965233Y-17815705D01*
X10965233Y-17644276D01*
X11146186Y-17834752D02*
X11127138Y-17844276D01*
X11089043Y-17844276D01*
X11069995Y-17834752D01*
X11060471Y-17815705D01*
X11060471Y-17739514D01*
X11069995Y-17720467D01*
X11089043Y-17710943D01*
X11127138Y-17710943D01*
X11146186Y-17720467D01*
X11155710Y-17739514D01*
X11155710Y-17758562D01*
X11060471Y-17777610D01*
X11231900Y-17834752D02*
X11250948Y-17844276D01*
X11289043Y-17844276D01*
X11308090Y-17834752D01*
X11317614Y-17815705D01*
X11317614Y-17806181D01*
X11308090Y-17787133D01*
X11289043Y-17777610D01*
X11260471Y-17777610D01*
X11241424Y-17768086D01*
X11231900Y-17749038D01*
X11231900Y-17739514D01*
X11241424Y-17720467D01*
X11260471Y-17710943D01*
X11289043Y-17710943D01*
X11308090Y-17720467D01*
X11384281Y-17920467D02*
X11393805Y-17910943D01*
X11412852Y-17882371D01*
X11422376Y-17863324D01*
X11431900Y-17834752D01*
X11441424Y-17787133D01*
X11441424Y-17749038D01*
X11431900Y-17701419D01*
X11422376Y-17672848D01*
X11412852Y-17653800D01*
X11393805Y-17625229D01*
X11384281Y-17615705D01*
D15*
X6410184Y-18046085D02*
X6410184Y-17989516D01*
X6353615Y-17989516D01*
X6353615Y-18046085D01*
X6410184Y-18046085D01*
D11*
X6717614Y-17908276D02*
X6736662Y-17908276D01*
X6755709Y-17917800D01*
X6765233Y-17927324D01*
X6774757Y-17946371D01*
X6784281Y-17984467D01*
X6784281Y-18032086D01*
X6774757Y-18070181D01*
X6765233Y-18089229D01*
X6755709Y-18098752D01*
X6736662Y-18108276D01*
X6717614Y-18108276D01*
X6698567Y-18098752D01*
X6689043Y-18089229D01*
X6679519Y-18070181D01*
X6669995Y-18032086D01*
X6669995Y-17984467D01*
X6679519Y-17946371D01*
X6689043Y-17927324D01*
X6698567Y-17917800D01*
X6717614Y-17908276D01*
X6869995Y-18089229D02*
X6879519Y-18098752D01*
X6869995Y-18108276D01*
X6860471Y-18098752D01*
X6869995Y-18089229D01*
X6869995Y-18108276D01*
X6993805Y-17993990D02*
X6974757Y-17984467D01*
X6965233Y-17974943D01*
X6955709Y-17955895D01*
X6955709Y-17946371D01*
X6965233Y-17927324D01*
X6974757Y-17917800D01*
X6993805Y-17908276D01*
X7031900Y-17908276D01*
X7050948Y-17917800D01*
X7060471Y-17927324D01*
X7069995Y-17946371D01*
X7069995Y-17955895D01*
X7060471Y-17974943D01*
X7050948Y-17984467D01*
X7031900Y-17993990D01*
X6993805Y-17993990D01*
X6974757Y-18003514D01*
X6965233Y-18013038D01*
X6955709Y-18032086D01*
X6955709Y-18070181D01*
X6965233Y-18089229D01*
X6974757Y-18098752D01*
X6993805Y-18108276D01*
X7031900Y-18108276D01*
X7050948Y-18098752D01*
X7060471Y-18089229D01*
X7069995Y-18070181D01*
X7069995Y-18032086D01*
X7060471Y-18013038D01*
X7050948Y-18003514D01*
X7031900Y-17993990D01*
X7193805Y-17908276D02*
X7212852Y-17908276D01*
X7231900Y-17917800D01*
X7241424Y-17927324D01*
X7250948Y-17946371D01*
X7260471Y-17984467D01*
X7260471Y-18032086D01*
X7250948Y-18070181D01*
X7241424Y-18089229D01*
X7231900Y-18098752D01*
X7212852Y-18108276D01*
X7193805Y-18108276D01*
X7174757Y-18098752D01*
X7165233Y-18089229D01*
X7155709Y-18070181D01*
X7146186Y-18032086D01*
X7146186Y-17984467D01*
X7155709Y-17946371D01*
X7165233Y-17927324D01*
X7174757Y-17917800D01*
X7193805Y-17908276D01*
X7384281Y-17908276D02*
X7403328Y-17908276D01*
X7422376Y-17917800D01*
X7431900Y-17927324D01*
X7441424Y-17946371D01*
X7450948Y-17984467D01*
X7450948Y-18032086D01*
X7441424Y-18070181D01*
X7431900Y-18089229D01*
X7422376Y-18098752D01*
X7403328Y-18108276D01*
X7384281Y-18108276D01*
X7365233Y-18098752D01*
X7355709Y-18089229D01*
X7346186Y-18070181D01*
X7336662Y-18032086D01*
X7336662Y-17984467D01*
X7346186Y-17946371D01*
X7355709Y-17927324D01*
X7365233Y-17917800D01*
X7384281Y-17908276D01*
X7536662Y-18108276D02*
X7536662Y-17974943D01*
X7536662Y-17993990D02*
X7546186Y-17984467D01*
X7565233Y-17974943D01*
X7593805Y-17974943D01*
X7612852Y-17984467D01*
X7622376Y-18003514D01*
X7622376Y-18108276D01*
X7622376Y-18003514D02*
X7631900Y-17984467D01*
X7650948Y-17974943D01*
X7679519Y-17974943D01*
X7698567Y-17984467D01*
X7708090Y-18003514D01*
X7708090Y-18108276D01*
X7803328Y-18108276D02*
X7803328Y-17974943D01*
X7803328Y-17993990D02*
X7812852Y-17984467D01*
X7831900Y-17974943D01*
X7860471Y-17974943D01*
X7879519Y-17984467D01*
X7889043Y-18003514D01*
X7889043Y-18108276D01*
X7889043Y-18003514D02*
X7898567Y-17984467D01*
X7917614Y-17974943D01*
X7946186Y-17974943D01*
X7965233Y-17984467D01*
X7974757Y-18003514D01*
X7974757Y-18108276D01*
X8365233Y-17898752D02*
X8193805Y-18155895D01*
X8622376Y-17908276D02*
X8641424Y-17908276D01*
X8660471Y-17917800D01*
X8669995Y-17927324D01*
X8679519Y-17946371D01*
X8689043Y-17984467D01*
X8689043Y-18032086D01*
X8679519Y-18070181D01*
X8669995Y-18089229D01*
X8660471Y-18098752D01*
X8641424Y-18108276D01*
X8622376Y-18108276D01*
X8603329Y-18098752D01*
X8593805Y-18089229D01*
X8584281Y-18070181D01*
X8574757Y-18032086D01*
X8574757Y-17984467D01*
X8584281Y-17946371D01*
X8593805Y-17927324D01*
X8603329Y-17917800D01*
X8622376Y-17908276D01*
X8774757Y-18089229D02*
X8784281Y-18098752D01*
X8774757Y-18108276D01*
X8765233Y-18098752D01*
X8774757Y-18089229D01*
X8774757Y-18108276D01*
X8908090Y-17908276D02*
X8927138Y-17908276D01*
X8946186Y-17917800D01*
X8955710Y-17927324D01*
X8965233Y-17946371D01*
X8974757Y-17984467D01*
X8974757Y-18032086D01*
X8965233Y-18070181D01*
X8955710Y-18089229D01*
X8946186Y-18098752D01*
X8927138Y-18108276D01*
X8908090Y-18108276D01*
X8889043Y-18098752D01*
X8879519Y-18089229D01*
X8869995Y-18070181D01*
X8860471Y-18032086D01*
X8860471Y-17984467D01*
X8869995Y-17946371D01*
X8879519Y-17927324D01*
X8889043Y-17917800D01*
X8908090Y-17908276D01*
X9041424Y-17908276D02*
X9165233Y-17908276D01*
X9098567Y-17984467D01*
X9127138Y-17984467D01*
X9146186Y-17993990D01*
X9155710Y-18003514D01*
X9165233Y-18022562D01*
X9165233Y-18070181D01*
X9155710Y-18089229D01*
X9146186Y-18098752D01*
X9127138Y-18108276D01*
X9069995Y-18108276D01*
X9050948Y-18098752D01*
X9041424Y-18089229D01*
X9355710Y-18108276D02*
X9241424Y-18108276D01*
X9298567Y-18108276D02*
X9298567Y-17908276D01*
X9279519Y-17936848D01*
X9260471Y-17955895D01*
X9241424Y-17965419D01*
X9536662Y-17908276D02*
X9441424Y-17908276D01*
X9431900Y-18003514D01*
X9441424Y-17993990D01*
X9460471Y-17984467D01*
X9508090Y-17984467D01*
X9527138Y-17993990D01*
X9536662Y-18003514D01*
X9546186Y-18022562D01*
X9546186Y-18070181D01*
X9536662Y-18089229D01*
X9527138Y-18098752D01*
X9508090Y-18108276D01*
X9460471Y-18108276D01*
X9441424Y-18098752D01*
X9431900Y-18089229D01*
X9622376Y-17908276D02*
X9622376Y-17946371D01*
X9698567Y-17908276D02*
X9698567Y-17946371D01*
X9993805Y-18184467D02*
X9984281Y-18174943D01*
X9965233Y-18146371D01*
X9955710Y-18127324D01*
X9946186Y-18098752D01*
X9936662Y-18051133D01*
X9936662Y-18013038D01*
X9946186Y-17965419D01*
X9955710Y-17936848D01*
X9965233Y-17917800D01*
X9984281Y-17889229D01*
X9993805Y-17879705D01*
X10050948Y-17908276D02*
X10184281Y-17908276D01*
X10098567Y-18108276D01*
X10250948Y-17927324D02*
X10260471Y-17917800D01*
X10279519Y-17908276D01*
X10327138Y-17908276D01*
X10346186Y-17917800D01*
X10355710Y-17927324D01*
X10365233Y-17946371D01*
X10365233Y-17965419D01*
X10355710Y-17993990D01*
X10241424Y-18108276D01*
X10365233Y-18108276D01*
X10603329Y-18108276D02*
X10603329Y-17908276D01*
X10689043Y-18108276D02*
X10689043Y-18003514D01*
X10679519Y-17984467D01*
X10660471Y-17974943D01*
X10631900Y-17974943D01*
X10612852Y-17984467D01*
X10603329Y-17993990D01*
X10812852Y-18108276D02*
X10793805Y-18098752D01*
X10784281Y-18089229D01*
X10774757Y-18070181D01*
X10774757Y-18013038D01*
X10784281Y-17993990D01*
X10793805Y-17984467D01*
X10812852Y-17974943D01*
X10841424Y-17974943D01*
X10860471Y-17984467D01*
X10869995Y-17993990D01*
X10879519Y-18013038D01*
X10879519Y-18070181D01*
X10869995Y-18089229D01*
X10860471Y-18098752D01*
X10841424Y-18108276D01*
X10812852Y-18108276D01*
X10993805Y-18108276D02*
X10974757Y-18098752D01*
X10965233Y-18079705D01*
X10965233Y-17908276D01*
X11146186Y-18098752D02*
X11127138Y-18108276D01*
X11089043Y-18108276D01*
X11069995Y-18098752D01*
X11060471Y-18079705D01*
X11060471Y-18003514D01*
X11069995Y-17984467D01*
X11089043Y-17974943D01*
X11127138Y-17974943D01*
X11146186Y-17984467D01*
X11155710Y-18003514D01*
X11155710Y-18022562D01*
X11060471Y-18041610D01*
X11231900Y-18098752D02*
X11250948Y-18108276D01*
X11289043Y-18108276D01*
X11308090Y-18098752D01*
X11317614Y-18079705D01*
X11317614Y-18070181D01*
X11308090Y-18051133D01*
X11289043Y-18041610D01*
X11260471Y-18041610D01*
X11241424Y-18032086D01*
X11231900Y-18013038D01*
X11231900Y-18003514D01*
X11241424Y-17984467D01*
X11260471Y-17974943D01*
X11289043Y-17974943D01*
X11308090Y-17984467D01*
X11384281Y-18184467D02*
X11393805Y-18174943D01*
X11412852Y-18146371D01*
X11422376Y-18127324D01*
X11431900Y-18098752D01*
X11441424Y-18051133D01*
X11441424Y-18013038D01*
X11431900Y-17965419D01*
X11422376Y-17936848D01*
X11412852Y-17917800D01*
X11393805Y-17889229D01*
X11384281Y-17879705D01*
D16*
X6376900Y-18326800D02*
X6421900Y-18281800D01*
X6376900Y-18236800D01*
X6331900Y-18281800D01*
X6376900Y-18326800D01*
D11*
X6717614Y-18172276D02*
X6736662Y-18172276D01*
X6755709Y-18181800D01*
X6765233Y-18191324D01*
X6774757Y-18210371D01*
X6784281Y-18248467D01*
X6784281Y-18296086D01*
X6774757Y-18334181D01*
X6765233Y-18353229D01*
X6755709Y-18362752D01*
X6736662Y-18372276D01*
X6717614Y-18372276D01*
X6698567Y-18362752D01*
X6689043Y-18353229D01*
X6679519Y-18334181D01*
X6669995Y-18296086D01*
X6669995Y-18248467D01*
X6679519Y-18210371D01*
X6689043Y-18191324D01*
X6698567Y-18181800D01*
X6717614Y-18172276D01*
X6869995Y-18353229D02*
X6879519Y-18362752D01*
X6869995Y-18372276D01*
X6860471Y-18362752D01*
X6869995Y-18353229D01*
X6869995Y-18372276D01*
X6974757Y-18372276D02*
X7012852Y-18372276D01*
X7031900Y-18362752D01*
X7041424Y-18353229D01*
X7060471Y-18324657D01*
X7069995Y-18286562D01*
X7069995Y-18210371D01*
X7060471Y-18191324D01*
X7050948Y-18181800D01*
X7031900Y-18172276D01*
X6993805Y-18172276D01*
X6974757Y-18181800D01*
X6965233Y-18191324D01*
X6955709Y-18210371D01*
X6955709Y-18257990D01*
X6965233Y-18277038D01*
X6974757Y-18286562D01*
X6993805Y-18296086D01*
X7031900Y-18296086D01*
X7050948Y-18286562D01*
X7060471Y-18277038D01*
X7069995Y-18257990D01*
X7193805Y-18172276D02*
X7212852Y-18172276D01*
X7231900Y-18181800D01*
X7241424Y-18191324D01*
X7250948Y-18210371D01*
X7260471Y-18248467D01*
X7260471Y-18296086D01*
X7250948Y-18334181D01*
X7241424Y-18353229D01*
X7231900Y-18362752D01*
X7212852Y-18372276D01*
X7193805Y-18372276D01*
X7174757Y-18362752D01*
X7165233Y-18353229D01*
X7155709Y-18334181D01*
X7146186Y-18296086D01*
X7146186Y-18248467D01*
X7155709Y-18210371D01*
X7165233Y-18191324D01*
X7174757Y-18181800D01*
X7193805Y-18172276D01*
X7384281Y-18172276D02*
X7403328Y-18172276D01*
X7422376Y-18181800D01*
X7431900Y-18191324D01*
X7441424Y-18210371D01*
X7450948Y-18248467D01*
X7450948Y-18296086D01*
X7441424Y-18334181D01*
X7431900Y-18353229D01*
X7422376Y-18362752D01*
X7403328Y-18372276D01*
X7384281Y-18372276D01*
X7365233Y-18362752D01*
X7355709Y-18353229D01*
X7346186Y-18334181D01*
X7336662Y-18296086D01*
X7336662Y-18248467D01*
X7346186Y-18210371D01*
X7355709Y-18191324D01*
X7365233Y-18181800D01*
X7384281Y-18172276D01*
X7536662Y-18372276D02*
X7536662Y-18238943D01*
X7536662Y-18257990D02*
X7546186Y-18248467D01*
X7565233Y-18238943D01*
X7593805Y-18238943D01*
X7612852Y-18248467D01*
X7622376Y-18267514D01*
X7622376Y-18372276D01*
X7622376Y-18267514D02*
X7631900Y-18248467D01*
X7650948Y-18238943D01*
X7679519Y-18238943D01*
X7698567Y-18248467D01*
X7708090Y-18267514D01*
X7708090Y-18372276D01*
X7803328Y-18372276D02*
X7803328Y-18238943D01*
X7803328Y-18257990D02*
X7812852Y-18248467D01*
X7831900Y-18238943D01*
X7860471Y-18238943D01*
X7879519Y-18248467D01*
X7889043Y-18267514D01*
X7889043Y-18372276D01*
X7889043Y-18267514D02*
X7898567Y-18248467D01*
X7917614Y-18238943D01*
X7946186Y-18238943D01*
X7965233Y-18248467D01*
X7974757Y-18267514D01*
X7974757Y-18372276D01*
X8365233Y-18162752D02*
X8193805Y-18419895D01*
X8622376Y-18172276D02*
X8641424Y-18172276D01*
X8660471Y-18181800D01*
X8669995Y-18191324D01*
X8679519Y-18210371D01*
X8689043Y-18248467D01*
X8689043Y-18296086D01*
X8679519Y-18334181D01*
X8669995Y-18353229D01*
X8660471Y-18362752D01*
X8641424Y-18372276D01*
X8622376Y-18372276D01*
X8603329Y-18362752D01*
X8593805Y-18353229D01*
X8584281Y-18334181D01*
X8574757Y-18296086D01*
X8574757Y-18248467D01*
X8584281Y-18210371D01*
X8593805Y-18191324D01*
X8603329Y-18181800D01*
X8622376Y-18172276D01*
X8774757Y-18353229D02*
X8784281Y-18362752D01*
X8774757Y-18372276D01*
X8765233Y-18362752D01*
X8774757Y-18353229D01*
X8774757Y-18372276D01*
X8908090Y-18172276D02*
X8927138Y-18172276D01*
X8946186Y-18181800D01*
X8955710Y-18191324D01*
X8965233Y-18210371D01*
X8974757Y-18248467D01*
X8974757Y-18296086D01*
X8965233Y-18334181D01*
X8955710Y-18353229D01*
X8946186Y-18362752D01*
X8927138Y-18372276D01*
X8908090Y-18372276D01*
X8889043Y-18362752D01*
X8879519Y-18353229D01*
X8869995Y-18334181D01*
X8860471Y-18296086D01*
X8860471Y-18248467D01*
X8869995Y-18210371D01*
X8879519Y-18191324D01*
X8889043Y-18181800D01*
X8908090Y-18172276D01*
X9041424Y-18172276D02*
X9165233Y-18172276D01*
X9098567Y-18248467D01*
X9127138Y-18248467D01*
X9146186Y-18257990D01*
X9155710Y-18267514D01*
X9165233Y-18286562D01*
X9165233Y-18334181D01*
X9155710Y-18353229D01*
X9146186Y-18362752D01*
X9127138Y-18372276D01*
X9069995Y-18372276D01*
X9050948Y-18362752D01*
X9041424Y-18353229D01*
X9346186Y-18172276D02*
X9250948Y-18172276D01*
X9241424Y-18267514D01*
X9250948Y-18257990D01*
X9269995Y-18248467D01*
X9317614Y-18248467D01*
X9336662Y-18257990D01*
X9346186Y-18267514D01*
X9355710Y-18286562D01*
X9355710Y-18334181D01*
X9346186Y-18353229D01*
X9336662Y-18362752D01*
X9317614Y-18372276D01*
X9269995Y-18372276D01*
X9250948Y-18362752D01*
X9241424Y-18353229D01*
X9527138Y-18238943D02*
X9527138Y-18372276D01*
X9479519Y-18162752D02*
X9431900Y-18305610D01*
X9555710Y-18305610D01*
X9622376Y-18172276D02*
X9622376Y-18210371D01*
X9698567Y-18172276D02*
X9698567Y-18210371D01*
X9993805Y-18448467D02*
X9984281Y-18438943D01*
X9965233Y-18410371D01*
X9955710Y-18391324D01*
X9946186Y-18362752D01*
X9936662Y-18315133D01*
X9936662Y-18277038D01*
X9946186Y-18229419D01*
X9955710Y-18200848D01*
X9965233Y-18181800D01*
X9984281Y-18153229D01*
X9993805Y-18143705D01*
X10060471Y-18191324D02*
X10069995Y-18181800D01*
X10089043Y-18172276D01*
X10136662Y-18172276D01*
X10155710Y-18181800D01*
X10165233Y-18191324D01*
X10174757Y-18210371D01*
X10174757Y-18229419D01*
X10165233Y-18257990D01*
X10050948Y-18372276D01*
X10174757Y-18372276D01*
X10250948Y-18191324D02*
X10260471Y-18181800D01*
X10279519Y-18172276D01*
X10327138Y-18172276D01*
X10346186Y-18181800D01*
X10355710Y-18191324D01*
X10365233Y-18210371D01*
X10365233Y-18229419D01*
X10355710Y-18257990D01*
X10241424Y-18372276D01*
X10365233Y-18372276D01*
X10603329Y-18372276D02*
X10603329Y-18172276D01*
X10689043Y-18372276D02*
X10689043Y-18267514D01*
X10679519Y-18248467D01*
X10660471Y-18238943D01*
X10631900Y-18238943D01*
X10612852Y-18248467D01*
X10603329Y-18257990D01*
X10812852Y-18372276D02*
X10793805Y-18362752D01*
X10784281Y-18353229D01*
X10774757Y-18334181D01*
X10774757Y-18277038D01*
X10784281Y-18257990D01*
X10793805Y-18248467D01*
X10812852Y-18238943D01*
X10841424Y-18238943D01*
X10860471Y-18248467D01*
X10869995Y-18257990D01*
X10879519Y-18277038D01*
X10879519Y-18334181D01*
X10869995Y-18353229D01*
X10860471Y-18362752D01*
X10841424Y-18372276D01*
X10812852Y-18372276D01*
X10993805Y-18372276D02*
X10974757Y-18362752D01*
X10965233Y-18343705D01*
X10965233Y-18172276D01*
X11146186Y-18362752D02*
X11127138Y-18372276D01*
X11089043Y-18372276D01*
X11069995Y-18362752D01*
X11060471Y-18343705D01*
X11060471Y-18267514D01*
X11069995Y-18248467D01*
X11089043Y-18238943D01*
X11127138Y-18238943D01*
X11146186Y-18248467D01*
X11155710Y-18267514D01*
X11155710Y-18286562D01*
X11060471Y-18305610D01*
X11231900Y-18362752D02*
X11250948Y-18372276D01*
X11289043Y-18372276D01*
X11308090Y-18362752D01*
X11317614Y-18343705D01*
X11317614Y-18334181D01*
X11308090Y-18315133D01*
X11289043Y-18305610D01*
X11260471Y-18305610D01*
X11241424Y-18296086D01*
X11231900Y-18277038D01*
X11231900Y-18267514D01*
X11241424Y-18248467D01*
X11260471Y-18238943D01*
X11289043Y-18238943D01*
X11308090Y-18248467D01*
X11384281Y-18448467D02*
X11393805Y-18438943D01*
X11412852Y-18410371D01*
X11422376Y-18391324D01*
X11431900Y-18362752D01*
X11441424Y-18315133D01*
X11441424Y-18277038D01*
X11431900Y-18229419D01*
X11422376Y-18200848D01*
X11412852Y-18181800D01*
X11393805Y-18153229D01*
X11384281Y-18143705D01*
D10*
X6321900Y-18495800D02*
X6421900Y-18595800D01*
X6421900Y-18495800D02*
X6321900Y-18595800D01*
X6421900Y-18545800D02*
G75*
G03*
X6421900Y-18545800I-50000J0D01*
G01*
D11*
X6784281Y-18636276D02*
X6669995Y-18636276D01*
X6727138Y-18636276D02*
X6727138Y-18436276D01*
X6708090Y-18464848D01*
X6689043Y-18483895D01*
X6669995Y-18493419D01*
X6869995Y-18617229D02*
X6879519Y-18626752D01*
X6869995Y-18636276D01*
X6860471Y-18626752D01*
X6869995Y-18617229D01*
X6869995Y-18636276D01*
X7003328Y-18436276D02*
X7022376Y-18436276D01*
X7041424Y-18445800D01*
X7050948Y-18455324D01*
X7060471Y-18474371D01*
X7069995Y-18512467D01*
X7069995Y-18560086D01*
X7060471Y-18598181D01*
X7050948Y-18617229D01*
X7041424Y-18626752D01*
X7022376Y-18636276D01*
X7003328Y-18636276D01*
X6984281Y-18626752D01*
X6974757Y-18617229D01*
X6965233Y-18598181D01*
X6955709Y-18560086D01*
X6955709Y-18512467D01*
X6965233Y-18474371D01*
X6974757Y-18455324D01*
X6984281Y-18445800D01*
X7003328Y-18436276D01*
X7193805Y-18436276D02*
X7212852Y-18436276D01*
X7231900Y-18445800D01*
X7241424Y-18455324D01*
X7250948Y-18474371D01*
X7260471Y-18512467D01*
X7260471Y-18560086D01*
X7250948Y-18598181D01*
X7241424Y-18617229D01*
X7231900Y-18626752D01*
X7212852Y-18636276D01*
X7193805Y-18636276D01*
X7174757Y-18626752D01*
X7165233Y-18617229D01*
X7155709Y-18598181D01*
X7146186Y-18560086D01*
X7146186Y-18512467D01*
X7155709Y-18474371D01*
X7165233Y-18455324D01*
X7174757Y-18445800D01*
X7193805Y-18436276D01*
X7384281Y-18436276D02*
X7403328Y-18436276D01*
X7422376Y-18445800D01*
X7431900Y-18455324D01*
X7441424Y-18474371D01*
X7450948Y-18512467D01*
X7450948Y-18560086D01*
X7441424Y-18598181D01*
X7431900Y-18617229D01*
X7422376Y-18626752D01*
X7403328Y-18636276D01*
X7384281Y-18636276D01*
X7365233Y-18626752D01*
X7355709Y-18617229D01*
X7346186Y-18598181D01*
X7336662Y-18560086D01*
X7336662Y-18512467D01*
X7346186Y-18474371D01*
X7355709Y-18455324D01*
X7365233Y-18445800D01*
X7384281Y-18436276D01*
X7536662Y-18636276D02*
X7536662Y-18502943D01*
X7536662Y-18521990D02*
X7546186Y-18512467D01*
X7565233Y-18502943D01*
X7593805Y-18502943D01*
X7612852Y-18512467D01*
X7622376Y-18531514D01*
X7622376Y-18636276D01*
X7622376Y-18531514D02*
X7631900Y-18512467D01*
X7650948Y-18502943D01*
X7679519Y-18502943D01*
X7698567Y-18512467D01*
X7708090Y-18531514D01*
X7708090Y-18636276D01*
X7803328Y-18636276D02*
X7803328Y-18502943D01*
X7803328Y-18521990D02*
X7812852Y-18512467D01*
X7831900Y-18502943D01*
X7860471Y-18502943D01*
X7879519Y-18512467D01*
X7889043Y-18531514D01*
X7889043Y-18636276D01*
X7889043Y-18531514D02*
X7898567Y-18512467D01*
X7917614Y-18502943D01*
X7946186Y-18502943D01*
X7965233Y-18512467D01*
X7974757Y-18531514D01*
X7974757Y-18636276D01*
X8365233Y-18426752D02*
X8193805Y-18683895D01*
X8622376Y-18436276D02*
X8641424Y-18436276D01*
X8660471Y-18445800D01*
X8669995Y-18455324D01*
X8679519Y-18474371D01*
X8689043Y-18512467D01*
X8689043Y-18560086D01*
X8679519Y-18598181D01*
X8669995Y-18617229D01*
X8660471Y-18626752D01*
X8641424Y-18636276D01*
X8622376Y-18636276D01*
X8603329Y-18626752D01*
X8593805Y-18617229D01*
X8584281Y-18598181D01*
X8574757Y-18560086D01*
X8574757Y-18512467D01*
X8584281Y-18474371D01*
X8593805Y-18455324D01*
X8603329Y-18445800D01*
X8622376Y-18436276D01*
X8774757Y-18617229D02*
X8784281Y-18626752D01*
X8774757Y-18636276D01*
X8765233Y-18626752D01*
X8774757Y-18617229D01*
X8774757Y-18636276D01*
X8908090Y-18436276D02*
X8927138Y-18436276D01*
X8946186Y-18445800D01*
X8955710Y-18455324D01*
X8965233Y-18474371D01*
X8974757Y-18512467D01*
X8974757Y-18560086D01*
X8965233Y-18598181D01*
X8955710Y-18617229D01*
X8946186Y-18626752D01*
X8927138Y-18636276D01*
X8908090Y-18636276D01*
X8889043Y-18626752D01*
X8879519Y-18617229D01*
X8869995Y-18598181D01*
X8860471Y-18560086D01*
X8860471Y-18512467D01*
X8869995Y-18474371D01*
X8879519Y-18455324D01*
X8889043Y-18445800D01*
X8908090Y-18436276D01*
X9041424Y-18436276D02*
X9165233Y-18436276D01*
X9098567Y-18512467D01*
X9127138Y-18512467D01*
X9146186Y-18521990D01*
X9155710Y-18531514D01*
X9165233Y-18550562D01*
X9165233Y-18598181D01*
X9155710Y-18617229D01*
X9146186Y-18626752D01*
X9127138Y-18636276D01*
X9069995Y-18636276D01*
X9050948Y-18626752D01*
X9041424Y-18617229D01*
X9260471Y-18636276D02*
X9298567Y-18636276D01*
X9317614Y-18626752D01*
X9327138Y-18617229D01*
X9346186Y-18588657D01*
X9355710Y-18550562D01*
X9355710Y-18474371D01*
X9346186Y-18455324D01*
X9336662Y-18445800D01*
X9317614Y-18436276D01*
X9279519Y-18436276D01*
X9260471Y-18445800D01*
X9250948Y-18455324D01*
X9241424Y-18474371D01*
X9241424Y-18521990D01*
X9250948Y-18541038D01*
X9260471Y-18550562D01*
X9279519Y-18560086D01*
X9317614Y-18560086D01*
X9336662Y-18550562D01*
X9346186Y-18541038D01*
X9355710Y-18521990D01*
X9527138Y-18502943D02*
X9527138Y-18636276D01*
X9479519Y-18426752D02*
X9431900Y-18569610D01*
X9555710Y-18569610D01*
X9622376Y-18436276D02*
X9622376Y-18474371D01*
X9698567Y-18436276D02*
X9698567Y-18474371D01*
X9993805Y-18712467D02*
X9984281Y-18702943D01*
X9965233Y-18674371D01*
X9955710Y-18655324D01*
X9946186Y-18626752D01*
X9936662Y-18579133D01*
X9936662Y-18541038D01*
X9946186Y-18493419D01*
X9955710Y-18464848D01*
X9965233Y-18445800D01*
X9984281Y-18417229D01*
X9993805Y-18407705D01*
X10079519Y-18636276D02*
X10117614Y-18636276D01*
X10136662Y-18626752D01*
X10146186Y-18617229D01*
X10165233Y-18588657D01*
X10174757Y-18550562D01*
X10174757Y-18474371D01*
X10165233Y-18455324D01*
X10155710Y-18445800D01*
X10136662Y-18436276D01*
X10098567Y-18436276D01*
X10079519Y-18445800D01*
X10069995Y-18455324D01*
X10060471Y-18474371D01*
X10060471Y-18521990D01*
X10069995Y-18541038D01*
X10079519Y-18550562D01*
X10098567Y-18560086D01*
X10136662Y-18560086D01*
X10155710Y-18550562D01*
X10165233Y-18541038D01*
X10174757Y-18521990D01*
X10298567Y-18436276D02*
X10317614Y-18436276D01*
X10336662Y-18445800D01*
X10346186Y-18455324D01*
X10355710Y-18474371D01*
X10365233Y-18512467D01*
X10365233Y-18560086D01*
X10355710Y-18598181D01*
X10346186Y-18617229D01*
X10336662Y-18626752D01*
X10317614Y-18636276D01*
X10298567Y-18636276D01*
X10279519Y-18626752D01*
X10269995Y-18617229D01*
X10260471Y-18598181D01*
X10250948Y-18560086D01*
X10250948Y-18512467D01*
X10260471Y-18474371D01*
X10269995Y-18455324D01*
X10279519Y-18445800D01*
X10298567Y-18436276D01*
X10603329Y-18636276D02*
X10603329Y-18436276D01*
X10689043Y-18636276D02*
X10689043Y-18531514D01*
X10679519Y-18512467D01*
X10660471Y-18502943D01*
X10631900Y-18502943D01*
X10612852Y-18512467D01*
X10603329Y-18521990D01*
X10812852Y-18636276D02*
X10793805Y-18626752D01*
X10784281Y-18617229D01*
X10774757Y-18598181D01*
X10774757Y-18541038D01*
X10784281Y-18521990D01*
X10793805Y-18512467D01*
X10812852Y-18502943D01*
X10841424Y-18502943D01*
X10860471Y-18512467D01*
X10869995Y-18521990D01*
X10879519Y-18541038D01*
X10879519Y-18598181D01*
X10869995Y-18617229D01*
X10860471Y-18626752D01*
X10841424Y-18636276D01*
X10812852Y-18636276D01*
X10993805Y-18636276D02*
X10974757Y-18626752D01*
X10965233Y-18607705D01*
X10965233Y-18436276D01*
X11146186Y-18626752D02*
X11127138Y-18636276D01*
X11089043Y-18636276D01*
X11069995Y-18626752D01*
X11060471Y-18607705D01*
X11060471Y-18531514D01*
X11069995Y-18512467D01*
X11089043Y-18502943D01*
X11127138Y-18502943D01*
X11146186Y-18512467D01*
X11155710Y-18531514D01*
X11155710Y-18550562D01*
X11060471Y-18569610D01*
X11231900Y-18626752D02*
X11250948Y-18636276D01*
X11289043Y-18636276D01*
X11308090Y-18626752D01*
X11317614Y-18607705D01*
X11317614Y-18598181D01*
X11308090Y-18579133D01*
X11289043Y-18569610D01*
X11260471Y-18569610D01*
X11241424Y-18560086D01*
X11231900Y-18541038D01*
X11231900Y-18531514D01*
X11241424Y-18512467D01*
X11260471Y-18502943D01*
X11289043Y-18502943D01*
X11308090Y-18512467D01*
X11384281Y-18712467D02*
X11393805Y-18702943D01*
X11412852Y-18674371D01*
X11422376Y-18655324D01*
X11431900Y-18626752D01*
X11441424Y-18579133D01*
X11441424Y-18541038D01*
X11431900Y-18493419D01*
X11422376Y-18464848D01*
X11412852Y-18445800D01*
X11393805Y-18417229D01*
X11384281Y-18407705D01*
D17*
X6311900Y-18754800D02*
X6421900Y-18864800D01*
X6421900Y-18754800D02*
X6311900Y-18864800D01*
X6366900Y-18754800D02*
X6366900Y-18864800D01*
X6311900Y-18809800D02*
X6421900Y-18809800D01*
D11*
X6784281Y-18900276D02*
X6669995Y-18900276D01*
X6727138Y-18900276D02*
X6727138Y-18700276D01*
X6708090Y-18728848D01*
X6689043Y-18747895D01*
X6669995Y-18757419D01*
X6869995Y-18881229D02*
X6879519Y-18890752D01*
X6869995Y-18900276D01*
X6860471Y-18890752D01*
X6869995Y-18881229D01*
X6869995Y-18900276D01*
X7069995Y-18900276D02*
X6955709Y-18900276D01*
X7012852Y-18900276D02*
X7012852Y-18700276D01*
X6993805Y-18728848D01*
X6974757Y-18747895D01*
X6955709Y-18757419D01*
X7193805Y-18700276D02*
X7212852Y-18700276D01*
X7231900Y-18709800D01*
X7241424Y-18719324D01*
X7250948Y-18738371D01*
X7260471Y-18776467D01*
X7260471Y-18824086D01*
X7250948Y-18862181D01*
X7241424Y-18881229D01*
X7231900Y-18890752D01*
X7212852Y-18900276D01*
X7193805Y-18900276D01*
X7174757Y-18890752D01*
X7165233Y-18881229D01*
X7155709Y-18862181D01*
X7146186Y-18824086D01*
X7146186Y-18776467D01*
X7155709Y-18738371D01*
X7165233Y-18719324D01*
X7174757Y-18709800D01*
X7193805Y-18700276D01*
X7384281Y-18700276D02*
X7403328Y-18700276D01*
X7422376Y-18709800D01*
X7431900Y-18719324D01*
X7441424Y-18738371D01*
X7450948Y-18776467D01*
X7450948Y-18824086D01*
X7441424Y-18862181D01*
X7431900Y-18881229D01*
X7422376Y-18890752D01*
X7403328Y-18900276D01*
X7384281Y-18900276D01*
X7365233Y-18890752D01*
X7355709Y-18881229D01*
X7346186Y-18862181D01*
X7336662Y-18824086D01*
X7336662Y-18776467D01*
X7346186Y-18738371D01*
X7355709Y-18719324D01*
X7365233Y-18709800D01*
X7384281Y-18700276D01*
X7536662Y-18900276D02*
X7536662Y-18766943D01*
X7536662Y-18785990D02*
X7546186Y-18776467D01*
X7565233Y-18766943D01*
X7593805Y-18766943D01*
X7612852Y-18776467D01*
X7622376Y-18795514D01*
X7622376Y-18900276D01*
X7622376Y-18795514D02*
X7631900Y-18776467D01*
X7650948Y-18766943D01*
X7679519Y-18766943D01*
X7698567Y-18776467D01*
X7708090Y-18795514D01*
X7708090Y-18900276D01*
X7803328Y-18900276D02*
X7803328Y-18766943D01*
X7803328Y-18785990D02*
X7812852Y-18776467D01*
X7831900Y-18766943D01*
X7860471Y-18766943D01*
X7879519Y-18776467D01*
X7889043Y-18795514D01*
X7889043Y-18900276D01*
X7889043Y-18795514D02*
X7898567Y-18776467D01*
X7917614Y-18766943D01*
X7946186Y-18766943D01*
X7965233Y-18776467D01*
X7974757Y-18795514D01*
X7974757Y-18900276D01*
X8365233Y-18690752D02*
X8193805Y-18947895D01*
X8622376Y-18700276D02*
X8641424Y-18700276D01*
X8660471Y-18709800D01*
X8669995Y-18719324D01*
X8679519Y-18738371D01*
X8689043Y-18776467D01*
X8689043Y-18824086D01*
X8679519Y-18862181D01*
X8669995Y-18881229D01*
X8660471Y-18890752D01*
X8641424Y-18900276D01*
X8622376Y-18900276D01*
X8603329Y-18890752D01*
X8593805Y-18881229D01*
X8584281Y-18862181D01*
X8574757Y-18824086D01*
X8574757Y-18776467D01*
X8584281Y-18738371D01*
X8593805Y-18719324D01*
X8603329Y-18709800D01*
X8622376Y-18700276D01*
X8774757Y-18881229D02*
X8784281Y-18890752D01*
X8774757Y-18900276D01*
X8765233Y-18890752D01*
X8774757Y-18881229D01*
X8774757Y-18900276D01*
X8908090Y-18700276D02*
X8927138Y-18700276D01*
X8946186Y-18709800D01*
X8955710Y-18719324D01*
X8965233Y-18738371D01*
X8974757Y-18776467D01*
X8974757Y-18824086D01*
X8965233Y-18862181D01*
X8955710Y-18881229D01*
X8946186Y-18890752D01*
X8927138Y-18900276D01*
X8908090Y-18900276D01*
X8889043Y-18890752D01*
X8879519Y-18881229D01*
X8869995Y-18862181D01*
X8860471Y-18824086D01*
X8860471Y-18776467D01*
X8869995Y-18738371D01*
X8879519Y-18719324D01*
X8889043Y-18709800D01*
X8908090Y-18700276D01*
X9146186Y-18766943D02*
X9146186Y-18900276D01*
X9098567Y-18690752D02*
X9050948Y-18833610D01*
X9174757Y-18833610D01*
X9231900Y-18700276D02*
X9355710Y-18700276D01*
X9289043Y-18776467D01*
X9317614Y-18776467D01*
X9336662Y-18785990D01*
X9346186Y-18795514D01*
X9355710Y-18814562D01*
X9355710Y-18862181D01*
X9346186Y-18881229D01*
X9336662Y-18890752D01*
X9317614Y-18900276D01*
X9260471Y-18900276D01*
X9241424Y-18890752D01*
X9231900Y-18881229D01*
X9422376Y-18700276D02*
X9546186Y-18700276D01*
X9479519Y-18776467D01*
X9508090Y-18776467D01*
X9527138Y-18785990D01*
X9536662Y-18795514D01*
X9546186Y-18814562D01*
X9546186Y-18862181D01*
X9536662Y-18881229D01*
X9527138Y-18890752D01*
X9508090Y-18900276D01*
X9450948Y-18900276D01*
X9431900Y-18890752D01*
X9422376Y-18881229D01*
X9622376Y-18700276D02*
X9622376Y-18738371D01*
X9698567Y-18700276D02*
X9698567Y-18738371D01*
X9993805Y-18976467D02*
X9984281Y-18966943D01*
X9965233Y-18938371D01*
X9955710Y-18919324D01*
X9946186Y-18890752D01*
X9936662Y-18843133D01*
X9936662Y-18805038D01*
X9946186Y-18757419D01*
X9955710Y-18728848D01*
X9965233Y-18709800D01*
X9984281Y-18681229D01*
X9993805Y-18671705D01*
X10155710Y-18700276D02*
X10117614Y-18700276D01*
X10098567Y-18709800D01*
X10089043Y-18719324D01*
X10069995Y-18747895D01*
X10060471Y-18785990D01*
X10060471Y-18862181D01*
X10069995Y-18881229D01*
X10079519Y-18890752D01*
X10098567Y-18900276D01*
X10136662Y-18900276D01*
X10155710Y-18890752D01*
X10165233Y-18881229D01*
X10174757Y-18862181D01*
X10174757Y-18814562D01*
X10165233Y-18795514D01*
X10155710Y-18785990D01*
X10136662Y-18776467D01*
X10098567Y-18776467D01*
X10079519Y-18785990D01*
X10069995Y-18795514D01*
X10060471Y-18814562D01*
X10412852Y-18900276D02*
X10412852Y-18700276D01*
X10498567Y-18900276D02*
X10498567Y-18795514D01*
X10489043Y-18776467D01*
X10469995Y-18766943D01*
X10441424Y-18766943D01*
X10422376Y-18776467D01*
X10412852Y-18785990D01*
X10622376Y-18900276D02*
X10603329Y-18890752D01*
X10593805Y-18881229D01*
X10584281Y-18862181D01*
X10584281Y-18805038D01*
X10593805Y-18785990D01*
X10603329Y-18776467D01*
X10622376Y-18766943D01*
X10650948Y-18766943D01*
X10669995Y-18776467D01*
X10679519Y-18785990D01*
X10689043Y-18805038D01*
X10689043Y-18862181D01*
X10679519Y-18881229D01*
X10669995Y-18890752D01*
X10650948Y-18900276D01*
X10622376Y-18900276D01*
X10803329Y-18900276D02*
X10784281Y-18890752D01*
X10774757Y-18871705D01*
X10774757Y-18700276D01*
X10955710Y-18890752D02*
X10936662Y-18900276D01*
X10898567Y-18900276D01*
X10879519Y-18890752D01*
X10869995Y-18871705D01*
X10869995Y-18795514D01*
X10879519Y-18776467D01*
X10898567Y-18766943D01*
X10936662Y-18766943D01*
X10955710Y-18776467D01*
X10965233Y-18795514D01*
X10965233Y-18814562D01*
X10869995Y-18833610D01*
X11041424Y-18890752D02*
X11060471Y-18900276D01*
X11098567Y-18900276D01*
X11117614Y-18890752D01*
X11127138Y-18871705D01*
X11127138Y-18862181D01*
X11117614Y-18843133D01*
X11098567Y-18833610D01*
X11069995Y-18833610D01*
X11050948Y-18824086D01*
X11041424Y-18805038D01*
X11041424Y-18795514D01*
X11050948Y-18776467D01*
X11069995Y-18766943D01*
X11098567Y-18766943D01*
X11117614Y-18776467D01*
X11193805Y-18976467D02*
X11203328Y-18966943D01*
X11222376Y-18938371D01*
X11231900Y-18919324D01*
X11241424Y-18890752D01*
X11250948Y-18843133D01*
X11250948Y-18805038D01*
X11241424Y-18757419D01*
X11231900Y-18728848D01*
X11222376Y-18709800D01*
X11203328Y-18681229D01*
X11193805Y-18671705D01*
D18*
X6261900Y-18993800D02*
X6421900Y-19153800D01*
X6421900Y-18993800D02*
X6261900Y-19153800D01*
X6398469Y-19130369D02*
X6398469Y-19017231D01*
X6285331Y-19017231D01*
X6285331Y-19130369D01*
X6398469Y-19130369D01*
D11*
X6784281Y-19164276D02*
X6669995Y-19164276D01*
X6727138Y-19164276D02*
X6727138Y-18964276D01*
X6708090Y-18992848D01*
X6689043Y-19011895D01*
X6669995Y-19021419D01*
X6869995Y-19145229D02*
X6879519Y-19154752D01*
X6869995Y-19164276D01*
X6860471Y-19154752D01*
X6869995Y-19145229D01*
X6869995Y-19164276D01*
X7050948Y-18964276D02*
X7012852Y-18964276D01*
X6993805Y-18973800D01*
X6984281Y-18983324D01*
X6965233Y-19011895D01*
X6955709Y-19049990D01*
X6955709Y-19126181D01*
X6965233Y-19145229D01*
X6974757Y-19154752D01*
X6993805Y-19164276D01*
X7031900Y-19164276D01*
X7050948Y-19154752D01*
X7060471Y-19145229D01*
X7069995Y-19126181D01*
X7069995Y-19078562D01*
X7060471Y-19059514D01*
X7050948Y-19049990D01*
X7031900Y-19040467D01*
X6993805Y-19040467D01*
X6974757Y-19049990D01*
X6965233Y-19059514D01*
X6955709Y-19078562D01*
X7193805Y-18964276D02*
X7212852Y-18964276D01*
X7231900Y-18973800D01*
X7241424Y-18983324D01*
X7250948Y-19002371D01*
X7260471Y-19040467D01*
X7260471Y-19088086D01*
X7250948Y-19126181D01*
X7241424Y-19145229D01*
X7231900Y-19154752D01*
X7212852Y-19164276D01*
X7193805Y-19164276D01*
X7174757Y-19154752D01*
X7165233Y-19145229D01*
X7155709Y-19126181D01*
X7146186Y-19088086D01*
X7146186Y-19040467D01*
X7155709Y-19002371D01*
X7165233Y-18983324D01*
X7174757Y-18973800D01*
X7193805Y-18964276D01*
X7384281Y-18964276D02*
X7403328Y-18964276D01*
X7422376Y-18973800D01*
X7431900Y-18983324D01*
X7441424Y-19002371D01*
X7450948Y-19040467D01*
X7450948Y-19088086D01*
X7441424Y-19126181D01*
X7431900Y-19145229D01*
X7422376Y-19154752D01*
X7403328Y-19164276D01*
X7384281Y-19164276D01*
X7365233Y-19154752D01*
X7355709Y-19145229D01*
X7346186Y-19126181D01*
X7336662Y-19088086D01*
X7336662Y-19040467D01*
X7346186Y-19002371D01*
X7355709Y-18983324D01*
X7365233Y-18973800D01*
X7384281Y-18964276D01*
X7536662Y-19164276D02*
X7536662Y-19030943D01*
X7536662Y-19049990D02*
X7546186Y-19040467D01*
X7565233Y-19030943D01*
X7593805Y-19030943D01*
X7612852Y-19040467D01*
X7622376Y-19059514D01*
X7622376Y-19164276D01*
X7622376Y-19059514D02*
X7631900Y-19040467D01*
X7650948Y-19030943D01*
X7679519Y-19030943D01*
X7698567Y-19040467D01*
X7708090Y-19059514D01*
X7708090Y-19164276D01*
X7803328Y-19164276D02*
X7803328Y-19030943D01*
X7803328Y-19049990D02*
X7812852Y-19040467D01*
X7831900Y-19030943D01*
X7860471Y-19030943D01*
X7879519Y-19040467D01*
X7889043Y-19059514D01*
X7889043Y-19164276D01*
X7889043Y-19059514D02*
X7898567Y-19040467D01*
X7917614Y-19030943D01*
X7946186Y-19030943D01*
X7965233Y-19040467D01*
X7974757Y-19059514D01*
X7974757Y-19164276D01*
X8365233Y-18954752D02*
X8193805Y-19211895D01*
X8622376Y-18964276D02*
X8641424Y-18964276D01*
X8660471Y-18973800D01*
X8669995Y-18983324D01*
X8679519Y-19002371D01*
X8689043Y-19040467D01*
X8689043Y-19088086D01*
X8679519Y-19126181D01*
X8669995Y-19145229D01*
X8660471Y-19154752D01*
X8641424Y-19164276D01*
X8622376Y-19164276D01*
X8603329Y-19154752D01*
X8593805Y-19145229D01*
X8584281Y-19126181D01*
X8574757Y-19088086D01*
X8574757Y-19040467D01*
X8584281Y-19002371D01*
X8593805Y-18983324D01*
X8603329Y-18973800D01*
X8622376Y-18964276D01*
X8774757Y-19145229D02*
X8784281Y-19154752D01*
X8774757Y-19164276D01*
X8765233Y-19154752D01*
X8774757Y-19145229D01*
X8774757Y-19164276D01*
X8908090Y-18964276D02*
X8927138Y-18964276D01*
X8946186Y-18973800D01*
X8955710Y-18983324D01*
X8965233Y-19002371D01*
X8974757Y-19040467D01*
X8974757Y-19088086D01*
X8965233Y-19126181D01*
X8955710Y-19145229D01*
X8946186Y-19154752D01*
X8927138Y-19164276D01*
X8908090Y-19164276D01*
X8889043Y-19154752D01*
X8879519Y-19145229D01*
X8869995Y-19126181D01*
X8860471Y-19088086D01*
X8860471Y-19040467D01*
X8869995Y-19002371D01*
X8879519Y-18983324D01*
X8889043Y-18973800D01*
X8908090Y-18964276D01*
X9146186Y-18964276D02*
X9108090Y-18964276D01*
X9089043Y-18973800D01*
X9079519Y-18983324D01*
X9060471Y-19011895D01*
X9050948Y-19049990D01*
X9050948Y-19126181D01*
X9060471Y-19145229D01*
X9069995Y-19154752D01*
X9089043Y-19164276D01*
X9127138Y-19164276D01*
X9146186Y-19154752D01*
X9155710Y-19145229D01*
X9165233Y-19126181D01*
X9165233Y-19078562D01*
X9155710Y-19059514D01*
X9146186Y-19049990D01*
X9127138Y-19040467D01*
X9089043Y-19040467D01*
X9069995Y-19049990D01*
X9060471Y-19059514D01*
X9050948Y-19078562D01*
X9231900Y-18964276D02*
X9355710Y-18964276D01*
X9289043Y-19040467D01*
X9317614Y-19040467D01*
X9336662Y-19049990D01*
X9346186Y-19059514D01*
X9355710Y-19078562D01*
X9355710Y-19126181D01*
X9346186Y-19145229D01*
X9336662Y-19154752D01*
X9317614Y-19164276D01*
X9260471Y-19164276D01*
X9241424Y-19154752D01*
X9231900Y-19145229D01*
X9479519Y-18964276D02*
X9498567Y-18964276D01*
X9517614Y-18973800D01*
X9527138Y-18983324D01*
X9536662Y-19002371D01*
X9546186Y-19040467D01*
X9546186Y-19088086D01*
X9536662Y-19126181D01*
X9527138Y-19145229D01*
X9517614Y-19154752D01*
X9498567Y-19164276D01*
X9479519Y-19164276D01*
X9460471Y-19154752D01*
X9450948Y-19145229D01*
X9441424Y-19126181D01*
X9431900Y-19088086D01*
X9431900Y-19040467D01*
X9441424Y-19002371D01*
X9450948Y-18983324D01*
X9460471Y-18973800D01*
X9479519Y-18964276D01*
X9622376Y-18964276D02*
X9622376Y-19002371D01*
X9698567Y-18964276D02*
X9698567Y-19002371D01*
X9993805Y-19240467D02*
X9984281Y-19230943D01*
X9965233Y-19202371D01*
X9955710Y-19183324D01*
X9946186Y-19154752D01*
X9936662Y-19107133D01*
X9936662Y-19069038D01*
X9946186Y-19021419D01*
X9955710Y-18992848D01*
X9965233Y-18973800D01*
X9984281Y-18945229D01*
X9993805Y-18935705D01*
X10155710Y-18964276D02*
X10117614Y-18964276D01*
X10098567Y-18973800D01*
X10089043Y-18983324D01*
X10069995Y-19011895D01*
X10060471Y-19049990D01*
X10060471Y-19126181D01*
X10069995Y-19145229D01*
X10079519Y-19154752D01*
X10098567Y-19164276D01*
X10136662Y-19164276D01*
X10155710Y-19154752D01*
X10165233Y-19145229D01*
X10174757Y-19126181D01*
X10174757Y-19078562D01*
X10165233Y-19059514D01*
X10155710Y-19049990D01*
X10136662Y-19040467D01*
X10098567Y-19040467D01*
X10079519Y-19049990D01*
X10069995Y-19059514D01*
X10060471Y-19078562D01*
X10412852Y-19164276D02*
X10412852Y-18964276D01*
X10498567Y-19164276D02*
X10498567Y-19059514D01*
X10489043Y-19040467D01*
X10469995Y-19030943D01*
X10441424Y-19030943D01*
X10422376Y-19040467D01*
X10412852Y-19049990D01*
X10622376Y-19164276D02*
X10603329Y-19154752D01*
X10593805Y-19145229D01*
X10584281Y-19126181D01*
X10584281Y-19069038D01*
X10593805Y-19049990D01*
X10603329Y-19040467D01*
X10622376Y-19030943D01*
X10650948Y-19030943D01*
X10669995Y-19040467D01*
X10679519Y-19049990D01*
X10689043Y-19069038D01*
X10689043Y-19126181D01*
X10679519Y-19145229D01*
X10669995Y-19154752D01*
X10650948Y-19164276D01*
X10622376Y-19164276D01*
X10803329Y-19164276D02*
X10784281Y-19154752D01*
X10774757Y-19135705D01*
X10774757Y-18964276D01*
X10955710Y-19154752D02*
X10936662Y-19164276D01*
X10898567Y-19164276D01*
X10879519Y-19154752D01*
X10869995Y-19135705D01*
X10869995Y-19059514D01*
X10879519Y-19040467D01*
X10898567Y-19030943D01*
X10936662Y-19030943D01*
X10955710Y-19040467D01*
X10965233Y-19059514D01*
X10965233Y-19078562D01*
X10869995Y-19097610D01*
X11041424Y-19154752D02*
X11060471Y-19164276D01*
X11098567Y-19164276D01*
X11117614Y-19154752D01*
X11127138Y-19135705D01*
X11127138Y-19126181D01*
X11117614Y-19107133D01*
X11098567Y-19097610D01*
X11069995Y-19097610D01*
X11050948Y-19088086D01*
X11041424Y-19069038D01*
X11041424Y-19059514D01*
X11050948Y-19040467D01*
X11069995Y-19030943D01*
X11098567Y-19030943D01*
X11117614Y-19040467D01*
X11193805Y-19240467D02*
X11203328Y-19230943D01*
X11222376Y-19202371D01*
X11231900Y-19183324D01*
X11241424Y-19154752D01*
X11250948Y-19107133D01*
X11250948Y-19069038D01*
X11241424Y-19021419D01*
X11231900Y-18992848D01*
X11222376Y-18973800D01*
X11203328Y-18945229D01*
X11193805Y-18935705D01*
X6221900Y-19253800D02*
X6421900Y-19453800D01*
X6421900Y-19253800D02*
X6221900Y-19453800D01*
X6321900Y-19453800D02*
X6421900Y-19353800D01*
X6321900Y-19253800D01*
X6221900Y-19353800D01*
X6321900Y-19453800D01*
X6669995Y-19263324D02*
X6679519Y-19253800D01*
X6698567Y-19244276D01*
X6746186Y-19244276D01*
X6765233Y-19253800D01*
X6774757Y-19263324D01*
X6784281Y-19282371D01*
X6784281Y-19301419D01*
X6774757Y-19329990D01*
X6660471Y-19444276D01*
X6784281Y-19444276D01*
X6869995Y-19425229D02*
X6879519Y-19434752D01*
X6869995Y-19444276D01*
X6860471Y-19434752D01*
X6869995Y-19425229D01*
X6869995Y-19444276D01*
X6946186Y-19244276D02*
X7079519Y-19244276D01*
X6993805Y-19444276D01*
X7250948Y-19244276D02*
X7155709Y-19244276D01*
X7146186Y-19339514D01*
X7155709Y-19329990D01*
X7174757Y-19320467D01*
X7222376Y-19320467D01*
X7241424Y-19329990D01*
X7250948Y-19339514D01*
X7260471Y-19358562D01*
X7260471Y-19406181D01*
X7250948Y-19425229D01*
X7241424Y-19434752D01*
X7222376Y-19444276D01*
X7174757Y-19444276D01*
X7155709Y-19434752D01*
X7146186Y-19425229D01*
X7384281Y-19244276D02*
X7403328Y-19244276D01*
X7422376Y-19253800D01*
X7431900Y-19263324D01*
X7441424Y-19282371D01*
X7450948Y-19320467D01*
X7450948Y-19368086D01*
X7441424Y-19406181D01*
X7431900Y-19425229D01*
X7422376Y-19434752D01*
X7403328Y-19444276D01*
X7384281Y-19444276D01*
X7365233Y-19434752D01*
X7355709Y-19425229D01*
X7346186Y-19406181D01*
X7336662Y-19368086D01*
X7336662Y-19320467D01*
X7346186Y-19282371D01*
X7355709Y-19263324D01*
X7365233Y-19253800D01*
X7384281Y-19244276D01*
X7536662Y-19444276D02*
X7536662Y-19310943D01*
X7536662Y-19329990D02*
X7546186Y-19320467D01*
X7565233Y-19310943D01*
X7593805Y-19310943D01*
X7612852Y-19320467D01*
X7622376Y-19339514D01*
X7622376Y-19444276D01*
X7622376Y-19339514D02*
X7631900Y-19320467D01*
X7650948Y-19310943D01*
X7679519Y-19310943D01*
X7698567Y-19320467D01*
X7708090Y-19339514D01*
X7708090Y-19444276D01*
X7803328Y-19444276D02*
X7803328Y-19310943D01*
X7803328Y-19329990D02*
X7812852Y-19320467D01*
X7831900Y-19310943D01*
X7860471Y-19310943D01*
X7879519Y-19320467D01*
X7889043Y-19339514D01*
X7889043Y-19444276D01*
X7889043Y-19339514D02*
X7898567Y-19320467D01*
X7917614Y-19310943D01*
X7946186Y-19310943D01*
X7965233Y-19320467D01*
X7974757Y-19339514D01*
X7974757Y-19444276D01*
X8365233Y-19234752D02*
X8193805Y-19491895D01*
X8622376Y-19244276D02*
X8641424Y-19244276D01*
X8660471Y-19253800D01*
X8669995Y-19263324D01*
X8679519Y-19282371D01*
X8689043Y-19320467D01*
X8689043Y-19368086D01*
X8679519Y-19406181D01*
X8669995Y-19425229D01*
X8660471Y-19434752D01*
X8641424Y-19444276D01*
X8622376Y-19444276D01*
X8603329Y-19434752D01*
X8593805Y-19425229D01*
X8584281Y-19406181D01*
X8574757Y-19368086D01*
X8574757Y-19320467D01*
X8584281Y-19282371D01*
X8593805Y-19263324D01*
X8603329Y-19253800D01*
X8622376Y-19244276D01*
X8774757Y-19425229D02*
X8784281Y-19434752D01*
X8774757Y-19444276D01*
X8765233Y-19434752D01*
X8774757Y-19425229D01*
X8774757Y-19444276D01*
X8974757Y-19444276D02*
X8860471Y-19444276D01*
X8917614Y-19444276D02*
X8917614Y-19244276D01*
X8898567Y-19272848D01*
X8879519Y-19291895D01*
X8860471Y-19301419D01*
X9098567Y-19244276D02*
X9117614Y-19244276D01*
X9136662Y-19253800D01*
X9146186Y-19263324D01*
X9155710Y-19282371D01*
X9165233Y-19320467D01*
X9165233Y-19368086D01*
X9155710Y-19406181D01*
X9146186Y-19425229D01*
X9136662Y-19434752D01*
X9117614Y-19444276D01*
X9098567Y-19444276D01*
X9079519Y-19434752D01*
X9069995Y-19425229D01*
X9060471Y-19406181D01*
X9050948Y-19368086D01*
X9050948Y-19320467D01*
X9060471Y-19282371D01*
X9069995Y-19263324D01*
X9079519Y-19253800D01*
X9098567Y-19244276D01*
X9279519Y-19329990D02*
X9260471Y-19320467D01*
X9250948Y-19310943D01*
X9241424Y-19291895D01*
X9241424Y-19282371D01*
X9250948Y-19263324D01*
X9260471Y-19253800D01*
X9279519Y-19244276D01*
X9317614Y-19244276D01*
X9336662Y-19253800D01*
X9346186Y-19263324D01*
X9355710Y-19282371D01*
X9355710Y-19291895D01*
X9346186Y-19310943D01*
X9336662Y-19320467D01*
X9317614Y-19329990D01*
X9279519Y-19329990D01*
X9260471Y-19339514D01*
X9250948Y-19349038D01*
X9241424Y-19368086D01*
X9241424Y-19406181D01*
X9250948Y-19425229D01*
X9260471Y-19434752D01*
X9279519Y-19444276D01*
X9317614Y-19444276D01*
X9336662Y-19434752D01*
X9346186Y-19425229D01*
X9355710Y-19406181D01*
X9355710Y-19368086D01*
X9346186Y-19349038D01*
X9336662Y-19339514D01*
X9317614Y-19329990D01*
X9422376Y-19244276D02*
X9546186Y-19244276D01*
X9479519Y-19320467D01*
X9508090Y-19320467D01*
X9527138Y-19329990D01*
X9536662Y-19339514D01*
X9546186Y-19358562D01*
X9546186Y-19406181D01*
X9536662Y-19425229D01*
X9527138Y-19434752D01*
X9508090Y-19444276D01*
X9450948Y-19444276D01*
X9431900Y-19434752D01*
X9422376Y-19425229D01*
X9622376Y-19244276D02*
X9622376Y-19282371D01*
X9698567Y-19244276D02*
X9698567Y-19282371D01*
X9993805Y-19520467D02*
X9984281Y-19510943D01*
X9965233Y-19482371D01*
X9955710Y-19463324D01*
X9946186Y-19434752D01*
X9936662Y-19387133D01*
X9936662Y-19349038D01*
X9946186Y-19301419D01*
X9955710Y-19272848D01*
X9965233Y-19253800D01*
X9984281Y-19225229D01*
X9993805Y-19215705D01*
X10050948Y-19244276D02*
X10184281Y-19244276D01*
X10098567Y-19444276D01*
X10412852Y-19444276D02*
X10412852Y-19244276D01*
X10498567Y-19444276D02*
X10498567Y-19339514D01*
X10489043Y-19320467D01*
X10469995Y-19310943D01*
X10441424Y-19310943D01*
X10422376Y-19320467D01*
X10412852Y-19329990D01*
X10622376Y-19444276D02*
X10603329Y-19434752D01*
X10593805Y-19425229D01*
X10584281Y-19406181D01*
X10584281Y-19349038D01*
X10593805Y-19329990D01*
X10603329Y-19320467D01*
X10622376Y-19310943D01*
X10650948Y-19310943D01*
X10669995Y-19320467D01*
X10679519Y-19329990D01*
X10689043Y-19349038D01*
X10689043Y-19406181D01*
X10679519Y-19425229D01*
X10669995Y-19434752D01*
X10650948Y-19444276D01*
X10622376Y-19444276D01*
X10803329Y-19444276D02*
X10784281Y-19434752D01*
X10774757Y-19415705D01*
X10774757Y-19244276D01*
X10955710Y-19434752D02*
X10936662Y-19444276D01*
X10898567Y-19444276D01*
X10879519Y-19434752D01*
X10869995Y-19415705D01*
X10869995Y-19339514D01*
X10879519Y-19320467D01*
X10898567Y-19310943D01*
X10936662Y-19310943D01*
X10955710Y-19320467D01*
X10965233Y-19339514D01*
X10965233Y-19358562D01*
X10869995Y-19377610D01*
X11041424Y-19434752D02*
X11060471Y-19444276D01*
X11098567Y-19444276D01*
X11117614Y-19434752D01*
X11127138Y-19415705D01*
X11127138Y-19406181D01*
X11117614Y-19387133D01*
X11098567Y-19377610D01*
X11069995Y-19377610D01*
X11050948Y-19368086D01*
X11041424Y-19349038D01*
X11041424Y-19339514D01*
X11050948Y-19320467D01*
X11069995Y-19310943D01*
X11098567Y-19310943D01*
X11117614Y-19320467D01*
X11193805Y-19520467D02*
X11203328Y-19510943D01*
X11222376Y-19482371D01*
X11231900Y-19463324D01*
X11241424Y-19434752D01*
X11250948Y-19387133D01*
X11250948Y-19349038D01*
X11241424Y-19301419D01*
X11231900Y-19272848D01*
X11222376Y-19253800D01*
X11203328Y-19225229D01*
X11193805Y-19215705D01*
M02*
