M48
; DRILL file {KiCad 6.0.8} date Sat 11 Nov 2023 03:32:52 PM
; FORMAT={-:-/ absolute / metric / decimal}
; #@! TF.CreationDate,2023-11-11T15:32:52-08:00
; #@! TF.GenerationSoftware,Kicad,Pcbnew,6.0.8
; #@! TF.FileFunction,Plated,1,2,PTH
FMAT,2
METRIC
; #@! TA.AperFunction,Plated,PTH,ViaDrill
T1C0.400
; #@! TA.AperFunction,Plated,PTH,ViaDrill
T2C0.600
; #@! TA.AperFunction,Plated,PTH,ComponentDrill
T3C0.762
; #@! TA.AperFunction,Plated,PTH,ComponentDrill
T4C0.800
; #@! TA.AperFunction,Plated,PTH,ComponentDrill
T5C0.900
; #@! TA.AperFunction,Plated,PTH,ComponentDrill
T6C1.000
; #@! TA.AperFunction,Plated,PTH,ComponentDrill
T7C1.100
; #@! TA.AperFunction,Plated,PTH,ComponentDrill
T8C1.600
; #@! TA.AperFunction,Plated,PTH,ComponentDrill
T9C2.750
%
G90
G05
T1
X122.16Y-67.31
X139.686Y-93.091
T2
X126.605Y-46.355
T3
X98.425Y-49.657
X98.425Y-53.975
X103.11Y-49.53
X103.11Y-53.975
X132.604Y-135.255
X132.604Y-137.795
X159.385Y-67.31
X159.385Y-128.27
X182.245Y-67.31
X182.245Y-128.27
T4
X99.3Y-76.2
X99.3Y-86.36
X99.3Y-92.71
X99.3Y-97.155
X99.3Y-107.315
X104.38Y-76.2
X104.38Y-86.36
X109.46Y-53.975
X109.46Y-79.375
X109.46Y-83.82
X109.46Y-88.265
X109.46Y-92.71
X109.5Y-97.155
X110.095Y-65.405
X110.095Y-75.565
X110.73Y-113.665
X110.73Y-123.825
X110.73Y-128.905
X110.73Y-139.065
X111.46Y-53.975
X112.0Y-97.155
X113.27Y-92.71
X115.81Y-113.665
X115.81Y-123.825
X115.81Y-128.905
X115.81Y-139.065
X117.08Y-97.155
X119.62Y-70.485
X119.62Y-75.565
X119.62Y-79.375
X119.62Y-83.82
X119.62Y-88.265
X120.16Y-53.975
X120.89Y-103.505
X120.89Y-108.585
X120.89Y-118.745
X120.89Y-123.825
X120.89Y-128.905
X122.16Y-53.975
X123.43Y-92.71
X125.97Y-108.585
X125.97Y-118.745
X127.24Y-57.15
X127.24Y-97.155
X127.895Y-80.391
X127.895Y-85.09
X127.895Y-90.17
X129.78Y-70.485
X129.78Y-75.565
X130.395Y-80.391
X130.395Y-85.09
X130.395Y-90.17
X130.415Y-44.45
X130.415Y-46.95
X131.05Y-103.505
X131.05Y-108.585
X131.05Y-118.745
X131.05Y-123.825
X131.05Y-128.905
X134.62Y-40.64
X134.62Y-45.085
X136.13Y-67.945
X136.13Y-78.105
X137.4Y-57.15
X142.48Y-53.975
X144.78Y-40.64
X144.78Y-45.085
X146.29Y-125.095
X152.64Y-53.975
X155.815Y-55.245
X155.942Y-60.071
X156.45Y-125.095
X165.1Y-42.027
X165.1Y-44.527
X165.975Y-55.245
X166.102Y-60.071
T5
X98.665Y-112.395
X98.665Y-125.73
X98.665Y-131.445
X104.38Y-97.155
X104.38Y-104.775
X106.285Y-112.395
X106.285Y-125.73
X106.285Y-131.445
X115.175Y-65.405
X115.175Y-73.025
X136.13Y-118.745
X136.13Y-126.365
X136.765Y-131.445
X136.765Y-139.065
X137.4Y-83.185
X137.4Y-90.805
X141.21Y-118.745
X141.21Y-126.365
X141.845Y-131.445
X149.465Y-131.445
T6
X101.84Y-66.715
X101.84Y-71.715
X108.23Y-61.595
X113.23Y-61.595
X130.455Y-52.07
X135.455Y-52.07
X138.924Y-100.965
X138.924Y-103.505
X138.924Y-108.585
X138.924Y-111.125
X142.24Y-65.405
X142.24Y-67.945
X142.24Y-70.485
X142.24Y-73.025
X142.24Y-75.565
X142.24Y-78.105
X142.24Y-80.645
X142.24Y-83.185
X142.24Y-85.725
X142.24Y-88.265
X142.24Y-90.805
X142.24Y-93.345
X142.24Y-95.885
X142.24Y-98.425
X142.24Y-100.965
X142.24Y-103.505
X142.24Y-106.045
X142.24Y-108.585
X142.24Y-111.125
X142.24Y-113.665
X144.78Y-65.405
X144.78Y-67.945
X144.78Y-70.485
X144.78Y-73.025
X144.78Y-75.565
X144.78Y-78.105
X144.78Y-80.645
X144.78Y-83.185
X144.78Y-85.725
X144.78Y-88.265
X144.78Y-90.805
X144.78Y-93.345
X144.78Y-95.885
X144.78Y-98.425
X144.78Y-100.965
X144.78Y-103.505
X144.78Y-106.045
X144.78Y-108.585
X144.78Y-111.125
X144.78Y-113.665
X147.32Y-65.41
X147.32Y-67.95
X147.32Y-70.49
X147.32Y-73.03
X147.32Y-75.57
X147.32Y-78.11
X147.32Y-80.65
X147.32Y-83.19
X147.32Y-85.73
X147.32Y-88.27
X147.32Y-90.81
X147.32Y-93.35
X147.32Y-95.89
X147.32Y-98.43
X147.32Y-100.97
X147.32Y-103.51
X147.32Y-106.05
X147.32Y-108.59
X147.32Y-111.13
X147.32Y-113.67
X149.86Y-65.41
X149.86Y-67.95
X149.86Y-70.49
X149.86Y-73.03
X149.86Y-75.57
X149.86Y-78.11
X149.86Y-80.65
X149.86Y-83.19
X149.86Y-85.73
X149.86Y-88.27
X149.86Y-90.81
X149.86Y-93.35
X149.86Y-95.89
X149.86Y-98.43
X149.86Y-100.97
X149.86Y-103.51
X149.86Y-106.05
X149.86Y-108.59
X149.86Y-111.13
X149.86Y-113.67
T7
X171.45Y-60.0
X173.99Y-60.0
X175.26Y-45.085
X175.26Y-47.625
X175.26Y-50.165
X176.53Y-60.0
T8
X141.845Y-139.065
X149.955Y-139.065
X167.88Y-139.065
X183.515Y-49.53
X183.515Y-55.245
X183.515Y-61.595
T9
X100.33Y-42.545
X100.33Y-60.325
X100.33Y-118.745
X100.33Y-137.795
X148.59Y-60.325
X148.59Y-118.745
X181.61Y-42.545
X181.61Y-137.795
T0
M30
